<ttFont>
<head>
    <!-- Most of this table will be recalculated by the compiler -->
    <tableVersion value="1.0"/>
    <fontRevision value="1.0"/>
    <checkSumAdjustment value="0x1c65234b"/>
    <magicNumber value="0x5f0f3cf5"/>
    <flags value="00000000 00000001"/>
    <unitsPerEm value="1000"/>
    <created value="Mon Jun 15 19:22:58 2026"/>
    <modified value="Tue Jun 16 22:02:29 2026"/>
    <xMin value="8"/>
    <yMin value="-310"/>
    <xMax value="659"/>
    <yMax value="937"/>
    <macStyle value="00000000 00000000"/>
    <lowestRecPPEM value="3"/>
    <fontDirectionHint value="2"/>
    <indexToLocFormat value="0"/>
    <glyphDataFormat value="0"/>
  </head>
    <TTGlyph name=".notdef" xMin="50" yMin="0" xMax="450" yMax="700">
      <contour>
        <pt x="50" y="0" on="1"/>
        <pt x="50" y="700" on="1"/>
        <pt x="450" y="700" on="1"/>
        <pt x="450" y="0" on="1"/>
      </contour>
    </TTGlyph>
    <TTGlyph name="Jacute" xMin="24" yMin="-2" xMax="336" yMax="847">
      <contour>
        <pt x="176" y="566" on="1"/>
        <pt x="176" y="562" on="0"/>
        <pt x="177" y="554" on="0"/>
        <pt x="185" y="524" on="0"/>
        <pt x="194" y="490" on="1"/>
        <pt x="196" y="481" on="0"/>
        <pt x="199" y="463" on="0"/>
        <pt x="201" y="426" on="0"/>
        <pt x="203" y="353" on="0"/>
        <pt x="205" y="225" on="0"/>
        <pt x="206" y="125" on="1"/>
        <pt x="196" y="115" on="1"/>
        <pt x="182" y="101" on="0"/>
        <pt x="153" y="122" on="0"/>
        <pt x="150" y="140" on="1"/>
        <pt x="145" y="167" on="0"/>
        <pt x="153" y="211" on="0"/>
        <pt x="149" y="252" on="0"/>
        <pt x="129" y="273" on="1"/>
        <pt x="117" y="284" on="0"/>
        <pt x="103" y="286" on="0"/>
        <pt x="93" y="281" on="1"/>
        <pt x="72" y="269" on="0"/>
        <pt x="45" y="227" on="0"/>
        <pt x="30" y="183" on="0"/>
        <pt x="24" y="152" on="0"/>
        <pt x="24" y="151" on="1"/>
        <pt x="24" y="132" on="0"/>
        <pt x="49" y="96" on="0"/>
        <pt x="84" y="63" on="1"/>
        <pt x="115" y="32" on="0"/>
        <pt x="158" y="-2" on="0"/>
        <pt x="195" y="-1" on="0"/>
        <pt x="217" y="18" on="1"/>
        <pt x="220" y="21" on="0"/>
        <pt x="244" y="47" on="0"/>
        <pt x="275" y="82" on="0"/>
        <pt x="305" y="117" on="0"/>
        <pt x="325" y="140" on="0"/>
        <pt x="325" y="140" on="1"/>
        <pt x="327" y="144" on="0"/>
        <pt x="325" y="168" on="0"/>
        <pt x="320" y="204" on="1"/>
        <pt x="304" y="313" on="0"/>
        <pt x="307" y="455" on="0"/>
        <pt x="322" y="527" on="0"/>
        <pt x="324" y="531" on="1"/>
        <pt x="336" y="559" on="0"/>
        <pt x="328" y="578" on="1"/>
        <pt x="319" y="595" on="0"/>
        <pt x="290" y="646" on="0"/>
        <pt x="260" y="686" on="0"/>
        <pt x="251" y="686" on="1"/>
        <pt x="243" y="686" on="0"/>
        <pt x="219" y="658" on="0"/>
        <pt x="193" y="618" on="0"/>
        <pt x="176" y="578" on="0"/>
      </contour>
      <contour>
        <pt x="161" y="832" on="1"/>
        <pt x="150" y="820" on="0"/>
        <pt x="135" y="780" on="0"/>
        <pt x="118" y="746" on="1"/>
        <pt x="109" y="730" on="0"/>
        <pt x="114" y="721" on="0"/>
        <pt x="126" y="722" on="0"/>
        <pt x="128" y="723" on="1"/>
        <pt x="142" y="728" on="0"/>
        <pt x="175" y="750" on="0"/>
        <pt x="195" y="761" on="1"/>
        <pt x="222" y="776" on="0"/>
        <pt x="244" y="793" on="0"/>
        <pt x="243" y="807" on="0"/>
        <pt x="237" y="819" on="1"/>
        <pt x="225" y="837" on="0"/>
        <pt x="195" y="847" on="0"/>
        <pt x="167" y="839" on="0"/>
      </contour>
    </TTGlyph>
    <TTGlyph name="idotaccent" xMin="25" yMin="-2" xMax="173" yMax="691">
      <contour>
        <pt x="36" y="621" on="1"/>
        <pt x="36" y="617" on="0"/>
        <pt x="61" y="567" on="0"/>
        <pt x="98" y="544" on="1"/>
        <pt x="110" y="550" on="1"/>
        <pt x="123" y="557" on="0"/>
        <pt x="148" y="589" on="0"/>
        <pt x="164" y="618" on="0"/>
        <pt x="164" y="623" on="1"/>
        <pt x="164" y="629" on="0"/>
        <pt x="143" y="658" on="0"/>
        <pt x="115" y="685" on="0"/>
        <pt x="105" y="688" on="1"/>
        <pt x="91" y="691" on="0"/>
        <pt x="59" y="666" on="0"/>
        <pt x="36" y="631" on="0"/>
      </contour>
      <contour>
        <pt x="50" y="475" on="1"/>
        <pt x="35" y="455" on="0"/>
        <pt x="25" y="435" on="0"/>
        <pt x="29" y="416" on="0"/>
        <pt x="37" y="398" on="1"/>
        <pt x="44" y="383" on="0"/>
        <pt x="52" y="351" on="0"/>
        <pt x="54" y="302" on="0"/>
        <pt x="53" y="260" on="1"/>
        <pt x="52" y="222" on="0"/>
        <pt x="49" y="178" on="0"/>
        <pt x="42" y="148" on="0"/>
        <pt x="35" y="132" on="1"/>
        <pt x="27" y="113" on="0"/>
        <pt x="29" y="91" on="0"/>
        <pt x="39" y="72" on="1"/>
        <pt x="76" y="7" on="0"/>
        <pt x="118" y="-2" on="0"/>
        <pt x="143" y="46" on="1"/>
        <pt x="159" y="77" on="0"/>
        <pt x="173" y="94" on="0"/>
        <pt x="173" y="100" on="1"/>
        <pt x="173" y="104" on="0"/>
        <pt x="164" y="129" on="0"/>
        <pt x="164" y="129" on="1"/>
        <pt x="149" y="169" on="0"/>
        <pt x="139" y="245" on="0"/>
        <pt x="141" y="291" on="1"/>
        <pt x="143" y="333" on="0"/>
        <pt x="153" y="379" on="0"/>
        <pt x="164" y="402" on="0"/>
        <pt x="172" y="415" on="0"/>
        <pt x="172" y="424" on="1"/>
        <pt x="172" y="431" on="0"/>
        <pt x="162" y="446" on="1"/>
        <pt x="146" y="471" on="0"/>
        <pt x="139" y="480" on="0"/>
        <pt x="137" y="484" on="1"/>
        <pt x="109" y="529" on="0"/>
        <pt x="76" y="517" on="0"/>
      </contour>
    </TTGlyph>
    <TTGlyph name="jacute" xMin="24" yMin="-310" xMax="336" yMax="696">
      <contour>
        <pt x="241" y="535" on="1"/>
        <pt x="233" y="535" on="0"/>
        <pt x="210" y="513" on="0"/>
        <pt x="189" y="486" on="0"/>
        <pt x="183" y="478" on="1"/>
        <pt x="162" y="449" on="0"/>
        <pt x="146" y="422" on="0"/>
        <pt x="147" y="410" on="0"/>
        <pt x="151" y="404" on="1"/>
        <pt x="159" y="392" on="0"/>
        <pt x="168" y="375" on="0"/>
        <pt x="179" y="356" on="1"/>
        <pt x="179" y="96" on="1"/>
        <pt x="179" y="3" on="0"/>
        <pt x="178" y="-106" on="0"/>
        <pt x="175" y="-158" on="0"/>
        <pt x="171" y="-174" on="0"/>
        <pt x="168" y="-175" on="1"/>
        <pt x="156" y="-178" on="0"/>
        <pt x="138" y="-153" on="0"/>
        <pt x="128" y="-116" on="1"/>
        <pt x="117" y="-75" on="0"/>
        <pt x="61" y="-72" on="0"/>
        <pt x="36" y="-114" on="1"/>
        <pt x="29" y="-126" on="0"/>
        <pt x="24" y="-146" on="0"/>
        <pt x="24" y="-168" on="1"/>
        <pt x="24" y="-208" on="0"/>
        <pt x="55" y="-265" on="0"/>
        <pt x="91" y="-298" on="0"/>
        <pt x="99" y="-301" on="1"/>
        <pt x="116" y="-309" on="0"/>
        <pt x="137" y="-310" on="0"/>
        <pt x="164" y="-287" on="0"/>
        <pt x="191" y="-259" on="1"/>
        <pt x="212" y="-238" on="0"/>
        <pt x="241" y="-210" on="0"/>
        <pt x="275" y="-182" on="0"/>
        <pt x="304" y="-159" on="1"/>
        <pt x="303" y="-36" on="0"/>
        <pt x="301" y="208" on="0"/>
        <pt x="299" y="330" on="1"/>
        <pt x="318" y="369" on="0"/>
        <pt x="333" y="402" on="0"/>
        <pt x="336" y="411" on="0"/>
        <pt x="336" y="414" on="1"/>
        <pt x="336" y="423" on="0"/>
        <pt x="313" y="462" on="0"/>
        <pt x="280" y="505" on="0"/>
        <pt x="249" y="535" on="0"/>
      </contour>
      <contour>
        <pt x="164" y="681" on="1"/>
        <pt x="153" y="669" on="0"/>
        <pt x="138" y="629" on="0"/>
        <pt x="121" y="595" on="1"/>
        <pt x="112" y="579" on="0"/>
        <pt x="117" y="570" on="0"/>
        <pt x="129" y="571" on="0"/>
        <pt x="131" y="572" on="1"/>
        <pt x="145" y="577" on="0"/>
        <pt x="178" y="599" on="0"/>
        <pt x="198" y="610" on="1"/>
        <pt x="225" y="625" on="0"/>
        <pt x="247" y="642" on="0"/>
        <pt x="246" y="656" on="0"/>
        <pt x="240" y="668" on="1"/>
        <pt x="228" y="686" on="0"/>
        <pt x="198" y="696" on="0"/>
        <pt x="170" y="688" on="0"/>
      </contour>
    </TTGlyph>
    <TTGlyph name="uni0021" xMin="24" yMin="0" xMax="160" yMax="690">
      <contour>
        <pt x="24" y="567" on="1"/>
        <pt x="39" y="506" on="0"/>
        <pt x="65" y="378" on="0"/>
        <pt x="76" y="279" on="1"/>
        <pt x="79" y="240" on="0"/>
        <pt x="84" y="223" on="0"/>
        <pt x="91" y="223" on="1"/>
        <pt x="98" y="223" on="0"/>
        <pt x="105" y="239" on="0"/>
        <pt x="109" y="285" on="1"/>
        <pt x="125" y="422" on="0"/>
        <pt x="160" y="553" on="0"/>
        <pt x="160" y="569" on="1"/>
        <pt x="160" y="578" on="0"/>
        <pt x="141" y="624" on="0"/>
        <pt x="116" y="669" on="0"/>
        <pt x="107" y="678" on="1"/>
        <pt x="92" y="690" on="0"/>
        <pt x="59" y="656" on="0"/>
        <pt x="31" y="596" on="0"/>
      </contour>
      <contour>
        <pt x="44" y="97" on="1"/>
        <pt x="42" y="80" on="0"/>
        <pt x="57" y="34" on="0"/>
        <pt x="83" y="0" on="0"/>
        <pt x="114" y="1" on="0"/>
        <pt x="128" y="32" on="1"/>
        <pt x="143" y="64" on="0"/>
        <pt x="138" y="120" on="0"/>
        <pt x="117" y="161" on="0"/>
        <pt x="95" y="184" on="0"/>
        <pt x="93" y="184" on="1"/>
        <pt x="86" y="184" on="0"/>
        <pt x="64" y="155" on="0"/>
        <pt x="46" y="113" on="0"/>
      </contour>
    </TTGlyph>
    <TTGlyph name="uni0022" xMin="24" yMin="526" xMax="225" yMax="690">
      <contour>
        <pt x="24" y="643" on="1"/>
        <pt x="24" y="631" on="0"/>
        <pt x="28" y="618" on="0"/>
        <pt x="34" y="605" on="1"/>
        <pt x="45" y="578" on="0"/>
        <pt x="50" y="543" on="0"/>
        <pt x="55" y="526" on="0"/>
        <pt x="65" y="526" on="1"/>
        <pt x="75" y="526" on="0"/>
        <pt x="79" y="553" on="1"/>
        <pt x="85" y="589" on="0"/>
        <pt x="105" y="624" on="0"/>
        <pt x="105" y="644" on="1"/>
        <pt x="105" y="654" on="0"/>
        <pt x="104" y="658" on="1"/>
        <pt x="100" y="673" on="0"/>
        <pt x="75" y="689" on="0"/>
        <pt x="45" y="687" on="0"/>
        <pt x="24" y="665" on="0"/>
      </contour>
      <contour>
        <pt x="144" y="643" on="1"/>
        <pt x="144" y="632" on="0"/>
        <pt x="147" y="619" on="0"/>
        <pt x="153" y="605" on="1"/>
        <pt x="164" y="582" on="0"/>
        <pt x="169" y="546" on="0"/>
        <pt x="175" y="526" on="0"/>
        <pt x="185" y="526" on="1"/>
        <pt x="195" y="526" on="0"/>
        <pt x="199" y="553" on="1"/>
        <pt x="205" y="589" on="0"/>
        <pt x="225" y="624" on="0"/>
        <pt x="225" y="644" on="1"/>
        <pt x="225" y="654" on="0"/>
        <pt x="223" y="662" on="0"/>
        <pt x="218" y="669" on="1"/>
        <pt x="205" y="687" on="0"/>
        <pt x="170" y="690" on="0"/>
        <pt x="144" y="666" on="0"/>
      </contour>
    </TTGlyph>
    <TTGlyph name="uni0023" xMin="24" yMin="-34" xMax="545" yMax="597">
      <contour>
        <pt x="121" y="335" on="1"/>
        <pt x="127" y="335" on="0"/>
        <pt x="151" y="335" on="0"/>
        <pt x="171" y="334" on="0"/>
        <pt x="171" y="333" on="1"/>
        <pt x="171" y="333" on="0"/>
        <pt x="164" y="298" on="0"/>
        <pt x="154" y="254" on="0"/>
        <pt x="145" y="219" on="0"/>
        <pt x="144" y="218" on="1"/>
        <pt x="141" y="217" on="0"/>
        <pt x="112" y="215" on="0"/>
        <pt x="85" y="215" on="0"/>
        <pt x="85" y="215" on="1"/>
        <pt x="30" y="214" on="1"/>
        <pt x="25" y="170" on="0"/>
        <pt x="24" y="148" on="0"/>
        <pt x="30" y="148" on="1"/>
        <pt x="31" y="148" on="0"/>
        <pt x="67" y="146" on="0"/>
        <pt x="113" y="144" on="0"/>
        <pt x="126" y="143" on="1"/>
        <pt x="126" y="142" on="0"/>
        <pt x="120" y="112" on="0"/>
        <pt x="111" y="66" on="0"/>
        <pt x="100" y="18" on="0"/>
        <pt x="92" y="-19" on="0"/>
        <pt x="90" y="-25" on="1"/>
        <pt x="89" y="-30" on="0"/>
        <pt x="94" y="-31" on="1"/>
        <pt x="97" y="-32" on="0"/>
        <pt x="123" y="-33" on="0"/>
        <pt x="147" y="-34" on="0"/>
        <pt x="147" y="-34" on="1"/>
        <pt x="158" y="-34" on="0"/>
        <pt x="159" y="-33" on="1"/>
        <pt x="161" y="-33" on="0"/>
        <pt x="168" y="-9" on="1"/>
        <pt x="174" y="12" on="0"/>
        <pt x="185" y="51" on="0"/>
        <pt x="196" y="103" on="0"/>
        <pt x="203" y="143" on="1"/>
        <pt x="260" y="142" on="0"/>
        <pt x="299" y="140" on="0"/>
        <pt x="300" y="139" on="1"/>
        <pt x="301" y="138" on="0"/>
        <pt x="294" y="106" on="0"/>
        <pt x="284" y="58" on="0"/>
        <pt x="273" y="9" on="0"/>
        <pt x="266" y="-27" on="0"/>
        <pt x="266" y="-31" on="1"/>
        <pt x="266" y="-31" on="0"/>
        <pt x="288" y="-33" on="0"/>
        <pt x="302" y="-33" on="1"/>
        <pt x="336" y="-34" on="1"/>
        <pt x="348" y="11" on="0"/>
        <pt x="365" y="89" on="0"/>
        <pt x="375" y="139" on="0"/>
        <pt x="378" y="142" on="1"/>
        <pt x="379" y="143" on="0"/>
        <pt x="405" y="145" on="0"/>
        <pt x="431" y="145" on="0"/>
        <pt x="431" y="145" on="1"/>
        <pt x="482" y="146" on="1"/>
        <pt x="482" y="146" on="0"/>
        <pt x="488" y="176" on="0"/>
        <pt x="494" y="206" on="0"/>
        <pt x="494" y="208" on="1"/>
        <pt x="494" y="211" on="0"/>
        <pt x="476" y="213" on="0"/>
        <pt x="449" y="213" on="1"/>
        <pt x="431" y="213" on="0"/>
        <pt x="401" y="214" on="0"/>
        <pt x="400" y="215" on="1"/>
        <pt x="397" y="217" on="0"/>
        <pt x="402" y="251" on="0"/>
        <pt x="411" y="295" on="0"/>
        <pt x="419" y="330" on="0"/>
        <pt x="419" y="333" on="1"/>
        <pt x="419" y="334" on="0"/>
        <pt x="444" y="335" on="0"/>
        <pt x="472" y="335" on="0"/>
        <pt x="477" y="335" on="1"/>
        <pt x="535" y="335" on="1"/>
        <pt x="537" y="346" on="1"/>
        <pt x="537" y="354" on="0"/>
        <pt x="542" y="379" on="0"/>
        <pt x="545" y="401" on="0"/>
        <pt x="543" y="403" on="1"/>
        <pt x="542" y="406" on="0"/>
        <pt x="511" y="406" on="0"/>
        <pt x="471" y="405" on="0"/>
        <pt x="440" y="405" on="0"/>
        <pt x="438" y="407" on="1"/>
        <pt x="436" y="410" on="0"/>
        <pt x="443" y="447" on="1"/>
        <pt x="445" y="459" on="0"/>
        <pt x="455" y="506" on="0"/>
        <pt x="465" y="556" on="0"/>
        <pt x="473" y="591" on="0"/>
        <pt x="473" y="592" on="1"/>
        <pt x="473" y="593" on="0"/>
        <pt x="457" y="594" on="0"/>
        <pt x="438" y="594" on="0"/>
        <pt x="436" y="594" on="1"/>
        <pt x="401" y="595" on="1"/>
        <pt x="381" y="519" on="0"/>
        <pt x="362" y="414" on="0"/>
        <pt x="358" y="410" on="1"/>
        <pt x="357" y="409" on="0"/>
        <pt x="330" y="407" on="0"/>
        <pt x="294" y="405" on="0"/>
        <pt x="264" y="405" on="0"/>
        <pt x="261" y="407" on="1"/>
        <pt x="259" y="409" on="0"/>
        <pt x="281" y="509" on="0"/>
        <pt x="300" y="596" on="1"/>
        <pt x="300" y="597" on="0"/>
        <pt x="289" y="597" on="1"/>
        <pt x="263" y="597" on="1"/>
        <pt x="236" y="597" on="0"/>
        <pt x="225" y="595" on="0"/>
        <pt x="224" y="590" on="1"/>
        <pt x="224" y="589" on="0"/>
        <pt x="205" y="498" on="0"/>
        <pt x="186" y="408" on="1"/>
        <pt x="130" y="407" on="0"/>
        <pt x="74" y="405" on="1"/>
        <pt x="71" y="375" on="0"/>
        <pt x="70" y="361" on="0"/>
        <pt x="70" y="352" on="1"/>
        <pt x="70" y="339" on="1"/>
        <pt x="71" y="337" on="0"/>
        <pt x="101" y="335" on="0"/>
      </contour>
      <contour>
        <pt x="344" y="332" on="1"/>
        <pt x="344" y="330" on="0"/>
        <pt x="337" y="296" on="0"/>
        <pt x="329" y="255" on="0"/>
        <pt x="322" y="224" on="0"/>
        <pt x="322" y="224" on="1"/>
        <pt x="321" y="218" on="0"/>
        <pt x="307" y="216" on="0"/>
        <pt x="271" y="216" on="1"/>
        <pt x="256" y="216" on="0"/>
        <pt x="239" y="216" on="0"/>
        <pt x="222" y="217" on="1"/>
        <pt x="222" y="217" on="0"/>
        <pt x="229" y="252" on="0"/>
        <pt x="239" y="299" on="0"/>
        <pt x="246" y="335" on="0"/>
        <pt x="246" y="335" on="1"/>
        <pt x="295" y="335" on="1"/>
        <pt x="324" y="335" on="0"/>
        <pt x="344" y="332" on="0"/>
      </contour>
    </TTGlyph>
    <TTGlyph name="uni0024" xMin="23" yMin="-34" xMax="269" yMax="597">
      <contour>
        <pt x="131" y="157" on="1"/>
        <pt x="131" y="172" on="0"/>
        <pt x="127" y="201" on="0"/>
        <pt x="108" y="220" on="0"/>
        <pt x="85" y="220" on="1"/>
        <pt x="69" y="220" on="0"/>
        <pt x="62" y="215" on="1"/>
        <pt x="56" y="210" on="0"/>
        <pt x="33" y="166" on="0"/>
        <pt x="28" y="148" on="1"/>
        <pt x="23" y="132" on="0"/>
        <pt x="47" y="97" on="0"/>
        <pt x="84" y="66" on="0"/>
        <pt x="115" y="40" on="0"/>
        <pt x="117" y="32" on="1"/>
        <pt x="118" y="27" on="0"/>
        <pt x="120" y="-4" on="0"/>
        <pt x="123" y="-32" on="0"/>
        <pt x="125" y="-34" on="1"/>
        <pt x="152" y="-34" on="1"/>
        <pt x="177" y="-32" on="1"/>
        <pt x="180" y="-9" on="0"/>
        <pt x="181" y="7" on="0"/>
        <pt x="181" y="19" on="1"/>
        <pt x="182" y="40" on="1"/>
        <pt x="205" y="59" on="0"/>
        <pt x="226" y="76" on="0"/>
        <pt x="235" y="86" on="0"/>
        <pt x="242" y="93" on="1"/>
        <pt x="260" y="113" on="0"/>
        <pt x="269" y="136" on="0"/>
        <pt x="267" y="162" on="1"/>
        <pt x="266" y="180" on="0"/>
        <pt x="259" y="210" on="0"/>
        <pt x="239" y="245" on="0"/>
        <pt x="196" y="298" on="0"/>
        <pt x="159" y="340" on="1"/>
        <pt x="144" y="359" on="0"/>
        <pt x="125" y="395" on="0"/>
        <pt x="125" y="406" on="1"/>
        <pt x="125" y="416" on="0"/>
        <pt x="139" y="445" on="0"/>
        <pt x="149" y="446" on="1"/>
        <pt x="159" y="448" on="0"/>
        <pt x="169" y="426" on="0"/>
        <pt x="173" y="394" on="0"/>
        <pt x="175" y="367" on="0"/>
        <pt x="177" y="365" on="1"/>
        <pt x="178" y="361" on="0"/>
        <pt x="213" y="350" on="0"/>
        <pt x="222" y="350" on="1"/>
        <pt x="231" y="350" on="0"/>
        <pt x="247" y="370" on="0"/>
        <pt x="257" y="398" on="1"/>
        <pt x="264" y="415" on="0"/>
        <pt x="268" y="438" on="0"/>
        <pt x="254" y="460" on="0"/>
        <pt x="215" y="493" on="0"/>
        <pt x="178" y="521" on="1"/>
        <pt x="178" y="597" on="1"/>
        <pt x="150" y="597" on="1"/>
        <pt x="122" y="597" on="0"/>
        <pt x="120" y="593" on="1"/>
        <pt x="118" y="591" on="0"/>
        <pt x="117" y="572" on="0"/>
        <pt x="116" y="553" on="0"/>
        <pt x="116" y="553" on="1"/>
        <pt x="114" y="517" on="1"/>
        <pt x="87" y="500" on="0"/>
        <pt x="48" y="468" on="0"/>
        <pt x="30" y="427" on="0"/>
        <pt x="35" y="395" on="1"/>
        <pt x="40" y="362" on="0"/>
        <pt x="73" y="306" on="0"/>
        <pt x="110" y="267" on="1"/>
        <pt x="142" y="232" on="0"/>
        <pt x="169" y="189" on="0"/>
        <pt x="175" y="160" on="0"/>
        <pt x="175" y="146" on="1"/>
        <pt x="175" y="110" on="0"/>
        <pt x="151" y="110" on="1"/>
        <pt x="139" y="110" on="0"/>
        <pt x="131" y="138" on="0"/>
      </contour>
    </TTGlyph>
    <TTGlyph name="uni0025" xMin="24" yMin="-37" xMax="398" yMax="599">
      <contour>
        <pt x="26" y="544" on="1"/>
        <pt x="24" y="530" on="0"/>
        <pt x="24" y="442" on="1"/>
        <pt x="24" y="400" on="0"/>
        <pt x="25" y="351" on="0"/>
        <pt x="27" y="340" on="1"/>
        <pt x="28" y="326" on="0"/>
        <pt x="65" y="288" on="0"/>
        <pt x="93" y="288" on="1"/>
        <pt x="108" y="288" on="0"/>
        <pt x="127" y="297" on="1"/>
        <pt x="146" y="305" on="0"/>
        <pt x="162" y="330" on="0"/>
        <pt x="166" y="388" on="0"/>
        <pt x="166" y="446" on="1"/>
        <pt x="166" y="497" on="0"/>
        <pt x="164" y="543" on="0"/>
        <pt x="156" y="561" on="0"/>
        <pt x="147" y="572" on="1"/>
        <pt x="125" y="595" on="0"/>
        <pt x="83" y="599" on="0"/>
        <pt x="48" y="579" on="0"/>
        <pt x="27" y="552" on="0"/>
      </contour>
      <contour>
        <pt x="107" y="509" on="1"/>
        <pt x="107" y="493" on="0"/>
        <pt x="106" y="460" on="0"/>
        <pt x="105" y="398" on="0"/>
        <pt x="103" y="338" on="1"/>
        <pt x="99" y="337" on="0"/>
        <pt x="89" y="335" on="0"/>
        <pt x="87" y="336" on="1"/>
        <pt x="86" y="337" on="0"/>
        <pt x="85" y="365" on="0"/>
        <pt x="84" y="451" on="0"/>
        <pt x="84" y="538" on="1"/>
        <pt x="86" y="542" on="0"/>
        <pt x="96" y="542" on="1"/>
        <pt x="107" y="542" on="1"/>
      </contour>
      <contour>
        <pt x="303" y="591" on="1"/>
        <pt x="303" y="591" on="0"/>
        <pt x="279" y="525" on="0"/>
        <pt x="239" y="418" on="0"/>
        <pt x="191" y="289" on="0"/>
        <pt x="143" y="160" on="0"/>
        <pt x="102" y="51" on="0"/>
        <pt x="77" y="-16" on="0"/>
        <pt x="77" y="-17" on="1"/>
        <pt x="77" y="-18" on="0"/>
        <pt x="84" y="-19" on="1"/>
        <pt x="114" y="-24" on="0"/>
        <pt x="127" y="-16" on="0"/>
        <pt x="133" y="4" on="1"/>
        <pt x="133" y="6" on="0"/>
        <pt x="157" y="71" on="0"/>
        <pt x="196" y="176" on="0"/>
        <pt x="242" y="299" on="0"/>
        <pt x="287" y="422" on="0"/>
        <pt x="324" y="525" on="0"/>
        <pt x="346" y="589" on="0"/>
        <pt x="345" y="590" on="1"/>
        <pt x="343" y="592" on="0"/>
        <pt x="323" y="594" on="0"/>
        <pt x="304" y="593" on="0"/>
      </contour>
      <contour>
        <pt x="257" y="218" on="1"/>
        <pt x="256" y="213" on="0"/>
        <pt x="255" y="184" on="0"/>
        <pt x="255" y="152" on="0"/>
        <pt x="255" y="143" on="1"/>
        <pt x="255" y="114" on="0"/>
        <pt x="256" y="58" on="0"/>
        <pt x="257" y="20" on="0"/>
        <pt x="258" y="18" on="1"/>
        <pt x="261" y="7" on="0"/>
        <pt x="292" y="-27" on="0"/>
        <pt x="317" y="-33" on="1"/>
        <pt x="331" y="-37" on="0"/>
        <pt x="366" y="-24" on="0"/>
        <pt x="393" y="0" on="0"/>
        <pt x="395" y="13" on="1"/>
        <pt x="395" y="14" on="0"/>
        <pt x="396" y="23" on="0"/>
        <pt x="397" y="68" on="0"/>
        <pt x="398" y="122" on="1"/>
        <pt x="398" y="190" on="1"/>
        <pt x="398" y="211" on="0"/>
        <pt x="397" y="219" on="1"/>
        <pt x="395" y="235" on="0"/>
        <pt x="370" y="261" on="0"/>
        <pt x="341" y="276" on="0"/>
        <pt x="335" y="276" on="1"/>
        <pt x="324" y="276" on="0"/>
        <pt x="288" y="259" on="0"/>
        <pt x="259" y="232" on="0"/>
      </contour>
      <contour>
        <pt x="338" y="118" on="1"/>
        <pt x="338" y="100" on="0"/>
        <pt x="338" y="54" on="0"/>
        <pt x="336" y="18" on="0"/>
        <pt x="334" y="16" on="1"/>
        <pt x="329" y="11" on="0"/>
        <pt x="319" y="15" on="0"/>
        <pt x="317" y="18" on="1"/>
        <pt x="316" y="20" on="0"/>
        <pt x="315" y="54" on="0"/>
        <pt x="314" y="100" on="0"/>
        <pt x="314" y="141" on="0"/>
        <pt x="314" y="151" on="1"/>
        <pt x="314" y="190" on="0"/>
        <pt x="316" y="222" on="0"/>
        <pt x="323" y="225" on="0"/>
        <pt x="332" y="220" on="1"/>
        <pt x="337" y="217" on="0"/>
        <pt x="338" y="175" on="0"/>
      </contour>
    </TTGlyph>
    <TTGlyph name="uni0026" xMin="27" yMin="-34" xMax="455" yMax="602">
      <contour>
        <pt x="327" y="-34" on="1"/>
        <pt x="373" y="-23" on="0"/>
        <pt x="418" y="-12" on="0"/>
        <pt x="431" y="-9" on="0"/>
        <pt x="432" y="-8" on="1"/>
        <pt x="435" y="-5" on="0"/>
        <pt x="406" y="34" on="0"/>
        <pt x="376" y="88" on="1"/>
        <pt x="357" y="120" on="0"/>
        <pt x="340" y="152" on="0"/>
        <pt x="335" y="168" on="0"/>
        <pt x="335" y="176" on="1"/>
        <pt x="335" y="180" on="0"/>
        <pt x="338" y="216" on="0"/>
        <pt x="342" y="252" on="0"/>
        <pt x="344" y="255" on="1"/>
        <pt x="346" y="258" on="0"/>
        <pt x="360" y="241" on="0"/>
        <pt x="379" y="216" on="0"/>
        <pt x="403" y="197" on="0"/>
        <pt x="414" y="197" on="1"/>
        <pt x="424" y="197" on="0"/>
        <pt x="418" y="221" on="0"/>
        <pt x="403" y="253" on="0"/>
        <pt x="395" y="281" on="0"/>
        <pt x="403" y="285" on="1"/>
        <pt x="414" y="290" on="0"/>
        <pt x="451" y="301" on="0"/>
        <pt x="453" y="305" on="1"/>
        <pt x="455" y="307" on="0"/>
        <pt x="450" y="336" on="0"/>
        <pt x="443" y="366" on="0"/>
        <pt x="439" y="369" on="1"/>
        <pt x="436" y="374" on="0"/>
        <pt x="406" y="372" on="0"/>
        <pt x="400" y="367" on="1"/>
        <pt x="392" y="361" on="0"/>
        <pt x="371" y="329" on="0"/>
        <pt x="365" y="329" on="1"/>
        <pt x="361" y="329" on="0"/>
        <pt x="353" y="344" on="1"/>
        <pt x="348" y="354" on="0"/>
        <pt x="339" y="361" on="0"/>
        <pt x="313" y="362" on="0"/>
        <pt x="283" y="360" on="1"/>
        <pt x="285" y="308" on="0"/>
        <pt x="286" y="262" on="0"/>
        <pt x="286" y="247" on="0"/>
        <pt x="286" y="239" on="1"/>
        <pt x="286" y="220" on="0"/>
        <pt x="285" y="220" on="1"/>
        <pt x="283" y="220" on="0"/>
        <pt x="271" y="234" on="0"/>
        <pt x="240" y="282" on="0"/>
        <pt x="207" y="333" on="1"/>
        <pt x="182" y="370" on="0"/>
        <pt x="159" y="406" on="0"/>
        <pt x="152" y="427" on="0"/>
        <pt x="149" y="443" on="1"/>
        <pt x="140" y="484" on="0"/>
        <pt x="158" y="519" on="0"/>
        <pt x="189" y="524" on="0"/>
        <pt x="216" y="512" on="0"/>
        <pt x="216" y="507" on="1"/>
        <pt x="216" y="504" on="0"/>
        <pt x="213" y="493" on="1"/>
        <pt x="203" y="462" on="0"/>
        <pt x="211" y="435" on="0"/>
        <pt x="217" y="426" on="1"/>
        <pt x="233" y="402" on="0"/>
        <pt x="266" y="396" on="0"/>
        <pt x="297" y="416" on="0"/>
        <pt x="321" y="448" on="0"/>
        <pt x="335" y="478" on="0"/>
        <pt x="335" y="485" on="1"/>
        <pt x="335" y="496" on="0"/>
        <pt x="308" y="538" on="0"/>
        <pt x="260" y="580" on="0"/>
        <pt x="195" y="602" on="0"/>
        <pt x="157" y="594" on="1"/>
        <pt x="151" y="593" on="0"/>
        <pt x="113" y="575" on="0"/>
        <pt x="71" y="540" on="0"/>
        <pt x="45" y="485" on="0"/>
        <pt x="54" y="406" on="0"/>
        <pt x="87" y="354" on="1"/>
        <pt x="130" y="289" on="0"/>
        <pt x="127" y="285" on="1"/>
        <pt x="120" y="278" on="0"/>
        <pt x="104" y="265" on="0"/>
        <pt x="104" y="265" on="1"/>
        <pt x="72" y="240" on="0"/>
        <pt x="57" y="218" on="1"/>
        <pt x="37" y="190" on="0"/>
        <pt x="27" y="109" on="0"/>
        <pt x="39" y="81" on="1"/>
        <pt x="46" y="67" on="0"/>
        <pt x="87" y="24" on="0"/>
        <pt x="104" y="13" on="1"/>
        <pt x="141" y="-9" on="0"/>
        <pt x="204" y="-11" on="0"/>
        <pt x="254" y="8" on="0"/>
        <pt x="286" y="28" on="0"/>
        <pt x="291" y="28" on="1"/>
        <pt x="294" y="28" on="0"/>
        <pt x="304" y="6" on="0"/>
        <pt x="318" y="-23" on="0"/>
      </contour>
      <contour>
        <pt x="251" y="91" on="1"/>
        <pt x="251" y="87" on="0"/>
        <pt x="236" y="81" on="1"/>
        <pt x="203" y="67" on="0"/>
        <pt x="161" y="77" on="0"/>
        <pt x="140" y="111" on="0"/>
        <pt x="135" y="155" on="0"/>
        <pt x="143" y="197" on="0"/>
        <pt x="150" y="209" on="1"/>
        <pt x="159" y="224" on="0"/>
        <pt x="170" y="227" on="0"/>
        <pt x="177" y="216" on="1"/>
        <pt x="178" y="214" on="0"/>
        <pt x="201" y="177" on="0"/>
        <pt x="229" y="130" on="0"/>
        <pt x="251" y="93" on="0"/>
      </contour>
    </TTGlyph>
    <TTGlyph name="uni0027" xMin="24" yMin="527" xMax="105" yMax="690">
      <contour>
        <pt x="24" y="644" on="1"/>
        <pt x="24" y="632" on="0"/>
        <pt x="28" y="619" on="0"/>
        <pt x="34" y="606" on="1"/>
        <pt x="45" y="579" on="0"/>
        <pt x="50" y="544" on="0"/>
        <pt x="55" y="527" on="0"/>
        <pt x="65" y="527" on="1"/>
        <pt x="75" y="527" on="0"/>
        <pt x="79" y="554" on="1"/>
        <pt x="85" y="590" on="0"/>
        <pt x="105" y="625" on="0"/>
        <pt x="105" y="645" on="1"/>
        <pt x="105" y="655" on="0"/>
        <pt x="104" y="659" on="1"/>
        <pt x="100" y="674" on="0"/>
        <pt x="75" y="690" on="0"/>
        <pt x="45" y="688" on="0"/>
        <pt x="24" y="666" on="0"/>
      </contour>
    </TTGlyph>
    <TTGlyph name="uni0028" xMin="23" yMin="-34" xMax="179" yMax="597">
      <contour>
        <pt x="179" y="-9" on="1"/>
        <pt x="179" y="-4" on="0"/>
        <pt x="174" y="0" on="1"/>
        <pt x="160" y="12" on="0"/>
        <pt x="137" y="55" on="0"/>
        <pt x="120" y="99" on="0"/>
        <pt x="110" y="132" on="0"/>
        <pt x="109" y="135" on="1"/>
        <pt x="86" y="217" on="0"/>
        <pt x="88" y="374" on="0"/>
        <pt x="117" y="459" on="1"/>
        <pt x="132" y="504" on="0"/>
        <pt x="161" y="547" on="0"/>
        <pt x="179" y="567" on="1"/>
        <pt x="170" y="576" on="0"/>
        <pt x="146" y="597" on="0"/>
        <pt x="141" y="597" on="1"/>
        <pt x="139" y="597" on="0"/>
        <pt x="126" y="587" on="1"/>
        <pt x="45" y="522" on="0"/>
        <pt x="28" y="338" on="1"/>
        <pt x="23" y="289" on="0"/>
        <pt x="32" y="191" on="0"/>
        <pt x="38" y="160" on="1"/>
        <pt x="49" y="94" on="0"/>
        <pt x="91" y="8" on="0"/>
        <pt x="133" y="-34" on="0"/>
        <pt x="143" y="-34" on="1"/>
        <pt x="148" y="-34" on="0"/>
        <pt x="165" y="-23" on="0"/>
        <pt x="179" y="-11" on="0"/>
      </contour>
    </TTGlyph>
    <TTGlyph name="uni0029" xMin="24" yMin="-34" xMax="178" yMax="597">
      <contour>
        <pt x="60" y="-34" on="1"/>
        <pt x="65" y="-34" on="0"/>
        <pt x="78" y="-24" on="1"/>
        <pt x="108" y="-3" on="0"/>
        <pt x="151" y="88" on="0"/>
        <pt x="175" y="206" on="0"/>
        <pt x="178" y="335" on="0"/>
        <pt x="158" y="458" on="0"/>
        <pt x="113" y="558" on="0"/>
        <pt x="77" y="587" on="1"/>
        <pt x="64" y="597" on="0"/>
        <pt x="61" y="597" on="1"/>
        <pt x="59" y="597" on="0"/>
        <pt x="44" y="586" on="1"/>
        <pt x="28" y="574" on="0"/>
        <pt x="27" y="564" on="0"/>
        <pt x="38" y="551" on="1"/>
        <pt x="61" y="524" on="0"/>
        <pt x="102" y="421" on="0"/>
        <pt x="120" y="284" on="0"/>
        <pt x="101" y="130" on="0"/>
        <pt x="64" y="53" on="1"/>
        <pt x="51" y="25" on="0"/>
        <pt x="33" y="3" on="0"/>
        <pt x="24" y="-4" on="0"/>
        <pt x="24" y="-9" on="1"/>
        <pt x="24" y="-11" on="0"/>
        <pt x="38" y="-23" on="0"/>
        <pt x="55" y="-34" on="0"/>
      </contour>
    </TTGlyph>
    <TTGlyph name="uni002A" xMin="24" yMin="204" xMax="360" yMax="607">
      <contour>
        <pt x="210" y="380" on="1"/>
        <pt x="217" y="375" on="0"/>
        <pt x="232" y="348" on="0"/>
        <pt x="254" y="324" on="1"/>
        <pt x="292" y="282" on="0"/>
        <pt x="330" y="272" on="0"/>
        <pt x="348" y="300" on="1"/>
        <pt x="355" y="312" on="0"/>
        <pt x="355" y="327" on="0"/>
        <pt x="347" y="338" on="1"/>
        <pt x="343" y="343" on="0"/>
        <pt x="304" y="366" on="0"/>
        <pt x="256" y="388" on="0"/>
        <pt x="240" y="393" on="1"/>
        <pt x="224" y="398" on="0"/>
        <pt x="227" y="402" on="1"/>
        <pt x="227" y="403" on="0"/>
        <pt x="254" y="413" on="0"/>
        <pt x="294" y="430" on="0"/>
        <pt x="333" y="449" on="0"/>
        <pt x="360" y="470" on="0"/>
        <pt x="360" y="479" on="1"/>
        <pt x="360" y="484" on="0"/>
        <pt x="348" y="504" on="0"/>
        <pt x="333" y="522" on="0"/>
        <pt x="329" y="523" on="1"/>
        <pt x="323" y="526" on="0"/>
        <pt x="288" y="504" on="0"/>
        <pt x="248" y="472" on="0"/>
        <pt x="218" y="447" on="0"/>
        <pt x="216" y="447" on="1"/>
        <pt x="212" y="447" on="0"/>
        <pt x="217" y="458" on="1"/>
        <pt x="219" y="467" on="0"/>
        <pt x="221" y="503" on="0"/>
        <pt x="223" y="534" on="0"/>
        <pt x="223" y="534" on="1"/>
        <pt x="225" y="576" on="0"/>
        <pt x="223" y="597" on="0"/>
        <pt x="217" y="600" on="1"/>
        <pt x="216" y="600" on="0"/>
        <pt x="193" y="605" on="0"/>
        <pt x="167" y="607" on="0"/>
        <pt x="163" y="601" on="1"/>
        <pt x="160" y="597" on="0"/>
        <pt x="158" y="568" on="0"/>
        <pt x="159" y="540" on="0"/>
        <pt x="159" y="538" on="1"/>
        <pt x="161" y="490" on="0"/>
        <pt x="171" y="454" on="0"/>
        <pt x="178" y="448" on="0"/>
        <pt x="175" y="445" on="1"/>
        <pt x="174" y="444" on="0"/>
        <pt x="153" y="461" on="0"/>
        <pt x="125" y="487" on="0"/>
        <pt x="97" y="512" on="0"/>
        <pt x="88" y="518" on="1"/>
        <pt x="70" y="531" on="0"/>
        <pt x="46" y="524" on="0"/>
        <pt x="32" y="501" on="0"/>
        <pt x="27" y="475" on="0"/>
        <pt x="29" y="470" on="1"/>
        <pt x="32" y="461" on="0"/>
        <pt x="62" y="442" on="0"/>
        <pt x="97" y="426" on="0"/>
        <pt x="123" y="416" on="0"/>
        <pt x="123" y="416" on="1"/>
        <pt x="129" y="414" on="0"/>
        <pt x="149" y="405" on="0"/>
        <pt x="159" y="398" on="0"/>
        <pt x="150" y="398" on="1"/>
        <pt x="149" y="398" on="0"/>
        <pt x="113" y="382" on="0"/>
        <pt x="65" y="358" on="0"/>
        <pt x="27" y="334" on="0"/>
        <pt x="25" y="325" on="1"/>
        <pt x="24" y="321" on="0"/>
        <pt x="40" y="295" on="0"/>
        <pt x="67" y="276" on="0"/>
        <pt x="83" y="282" on="1"/>
        <pt x="90" y="284" on="0"/>
        <pt x="118" y="312" on="0"/>
        <pt x="148" y="347" on="0"/>
        <pt x="172" y="373" on="0"/>
        <pt x="175" y="373" on="1"/>
        <pt x="176" y="373" on="0"/>
        <pt x="169" y="337" on="0"/>
        <pt x="159" y="285" on="0"/>
        <pt x="153" y="238" on="0"/>
        <pt x="156" y="228" on="1"/>
        <pt x="159" y="216" on="0"/>
        <pt x="184" y="204" on="0"/>
        <pt x="197" y="205" on="1"/>
        <pt x="219" y="205" on="0"/>
        <pt x="226" y="233" on="0"/>
        <pt x="226" y="263" on="1"/>
        <pt x="225" y="309" on="0"/>
        <pt x="215" y="359" on="0"/>
        <pt x="208" y="379" on="0"/>
      </contour>
    </TTGlyph>
    <TTGlyph name="uni002B" xMin="24" yMin="15" xMax="413" yMax="417">
      <contour>
        <pt x="180" y="175" on="1"/>
        <pt x="181" y="173" on="0"/>
        <pt x="181" y="149" on="1"/>
        <pt x="181" y="93" on="1"/>
        <pt x="182" y="15" on="1"/>
        <pt x="252" y="15" on="1"/>
        <pt x="252" y="52" on="1"/>
        <pt x="252" y="52" on="0"/>
        <pt x="252" y="76" on="0"/>
        <pt x="253" y="108" on="0"/>
        <pt x="253" y="133" on="0"/>
        <pt x="253" y="135" on="1"/>
        <pt x="254" y="180" on="1"/>
        <pt x="328" y="180" on="1"/>
        <pt x="372" y="180" on="0"/>
        <pt x="390" y="182" on="1"/>
        <pt x="404" y="183" on="0"/>
        <pt x="413" y="196" on="0"/>
        <pt x="413" y="221" on="1"/>
        <pt x="413" y="249" on="1"/>
        <pt x="366" y="248" on="0"/>
        <pt x="319" y="247" on="0"/>
        <pt x="298" y="247" on="0"/>
        <pt x="291" y="247" on="1"/>
        <pt x="273" y="247" on="0"/>
        <pt x="264" y="248" on="0"/>
        <pt x="254" y="250" on="1"/>
        <pt x="253" y="333" on="0"/>
        <pt x="252" y="415" on="1"/>
        <pt x="243" y="415" on="0"/>
        <pt x="215" y="416" on="0"/>
        <pt x="194" y="417" on="0"/>
        <pt x="194" y="417" on="1"/>
        <pt x="183" y="417" on="0"/>
        <pt x="183" y="416" on="1"/>
        <pt x="183" y="334" on="1"/>
        <pt x="182" y="252" on="1"/>
        <pt x="104" y="250" on="0"/>
        <pt x="26" y="249" on="1"/>
        <pt x="25" y="214" on="0"/>
        <pt x="24" y="180" on="1"/>
        <pt x="102" y="180" on="1"/>
        <pt x="150" y="180" on="0"/>
        <pt x="180" y="178" on="0"/>
      </contour>
    </TTGlyph>
    <TTGlyph name="uni002C" xMin="24" yMin="-105" xMax="130" yMax="140">
      <contour>
        <pt x="24" y="62" on="1"/>
        <pt x="24" y="42" on="0"/>
        <pt x="44" y="13" on="0"/>
        <pt x="62" y="-13" on="0"/>
        <pt x="62" y="-28" on="1"/>
        <pt x="62" y="-37" on="0"/>
        <pt x="57" y="-52" on="0"/>
        <pt x="47" y="-72" on="1"/>
        <pt x="36" y="-96" on="0"/>
        <pt x="38" y="-105" on="0"/>
        <pt x="50" y="-105" on="1"/>
        <pt x="60" y="-105" on="0"/>
        <pt x="67" y="-98" on="1"/>
        <pt x="76" y="-89" on="0"/>
        <pt x="96" y="-44" on="0"/>
        <pt x="115" y="7" on="0"/>
        <pt x="126" y="48" on="0"/>
        <pt x="128" y="54" on="1"/>
        <pt x="130" y="76" on="0"/>
        <pt x="106" y="115" on="0"/>
        <pt x="78" y="140" on="0"/>
        <pt x="76" y="140" on="1"/>
        <pt x="71" y="140" on="0"/>
        <pt x="46" y="116" on="0"/>
        <pt x="24" y="80" on="0"/>
      </contour>
    </TTGlyph>
    <TTGlyph name="uni002D" xMin="24" yMin="192" xMax="157" yMax="240">
      <contour>
        <pt x="24" y="214" on="1"/>
        <pt x="24" y="192" on="1"/>
        <pt x="152" y="192" on="1"/>
        <pt x="155" y="209" on="0"/>
        <pt x="157" y="230" on="0"/>
        <pt x="157" y="231" on="1"/>
        <pt x="157" y="236" on="0"/>
        <pt x="155" y="238" on="1"/>
        <pt x="154" y="239" on="0"/>
        <pt x="124" y="240" on="0"/>
        <pt x="93" y="240" on="0"/>
        <pt x="90" y="240" on="1"/>
        <pt x="66" y="240" on="0"/>
        <pt x="26" y="239" on="0"/>
        <pt x="26" y="238" on="1"/>
        <pt x="25" y="238" on="0"/>
        <pt x="24" y="217" on="0"/>
      </contour>
    </TTGlyph>
    <TTGlyph name="uni002E" xMin="24" yMin="0" xMax="136" yMax="165">
      <contour>
        <pt x="30" y="103" on="1"/>
        <pt x="24" y="80" on="0"/>
        <pt x="43" y="32" on="0"/>
        <pt x="74" y="0" on="0"/>
        <pt x="84" y="0" on="1"/>
        <pt x="87" y="0" on="0"/>
        <pt x="94" y="6" on="1"/>
        <pt x="105" y="12" on="0"/>
        <pt x="122" y="42" on="0"/>
        <pt x="133" y="71" on="0"/>
        <pt x="134" y="78" on="1"/>
        <pt x="136" y="100" on="0"/>
        <pt x="115" y="140" on="0"/>
        <pt x="87" y="165" on="0"/>
        <pt x="82" y="165" on="1"/>
        <pt x="75" y="165" on="0"/>
        <pt x="51" y="142" on="0"/>
        <pt x="32" y="113" on="0"/>
      </contour>
    </TTGlyph>
    <TTGlyph name="uni002F" xMin="24" yMin="-34" xMax="195" yMax="597">
      <contour>
        <pt x="142" y="543" on="1"/>
        <pt x="153" y="597" on="1"/>
        <pt x="174" y="597" on="1"/>
        <pt x="195" y="597" on="1"/>
        <pt x="193" y="587" on="1"/>
        <pt x="193" y="583" on="0"/>
        <pt x="183" y="537" on="0"/>
        <pt x="177" y="508" on="1"/>
        <pt x="168" y="467" on="0"/>
        <pt x="143" y="345" on="0"/>
        <pt x="114" y="200" on="0"/>
        <pt x="98" y="122" on="1"/>
        <pt x="89" y="76" on="0"/>
        <pt x="73" y="-2" on="0"/>
        <pt x="71" y="-11" on="1"/>
        <pt x="70" y="-19" on="0"/>
        <pt x="66" y="-33" on="0"/>
        <pt x="65" y="-34" on="1"/>
        <pt x="65" y="-34" on="0"/>
        <pt x="52" y="-34" on="0"/>
        <pt x="43" y="-33" on="1"/>
        <pt x="28" y="-32" on="0"/>
        <pt x="24" y="-30" on="0"/>
        <pt x="24" y="-25" on="1"/>
        <pt x="25" y="-22" on="0"/>
        <pt x="37" y="34" on="0"/>
        <pt x="45" y="71" on="1"/>
        <pt x="50" y="96" on="0"/>
        <pt x="63" y="161" on="0"/>
        <pt x="77" y="226" on="0"/>
        <pt x="81" y="251" on="1"/>
        <pt x="86" y="276" on="0"/>
        <pt x="99" y="337" on="0"/>
        <pt x="111" y="395" on="0"/>
        <pt x="115" y="415" on="1"/>
        <pt x="121" y="445" on="0"/>
        <pt x="137" y="520" on="0"/>
      </contour>
    </TTGlyph>
    <TTGlyph name="uni0030" xMin="24" yMin="-6" xMax="320" yMax="700">
      <contour>
        <pt x="120" y="666" on="1"/>
        <pt x="109" y="657" on="0"/>
        <pt x="77" y="620" on="0"/>
        <pt x="45" y="581" on="0"/>
        <pt x="24" y="552" on="0"/>
        <pt x="24" y="552" on="1"/>
        <pt x="24" y="138" on="1"/>
        <pt x="40" y="112" on="0"/>
        <pt x="81" y="61" on="0"/>
        <pt x="112" y="28" on="0"/>
        <pt x="113" y="27" on="1"/>
        <pt x="134" y="3" on="0"/>
        <pt x="173" y="-6" on="0"/>
        <pt x="204" y="6" on="0"/>
        <pt x="224" y="22" on="0"/>
        <pt x="225" y="24" on="1"/>
        <pt x="246" y="46" on="0"/>
        <pt x="285" y="94" on="0"/>
        <pt x="313" y="134" on="0"/>
        <pt x="315" y="142" on="1"/>
        <pt x="316" y="144" on="0"/>
        <pt x="317" y="181" on="0"/>
        <pt x="318" y="236" on="0"/>
        <pt x="319" y="294" on="0"/>
        <pt x="319" y="342" on="0"/>
        <pt x="319" y="352" on="1"/>
        <pt x="320" y="552" on="1"/>
        <pt x="276" y="618" on="0"/>
        <pt x="211" y="677" on="0"/>
        <pt x="204" y="682" on="1"/>
        <pt x="174" y="700" on="0"/>
        <pt x="131" y="678" on="0"/>
      </contour>
      <contour>
        <pt x="200" y="551" on="1"/>
        <pt x="201" y="547" on="0"/>
        <pt x="202" y="502" on="0"/>
        <pt x="203" y="441" on="0"/>
        <pt x="203" y="381" on="0"/>
        <pt x="203" y="341" on="0"/>
        <pt x="203" y="340" on="1"/>
        <pt x="203" y="229" on="1"/>
        <pt x="203" y="196" on="0"/>
        <pt x="202" y="149" on="0"/>
        <pt x="201" y="141" on="1"/>
        <pt x="197" y="123" on="0"/>
        <pt x="178" y="102" on="0"/>
        <pt x="170" y="105" on="1"/>
        <pt x="143" y="111" on="0"/>
        <pt x="134" y="190" on="0"/>
        <pt x="134" y="257" on="1"/>
        <pt x="134" y="358" on="1"/>
        <pt x="133" y="546" on="1"/>
        <pt x="139" y="557" on="0"/>
        <pt x="158" y="583" on="0"/>
        <pt x="168" y="583" on="1"/>
        <pt x="172" y="583" on="0"/>
        <pt x="197" y="562" on="0"/>
      </contour>
    </TTGlyph>
    <TTGlyph name="uni0031" xMin="26" yMin="-4" xMax="212" yMax="692">
      <contour>
        <pt x="164" y="692" on="1"/>
        <pt x="153" y="685" on="0"/>
        <pt x="144" y="679" on="0"/>
        <pt x="138" y="674" on="1"/>
        <pt x="101" y="649" on="0"/>
        <pt x="57" y="632" on="0"/>
        <pt x="35" y="629" on="0"/>
        <pt x="30" y="624" on="1"/>
        <pt x="26" y="620" on="0"/>
        <pt x="39" y="594" on="0"/>
        <pt x="59" y="561" on="0"/>
        <pt x="66" y="547" on="1"/>
        <pt x="73" y="531" on="0"/>
        <pt x="80" y="462" on="0"/>
        <pt x="81" y="378" on="0"/>
        <pt x="80" y="300" on="0"/>
        <pt x="79" y="249" on="0"/>
        <pt x="79" y="248" on="1"/>
        <pt x="77" y="206" on="0"/>
        <pt x="68" y="158" on="0"/>
        <pt x="59" y="131" on="0"/>
        <pt x="52" y="114" on="0"/>
        <pt x="52" y="105" on="1"/>
        <pt x="52" y="101" on="0"/>
        <pt x="63" y="77" on="0"/>
        <pt x="74" y="56" on="0"/>
        <pt x="75" y="56" on="1"/>
        <pt x="84" y="39" on="0"/>
        <pt x="104" y="9" on="0"/>
        <pt x="129" y="-4" on="0"/>
        <pt x="145" y="6" on="1"/>
        <pt x="154" y="11" on="0"/>
        <pt x="177" y="43" on="0"/>
        <pt x="198" y="80" on="0"/>
        <pt x="212" y="107" on="0"/>
        <pt x="212" y="107" on="1"/>
        <pt x="212" y="113" on="0"/>
        <pt x="204" y="131" on="1"/>
        <pt x="197" y="146" on="0"/>
        <pt x="189" y="172" on="0"/>
        <pt x="184" y="214" on="0"/>
        <pt x="183" y="290" on="0"/>
        <pt x="183" y="420" on="0"/>
        <pt x="184" y="522" on="1"/>
        <pt x="194" y="555" on="0"/>
        <pt x="201" y="582" on="0"/>
        <pt x="203" y="589" on="0"/>
        <pt x="203" y="590" on="1"/>
        <pt x="203" y="593" on="0"/>
        <pt x="192" y="624" on="0"/>
        <pt x="177" y="663" on="0"/>
        <pt x="165" y="692" on="0"/>
      </contour>
    </TTGlyph>
    <TTGlyph name="uni0032" xMin="24" yMin="-6" xMax="343" yMax="694">
      <contour>
        <pt x="172" y="583" on="1"/>
        <pt x="189" y="583" on="0"/>
        <pt x="204" y="550" on="0"/>
        <pt x="204" y="507" on="1"/>
        <pt x="204" y="465" on="0"/>
        <pt x="198" y="431" on="1"/>
        <pt x="191" y="397" on="0"/>
        <pt x="156" y="318" on="0"/>
        <pt x="113" y="243" on="0"/>
        <pt x="72" y="181" on="0"/>
        <pt x="45" y="143" on="0"/>
        <pt x="44" y="142" on="1"/>
        <pt x="32" y="127" on="0"/>
        <pt x="24" y="110" on="0"/>
        <pt x="24" y="105" on="1"/>
        <pt x="24" y="98" on="0"/>
        <pt x="38" y="62" on="0"/>
        <pt x="58" y="23" on="0"/>
        <pt x="78" y="-4" on="0"/>
        <pt x="84" y="-2" on="1"/>
        <pt x="88" y="-1" on="0"/>
        <pt x="106" y="20" on="0"/>
        <pt x="122" y="42" on="0"/>
        <pt x="122" y="42" on="1"/>
        <pt x="147" y="36" on="1"/>
        <pt x="166" y="31" on="0"/>
        <pt x="209" y="11" on="0"/>
        <pt x="242" y="-6" on="0"/>
        <pt x="248" y="-6" on="1"/>
        <pt x="259" y="-6" on="0"/>
        <pt x="292" y="22" on="0"/>
        <pt x="322" y="61" on="0"/>
        <pt x="343" y="97" on="0"/>
        <pt x="343" y="104" on="1"/>
        <pt x="343" y="107" on="0"/>
        <pt x="337" y="122" on="1"/>
        <pt x="324" y="152" on="0"/>
        <pt x="301" y="197" on="0"/>
        <pt x="273" y="215" on="0"/>
        <pt x="252" y="204" on="1"/>
        <pt x="239" y="198" on="0"/>
        <pt x="230" y="178" on="0"/>
        <pt x="230" y="151" on="1"/>
        <pt x="230" y="126" on="0"/>
        <pt x="228" y="119" on="1"/>
        <pt x="225" y="110" on="0"/>
        <pt x="191" y="98" on="0"/>
        <pt x="167" y="119" on="1"/>
        <pt x="158" y="126" on="0"/>
        <pt x="148" y="130" on="0"/>
        <pt x="139" y="130" on="1"/>
        <pt x="127" y="129" on="0"/>
        <pt x="127" y="132" on="1"/>
        <pt x="127" y="133" on="0"/>
        <pt x="162" y="222" on="0"/>
        <pt x="218" y="297" on="1"/>
        <pt x="253" y="343" on="0"/>
        <pt x="294" y="403" on="0"/>
        <pt x="314" y="447" on="0"/>
        <pt x="320" y="491" on="0"/>
        <pt x="320" y="522" on="1"/>
        <pt x="320" y="556" on="1"/>
        <pt x="320" y="576" on="0"/>
        <pt x="287" y="625" on="0"/>
        <pt x="239" y="668" on="0"/>
        <pt x="191" y="694" on="0"/>
        <pt x="177" y="692" on="1"/>
        <pt x="164" y="690" on="0"/>
        <pt x="116" y="661" on="0"/>
        <pt x="65" y="620" on="0"/>
        <pt x="29" y="577" on="0"/>
        <pt x="29" y="562" on="1"/>
        <pt x="29" y="560" on="0"/>
        <pt x="35" y="524" on="0"/>
        <pt x="48" y="476" on="0"/>
        <pt x="71" y="434" on="0"/>
        <pt x="106" y="418" on="0"/>
        <pt x="130" y="433" on="1"/>
        <pt x="170" y="457" on="0"/>
        <pt x="155" y="507" on="1"/>
        <pt x="145" y="543" on="0"/>
        <pt x="142" y="556" on="0"/>
        <pt x="142" y="559" on="1"/>
        <pt x="142" y="559" on="0"/>
        <pt x="145" y="571" on="0"/>
        <pt x="158" y="584" on="0"/>
      </contour>
    </TTGlyph>
    <TTGlyph name="uni0033" xMin="24" yMin="-9" xMax="319" yMax="699">
      <contour>
        <pt x="25" y="575" on="1"/>
        <pt x="24" y="568" on="0"/>
        <pt x="24" y="555" on="1"/>
        <pt x="26" y="527" on="0"/>
        <pt x="59" y="474" on="0"/>
        <pt x="79" y="467" on="1"/>
        <pt x="95" y="462" on="0"/>
        <pt x="132" y="474" on="0"/>
        <pt x="151" y="512" on="0"/>
        <pt x="139" y="546" on="1"/>
        <pt x="134" y="562" on="0"/>
        <pt x="134" y="570" on="1"/>
        <pt x="134" y="582" on="0"/>
        <pt x="154" y="590" on="0"/>
        <pt x="178" y="586" on="0"/>
        <pt x="185" y="579" on="1"/>
        <pt x="193" y="571" on="0"/>
        <pt x="199" y="529" on="0"/>
        <pt x="196" y="478" on="0"/>
        <pt x="185" y="433" on="0"/>
        <pt x="176" y="421" on="1"/>
        <pt x="171" y="414" on="0"/>
        <pt x="160" y="408" on="0"/>
        <pt x="132" y="401" on="0"/>
        <pt x="102" y="395" on="1"/>
        <pt x="96" y="364" on="0"/>
        <pt x="101" y="360" on="1"/>
        <pt x="107" y="355" on="0"/>
        <pt x="147" y="355" on="0"/>
        <pt x="162" y="350" on="1"/>
        <pt x="180" y="344" on="0"/>
        <pt x="197" y="292" on="0"/>
        <pt x="202" y="224" on="0"/>
        <pt x="202" y="194" on="1"/>
        <pt x="203" y="165" on="0"/>
        <pt x="202" y="136" on="0"/>
        <pt x="198" y="123" on="0"/>
        <pt x="195" y="117" on="1"/>
        <pt x="190" y="107" on="0"/>
        <pt x="184" y="102" on="0"/>
        <pt x="176" y="101" on="1"/>
        <pt x="161" y="101" on="0"/>
        <pt x="145" y="118" on="0"/>
        <pt x="140" y="135" on="0"/>
        <pt x="140" y="136" on="1"/>
        <pt x="136" y="154" on="0"/>
        <pt x="145" y="190" on="0"/>
        <pt x="145" y="222" on="1"/>
        <pt x="145" y="243" on="0"/>
        <pt x="138" y="263" on="0"/>
        <pt x="118" y="272" on="1"/>
        <pt x="95" y="281" on="0"/>
        <pt x="63" y="265" on="0"/>
        <pt x="42" y="229" on="0"/>
        <pt x="31" y="187" on="0"/>
        <pt x="26" y="151" on="0"/>
        <pt x="26" y="143" on="1"/>
        <pt x="25" y="134" on="0"/>
        <pt x="28" y="118" on="0"/>
        <pt x="45" y="92" on="0"/>
        <pt x="67" y="69" on="1"/>
        <pt x="117" y="15" on="0"/>
        <pt x="178" y="-9" on="0"/>
        <pt x="203" y="3" on="1"/>
        <pt x="213" y="7" on="0"/>
        <pt x="241" y="34" on="0"/>
        <pt x="264" y="62" on="0"/>
        <pt x="268" y="66" on="1"/>
        <pt x="293" y="98" on="0"/>
        <pt x="315" y="134" on="0"/>
        <pt x="319" y="156" on="0"/>
        <pt x="319" y="168" on="1"/>
        <pt x="319" y="215" on="0"/>
        <pt x="311" y="289" on="0"/>
        <pt x="274" y="347" on="0"/>
        <pt x="229" y="369" on="1"/>
        <pt x="206" y="380" on="0"/>
        <pt x="203" y="388" on="0"/>
        <pt x="223" y="401" on="1"/>
        <pt x="238" y="409" on="0"/>
        <pt x="274" y="450" on="0"/>
        <pt x="283" y="469" on="1"/>
        <pt x="292" y="487" on="0"/>
        <pt x="304" y="539" on="0"/>
        <pt x="308" y="587" on="0"/>
        <pt x="304" y="597" on="1"/>
        <pt x="298" y="608" on="0"/>
        <pt x="258" y="647" on="0"/>
        <pt x="213" y="682" on="0"/>
        <pt x="200" y="688" on="1"/>
        <pt x="177" y="699" on="0"/>
        <pt x="119" y="678" on="0"/>
        <pt x="65" y="635" on="0"/>
        <pt x="27" y="589" on="0"/>
      </contour>
    </TTGlyph>
    <TTGlyph name="uni0034" xMin="24" yMin="-3" xMax="365" yMax="692">
      <contour>
        <pt x="57" y="140" on="1"/>
        <pt x="57" y="140" on="0"/>
        <pt x="104" y="137" on="0"/>
        <pt x="123" y="137" on="1"/>
        <pt x="179" y="135" on="1"/>
        <pt x="181" y="105" on="0"/>
        <pt x="190" y="56" on="0"/>
        <pt x="220" y="15" on="0"/>
        <pt x="252" y="-3" on="1"/>
        <pt x="263" y="3" on="1"/>
        <pt x="271" y="8" on="0"/>
        <pt x="293" y="38" on="0"/>
        <pt x="310" y="74" on="0"/>
        <pt x="310" y="87" on="1"/>
        <pt x="310" y="98" on="0"/>
        <pt x="304" y="124" on="0"/>
        <pt x="306" y="128" on="1"/>
        <pt x="307" y="133" on="0"/>
        <pt x="328" y="137" on="0"/>
        <pt x="352" y="143" on="0"/>
        <pt x="365" y="158" on="0"/>
        <pt x="359" y="173" on="1"/>
        <pt x="352" y="188" on="0"/>
        <pt x="328" y="196" on="0"/>
        <pt x="306" y="196" on="0"/>
        <pt x="302" y="200" on="1"/>
        <pt x="301" y="201" on="0"/>
        <pt x="299" y="233" on="0"/>
        <pt x="298" y="279" on="0"/>
        <pt x="297" y="325" on="0"/>
        <pt x="297" y="357" on="0"/>
        <pt x="297" y="357" on="1"/>
        <pt x="297" y="412" on="0"/>
        <pt x="298" y="475" on="0"/>
        <pt x="303" y="515" on="0"/>
        <pt x="313" y="553" on="0"/>
        <pt x="323" y="582" on="1"/>
        <pt x="323" y="586" on="0"/>
        <pt x="302" y="617" on="0"/>
        <pt x="277" y="654" on="0"/>
        <pt x="270" y="666" on="1"/>
        <pt x="263" y="676" on="0"/>
        <pt x="251" y="692" on="0"/>
        <pt x="249" y="692" on="1"/>
        <pt x="246" y="692" on="0"/>
        <pt x="216" y="673" on="0"/>
        <pt x="174" y="647" on="0"/>
        <pt x="154" y="636" on="1"/>
        <pt x="121" y="617" on="0"/>
        <pt x="94" y="598" on="0"/>
        <pt x="90" y="591" on="1"/>
        <pt x="84" y="582" on="0"/>
        <pt x="101" y="538" on="0"/>
        <pt x="101" y="505" on="1"/>
        <pt x="101" y="415" on="0"/>
        <pt x="78" y="296" on="0"/>
        <pt x="47" y="223" on="0"/>
        <pt x="24" y="182" on="0"/>
        <pt x="24" y="170" on="1"/>
        <pt x="24" y="164" on="0"/>
        <pt x="49" y="142" on="0"/>
      </contour>
      <contour>
        <pt x="193" y="442" on="1"/>
        <pt x="192" y="438" on="0"/>
        <pt x="191" y="387" on="0"/>
        <pt x="190" y="318" on="0"/>
        <pt x="189" y="249" on="0"/>
        <pt x="187" y="203" on="0"/>
        <pt x="186" y="202" on="1"/>
        <pt x="183" y="198" on="0"/>
        <pt x="145" y="198" on="1"/>
        <pt x="106" y="198" on="1"/>
        <pt x="108" y="209" on="1"/>
        <pt x="109" y="213" on="0"/>
        <pt x="122" y="257" on="0"/>
        <pt x="139" y="311" on="0"/>
        <pt x="152" y="351" on="0"/>
        <pt x="152" y="352" on="1"/>
        <pt x="153" y="355" on="0"/>
        <pt x="163" y="389" on="0"/>
        <pt x="176" y="432" on="0"/>
        <pt x="188" y="464" on="0"/>
        <pt x="191" y="464" on="1"/>
        <pt x="194" y="463" on="0"/>
      </contour>
    </TTGlyph>
    <TTGlyph name="uni0035" xMin="25" yMin="-4" xMax="326" yMax="698">
      <contour>
        <pt x="141" y="385" on="1"/>
        <pt x="153" y="385" on="0"/>
        <pt x="168" y="376" on="1"/>
        <pt x="177" y="370" on="0"/>
        <pt x="188" y="358" on="0"/>
        <pt x="194" y="329" on="0"/>
        <pt x="196" y="272" on="0"/>
        <pt x="196" y="221" on="1"/>
        <pt x="196" y="171" on="0"/>
        <pt x="195" y="127" on="0"/>
        <pt x="193" y="113" on="0"/>
        <pt x="192" y="109" on="1"/>
        <pt x="186" y="92" on="0"/>
        <pt x="163" y="93" on="0"/>
        <pt x="143" y="112" on="0"/>
        <pt x="141" y="123" on="1"/>
        <pt x="138" y="138" on="0"/>
        <pt x="146" y="168" on="0"/>
        <pt x="146" y="201" on="1"/>
        <pt x="146" y="222" on="0"/>
        <pt x="141" y="232" on="1"/>
        <pt x="133" y="249" on="0"/>
        <pt x="92" y="264" on="0"/>
        <pt x="48" y="241" on="0"/>
        <pt x="37" y="201" on="1"/>
        <pt x="25" y="163" on="0"/>
        <pt x="26" y="119" on="0"/>
        <pt x="50" y="85" on="0"/>
        <pt x="73" y="60" on="1"/>
        <pt x="102" y="28" on="0"/>
        <pt x="143" y="0" on="0"/>
        <pt x="173" y="-4" on="0"/>
        <pt x="187" y="-1" on="1"/>
        <pt x="198" y="1" on="0"/>
        <pt x="217" y="12" on="0"/>
        <pt x="242" y="37" on="0"/>
        <pt x="263" y="62" on="1"/>
        <pt x="288" y="92" on="0"/>
        <pt x="310" y="121" on="0"/>
        <pt x="314" y="142" on="0"/>
        <pt x="314" y="160" on="1"/>
        <pt x="314" y="181" on="0"/>
        <pt x="313" y="229" on="1"/>
        <pt x="313" y="327" on="1"/>
        <pt x="277" y="396" on="0"/>
        <pt x="252" y="418" on="1"/>
        <pt x="225" y="443" on="0"/>
        <pt x="174" y="445" on="0"/>
        <pt x="131" y="424" on="0"/>
        <pt x="100" y="402" on="0"/>
        <pt x="94" y="402" on="1"/>
        <pt x="93" y="402" on="0"/>
        <pt x="93" y="419" on="1"/>
        <pt x="93" y="459" on="1"/>
        <pt x="93" y="480" on="0"/>
        <pt x="95" y="532" on="0"/>
        <pt x="97" y="571" on="0"/>
        <pt x="97" y="572" on="1"/>
        <pt x="98" y="575" on="0"/>
        <pt x="116" y="577" on="0"/>
        <pt x="146" y="577" on="1"/>
        <pt x="173" y="577" on="0"/>
        <pt x="183" y="576" on="1"/>
        <pt x="191" y="575" on="0"/>
        <pt x="194" y="566" on="0"/>
        <pt x="197" y="540" on="1"/>
        <pt x="199" y="506" on="0"/>
        <pt x="227" y="479" on="0"/>
        <pt x="259" y="479" on="1"/>
        <pt x="283" y="479" on="0"/>
        <pt x="299" y="496" on="0"/>
        <pt x="307" y="527" on="1"/>
        <pt x="315" y="560" on="0"/>
        <pt x="326" y="580" on="0"/>
        <pt x="326" y="588" on="1"/>
        <pt x="326" y="591" on="0"/>
        <pt x="316" y="624" on="0"/>
        <pt x="301" y="665" on="0"/>
        <pt x="286" y="695" on="0"/>
        <pt x="281" y="695" on="1"/>
        <pt x="279" y="695" on="0"/>
        <pt x="258" y="678" on="0"/>
        <pt x="235" y="660" on="0"/>
        <pt x="231" y="660" on="1"/>
        <pt x="226" y="660" on="0"/>
        <pt x="207" y="676" on="0"/>
        <pt x="188" y="692" on="0"/>
        <pt x="184" y="692" on="1"/>
        <pt x="179" y="692" on="0"/>
        <pt x="157" y="669" on="0"/>
        <pt x="134" y="648" on="0"/>
        <pt x="127" y="650" on="1"/>
        <pt x="118" y="652" on="0"/>
        <pt x="98" y="678" on="0"/>
        <pt x="77" y="698" on="0"/>
        <pt x="66" y="691" on="1"/>
        <pt x="58" y="685" on="0"/>
        <pt x="49" y="662" on="0"/>
        <pt x="45" y="614" on="0"/>
        <pt x="45" y="570" on="1"/>
        <pt x="45" y="569" on="0"/>
        <pt x="44" y="522" on="0"/>
        <pt x="43" y="454" on="0"/>
        <pt x="42" y="386" on="0"/>
        <pt x="41" y="339" on="0"/>
        <pt x="41" y="339" on="1"/>
        <pt x="42" y="333" on="0"/>
        <pt x="65" y="319" on="0"/>
        <pt x="73" y="319" on="1"/>
        <pt x="81" y="319" on="0"/>
        <pt x="97" y="339" on="0"/>
        <pt x="114" y="365" on="0"/>
        <pt x="132" y="385" on="0"/>
      </contour>
    </TTGlyph>
    <TTGlyph name="uni0036" xMin="24" yMin="-7" xMax="323" yMax="690">
      <contour>
        <pt x="30" y="542" on="1"/>
        <pt x="29" y="538" on="0"/>
        <pt x="27" y="497" on="0"/>
        <pt x="26" y="407" on="0"/>
        <pt x="25" y="252" on="0"/>
        <pt x="24" y="135" on="1"/>
        <pt x="33" y="120" on="0"/>
        <pt x="64" y="80" on="0"/>
        <pt x="100" y="40" on="0"/>
        <pt x="130" y="10" on="0"/>
        <pt x="139" y="6" on="1"/>
        <pt x="160" y="-7" on="0"/>
        <pt x="198" y="2" on="0"/>
        <pt x="223" y="22" on="0"/>
        <pt x="226" y="25" on="1"/>
        <pt x="233" y="33" on="0"/>
        <pt x="260" y="63" on="0"/>
        <pt x="289" y="96" on="0"/>
        <pt x="310" y="122" on="0"/>
        <pt x="312" y="127" on="1"/>
        <pt x="314" y="130" on="0"/>
        <pt x="316" y="147" on="0"/>
        <pt x="317" y="192" on="0"/>
        <pt x="317" y="237" on="1"/>
        <pt x="317" y="275" on="0"/>
        <pt x="316" y="330" on="0"/>
        <pt x="315" y="339" on="1"/>
        <pt x="311" y="355" on="0"/>
        <pt x="283" y="399" on="0"/>
        <pt x="247" y="435" on="0"/>
        <pt x="232" y="442" on="1"/>
        <pt x="211" y="452" on="0"/>
        <pt x="179" y="445" on="0"/>
        <pt x="155" y="427" on="0"/>
        <pt x="139" y="411" on="0"/>
        <pt x="135" y="411" on="1"/>
        <pt x="133" y="411" on="0"/>
        <pt x="132" y="446" on="0"/>
        <pt x="134" y="498" on="0"/>
        <pt x="139" y="547" on="0"/>
        <pt x="143" y="562" on="1"/>
        <pt x="151" y="589" on="0"/>
        <pt x="186" y="601" on="0"/>
        <pt x="213" y="578" on="0"/>
        <pt x="210" y="553" on="1"/>
        <pt x="207" y="528" on="0"/>
        <pt x="224" y="502" on="0"/>
        <pt x="249" y="491" on="0"/>
        <pt x="270" y="490" on="0"/>
        <pt x="270" y="490" on="1"/>
        <pt x="281" y="493" on="0"/>
        <pt x="306" y="531" on="0"/>
        <pt x="323" y="575" on="0"/>
        <pt x="320" y="587" on="1"/>
        <pt x="318" y="596" on="0"/>
        <pt x="289" y="628" on="0"/>
        <pt x="247" y="663" on="0"/>
        <pt x="202" y="688" on="0"/>
        <pt x="185" y="689" on="1"/>
        <pt x="168" y="690" on="0"/>
        <pt x="126" y="662" on="0"/>
        <pt x="85" y="618" on="0"/>
        <pt x="51" y="573" on="0"/>
        <pt x="30" y="543" on="0"/>
      </contour>
      <contour>
        <pt x="199" y="237" on="1"/>
        <pt x="199" y="126" on="1"/>
        <pt x="192" y="115" on="1"/>
        <pt x="183" y="101" on="0"/>
        <pt x="164" y="101" on="0"/>
        <pt x="148" y="114" on="0"/>
        <pt x="145" y="120" on="1"/>
        <pt x="143" y="124" on="0"/>
        <pt x="140" y="136" on="0"/>
        <pt x="139" y="183" on="0"/>
        <pt x="138" y="238" on="1"/>
        <pt x="138" y="295" on="0"/>
        <pt x="139" y="320" on="1"/>
        <pt x="139" y="338" on="0"/>
        <pt x="148" y="374" on="0"/>
        <pt x="173" y="372" on="1"/>
        <pt x="186" y="372" on="0"/>
        <pt x="197" y="355" on="0"/>
        <pt x="199" y="298" on="0"/>
      </contour>
    </TTGlyph>
    <TTGlyph name="uni0037" xMin="24" yMin="-3" xMax="354" yMax="696">
      <contour>
        <pt x="249" y="647" on="1"/>
        <pt x="240" y="647" on="0"/>
        <pt x="215" y="667" on="0"/>
        <pt x="194" y="686" on="0"/>
        <pt x="191" y="686" on="1"/>
        <pt x="188" y="686" on="0"/>
        <pt x="169" y="678" on="0"/>
        <pt x="149" y="670" on="0"/>
        <pt x="145" y="671" on="1"/>
        <pt x="136" y="672" on="0"/>
        <pt x="113" y="691" on="0"/>
        <pt x="103" y="694" on="1"/>
        <pt x="92" y="696" on="0"/>
        <pt x="65" y="672" on="0"/>
        <pt x="40" y="635" on="0"/>
        <pt x="24" y="600" on="0"/>
        <pt x="24" y="591" on="1"/>
        <pt x="24" y="583" on="0"/>
        <pt x="40" y="539" on="0"/>
        <pt x="62" y="495" on="0"/>
        <pt x="70" y="487" on="1"/>
        <pt x="87" y="471" on="0"/>
        <pt x="122" y="485" on="0"/>
        <pt x="126" y="495" on="1"/>
        <pt x="131" y="505" on="0"/>
        <pt x="133" y="543" on="0"/>
        <pt x="139" y="574" on="0"/>
        <pt x="148" y="574" on="1"/>
        <pt x="164" y="574" on="0"/>
        <pt x="207" y="567" on="0"/>
        <pt x="240" y="559" on="0"/>
        <pt x="240" y="559" on="1"/>
        <pt x="238" y="546" on="1"/>
        <pt x="237" y="540" on="0"/>
        <pt x="224" y="497" on="0"/>
        <pt x="205" y="437" on="0"/>
        <pt x="186" y="375" on="0"/>
        <pt x="179" y="351" on="1"/>
        <pt x="159" y="280" on="0"/>
        <pt x="136" y="200" on="0"/>
        <pt x="121" y="156" on="0"/>
        <pt x="109" y="125" on="0"/>
        <pt x="99" y="103" on="1"/>
        <pt x="119" y="62" on="0"/>
        <pt x="138" y="23" on="0"/>
        <pt x="150" y="8" on="0"/>
        <pt x="157" y="5" on="1"/>
        <pt x="174" y="-3" on="0"/>
        <pt x="186" y="5" on="1"/>
        <pt x="192" y="9" on="0"/>
        <pt x="215" y="41" on="0"/>
        <pt x="238" y="78" on="0"/>
        <pt x="254" y="107" on="0"/>
        <pt x="254" y="107" on="1"/>
        <pt x="254" y="110" on="0"/>
        <pt x="243" y="137" on="0"/>
        <pt x="232" y="168" on="0"/>
        <pt x="230" y="180" on="1"/>
        <pt x="225" y="213" on="0"/>
        <pt x="237" y="311" on="0"/>
        <pt x="261" y="416" on="0"/>
        <pt x="288" y="503" on="0"/>
        <pt x="299" y="526" on="1"/>
        <pt x="317" y="566" on="0"/>
        <pt x="354" y="603" on="0"/>
        <pt x="354" y="611" on="1"/>
        <pt x="354" y="616" on="0"/>
        <pt x="337" y="641" on="0"/>
        <pt x="325" y="665" on="1"/>
        <pt x="309" y="695" on="0"/>
        <pt x="296" y="695" on="1"/>
        <pt x="287" y="695" on="0"/>
        <pt x="271" y="671" on="0"/>
        <pt x="257" y="647" on="0"/>
      </contour>
    </TTGlyph>
    <TTGlyph name="uni0038" xMin="26" yMin="-9" xMax="311" yMax="693">
      <contour>
        <pt x="59" y="611" on="1"/>
        <pt x="50" y="601" on="0"/>
        <pt x="38" y="581" on="0"/>
        <pt x="31" y="541" on="0"/>
        <pt x="31" y="501" on="1"/>
        <pt x="31" y="479" on="0"/>
        <pt x="32" y="470" on="1"/>
        <pt x="34" y="446" on="0"/>
        <pt x="66" y="400" on="0"/>
        <pt x="96" y="366" on="0"/>
        <pt x="96" y="363" on="1"/>
        <pt x="96" y="360" on="0"/>
        <pt x="75" y="338" on="0"/>
        <pt x="72" y="335" on="1"/>
        <pt x="49" y="314" on="0"/>
        <pt x="33" y="286" on="0"/>
        <pt x="32" y="279" on="1"/>
        <pt x="31" y="276" on="0"/>
        <pt x="28" y="238" on="0"/>
        <pt x="26" y="185" on="0"/>
        <pt x="29" y="135" on="0"/>
        <pt x="35" y="121" on="1"/>
        <pt x="41" y="107" on="0"/>
        <pt x="72" y="69" on="0"/>
        <pt x="84" y="56" on="1"/>
        <pt x="119" y="18" on="0"/>
        <pt x="166" y="-9" on="0"/>
        <pt x="212" y="11" on="0"/>
        <pt x="244" y="45" on="1"/>
        <pt x="268" y="71" on="0"/>
        <pt x="295" y="104" on="0"/>
        <pt x="308" y="132" on="0"/>
        <pt x="311" y="171" on="0"/>
        <pt x="311" y="203" on="1"/>
        <pt x="310" y="244" on="0"/>
        <pt x="309" y="257" on="1"/>
        <pt x="308" y="275" on="0"/>
        <pt x="294" y="304" on="0"/>
        <pt x="263" y="340" on="0"/>
        <pt x="236" y="369" on="1"/>
        <pt x="261" y="395" on="0"/>
        <pt x="289" y="426" on="0"/>
        <pt x="302" y="447" on="0"/>
        <pt x="305" y="470" on="0"/>
        <pt x="306" y="488" on="1"/>
        <pt x="306" y="531" on="0"/>
        <pt x="299" y="583" on="0"/>
        <pt x="275" y="622" on="0"/>
        <pt x="250" y="645" on="1"/>
        <pt x="223" y="669" on="0"/>
        <pt x="184" y="693" on="0"/>
        <pt x="146" y="690" on="0"/>
        <pt x="96" y="651" on="0"/>
      </contour>
      <contour>
        <pt x="194" y="488" on="1"/>
        <pt x="193" y="445" on="0"/>
        <pt x="192" y="434" on="1"/>
        <pt x="189" y="418" on="0"/>
        <pt x="175" y="409" on="0"/>
        <pt x="163" y="409" on="0"/>
        <pt x="162" y="410" on="1"/>
        <pt x="154" y="418" on="0"/>
        <pt x="147" y="452" on="0"/>
        <pt x="145" y="485" on="0"/>
        <pt x="145" y="490" on="1"/>
        <pt x="143" y="553" on="0"/>
        <pt x="157" y="594" on="0"/>
        <pt x="182" y="581" on="1"/>
        <pt x="188" y="578" on="0"/>
        <pt x="193" y="565" on="0"/>
        <pt x="194" y="528" on="0"/>
      </contour>
      <contour>
        <pt x="197" y="203" on="1"/>
        <pt x="197" y="154" on="0"/>
        <pt x="195" y="138" on="1"/>
        <pt x="192" y="118" on="0"/>
        <pt x="171" y="104" on="0"/>
        <pt x="169" y="104" on="1"/>
        <pt x="163" y="104" on="0"/>
        <pt x="156" y="112" on="1"/>
        <pt x="146" y="124" on="0"/>
        <pt x="139" y="163" on="0"/>
        <pt x="140" y="206" on="1"/>
        <pt x="140" y="283" on="0"/>
        <pt x="160" y="326" on="0"/>
        <pt x="179" y="305" on="1"/>
        <pt x="187" y="297" on="0"/>
        <pt x="195" y="277" on="0"/>
        <pt x="197" y="239" on="0"/>
      </contour>
    </TTGlyph>
    <TTGlyph name="uni0039" xMin="24" yMin="-5" xMax="322" yMax="695">
      <contour>
        <pt x="206" y="278" on="1"/>
        <pt x="207" y="278" on="0"/>
        <pt x="207" y="265" on="1"/>
        <pt x="207" y="252" on="0"/>
        <pt x="206" y="234" on="1"/>
        <pt x="203" y="173" on="0"/>
        <pt x="189" y="109" on="0"/>
        <pt x="170" y="87" on="0"/>
        <pt x="153" y="90" on="0"/>
        <pt x="142" y="101" on="0"/>
        <pt x="142" y="102" on="1"/>
        <pt x="138" y="110" on="0"/>
        <pt x="136" y="143" on="0"/>
        <pt x="134" y="175" on="0"/>
        <pt x="131" y="184" on="1"/>
        <pt x="126" y="195" on="0"/>
        <pt x="104" y="201" on="0"/>
        <pt x="84" y="200" on="0"/>
        <pt x="84" y="200" on="1"/>
        <pt x="57" y="195" on="0"/>
        <pt x="35" y="155" on="0"/>
        <pt x="24" y="114" on="1"/>
        <pt x="31" y="99" on="1"/>
        <pt x="35" y="90" on="0"/>
        <pt x="69" y="52" on="0"/>
        <pt x="109" y="14" on="0"/>
        <pt x="120" y="7" on="1"/>
        <pt x="133" y="0" on="0"/>
        <pt x="173" y="-5" on="0"/>
        <pt x="188" y="3" on="1"/>
        <pt x="200" y="9" on="0"/>
        <pt x="238" y="47" on="0"/>
        <pt x="276" y="99" on="0"/>
        <pt x="307" y="151" on="0"/>
        <pt x="312" y="170" on="1"/>
        <pt x="314" y="178" on="0"/>
        <pt x="317" y="210" on="0"/>
        <pt x="319" y="285" on="0"/>
        <pt x="321" y="427" on="0"/>
        <pt x="322" y="546" on="1"/>
        <pt x="315" y="561" on="1"/>
        <pt x="311" y="571" on="0"/>
        <pt x="282" y="608" on="0"/>
        <pt x="244" y="648" on="0"/>
        <pt x="208" y="680" on="0"/>
        <pt x="195" y="686" on="1"/>
        <pt x="174" y="695" on="0"/>
        <pt x="129" y="676" on="0"/>
        <pt x="86" y="636" on="0"/>
        <pt x="52" y="593" on="0"/>
        <pt x="31" y="562" on="0"/>
        <pt x="31" y="561" on="1"/>
        <pt x="31" y="338" on="1"/>
        <pt x="41" y="324" on="0"/>
        <pt x="76" y="280" on="0"/>
        <pt x="118" y="246" on="0"/>
        <pt x="141" y="246" on="1"/>
        <pt x="156" y="246" on="0"/>
        <pt x="184" y="262" on="0"/>
        <pt x="204" y="278" on="0"/>
      </contour>
      <contour>
        <pt x="206" y="474" on="1"/>
        <pt x="208" y="416" on="0"/>
        <pt x="205" y="350" on="0"/>
        <pt x="196" y="317" on="0"/>
        <pt x="185" y="305" on="0"/>
        <pt x="178" y="301" on="1"/>
        <pt x="165" y="292" on="0"/>
        <pt x="150" y="323" on="0"/>
        <pt x="143" y="380" on="0"/>
        <pt x="142" y="444" on="0"/>
        <pt x="142" y="469" on="1"/>
        <pt x="142" y="503" on="0"/>
        <pt x="146" y="564" on="0"/>
        <pt x="166" y="593" on="0"/>
        <pt x="189" y="578" on="1"/>
        <pt x="196" y="573" on="0"/>
        <pt x="203" y="557" on="0"/>
        <pt x="206" y="516" on="0"/>
      </contour>
    </TTGlyph>
    <TTGlyph name="uni003A" xMin="24" yMin="0" xMax="133" yMax="440">
      <contour>
        <pt x="25" y="370" on="1"/>
        <pt x="24" y="360" on="0"/>
        <pt x="43" y="317" on="0"/>
        <pt x="69" y="282" on="0"/>
        <pt x="77" y="282" on="1"/>
        <pt x="86" y="282" on="0"/>
        <pt x="115" y="316" on="0"/>
        <pt x="125" y="341" on="1"/>
        <pt x="133" y="360" on="0"/>
        <pt x="121" y="394" on="0"/>
        <pt x="99" y="423" on="0"/>
        <pt x="78" y="440" on="0"/>
        <pt x="77" y="440" on="1"/>
        <pt x="71" y="440" on="0"/>
        <pt x="49" y="416" on="0"/>
        <pt x="28" y="383" on="0"/>
      </contour>
      <contour>
        <pt x="81" y="0" on="1"/>
        <pt x="89" y="0" on="0"/>
        <pt x="111" y="29" on="0"/>
        <pt x="128" y="66" on="0"/>
        <pt x="129" y="80" on="1"/>
        <pt x="130" y="94" on="0"/>
        <pt x="112" y="131" on="0"/>
        <pt x="91" y="159" on="0"/>
        <pt x="86" y="162" on="1"/>
        <pt x="78" y="166" on="0"/>
        <pt x="50" y="147" on="0"/>
        <pt x="28" y="107" on="0"/>
        <pt x="28" y="81" on="1"/>
        <pt x="28" y="55" on="0"/>
        <pt x="49" y="18" on="0"/>
        <pt x="73" y="0" on="0"/>
      </contour>
    </TTGlyph>
    <TTGlyph name="uni003B" xMin="24" yMin="-105" xMax="135" yMax="410">
      <contour>
        <pt x="28" y="325" on="1"/>
        <pt x="30" y="321" on="0"/>
        <pt x="42" y="297" on="0"/>
        <pt x="60" y="268" on="0"/>
        <pt x="78" y="250" on="0"/>
        <pt x="84" y="253" on="1"/>
        <pt x="91" y="256" on="0"/>
        <pt x="116" y="290" on="0"/>
        <pt x="135" y="329" on="0"/>
        <pt x="134" y="339" on="1"/>
        <pt x="132" y="349" on="0"/>
        <pt x="110" y="382" on="0"/>
        <pt x="86" y="410" on="0"/>
        <pt x="80" y="410" on="1"/>
        <pt x="74" y="410" on="0"/>
        <pt x="46" y="380" on="0"/>
        <pt x="24" y="341" on="0"/>
      </contour>
      <contour>
        <pt x="32" y="40" on="1"/>
        <pt x="37" y="24" on="0"/>
        <pt x="61" y="-11" on="0"/>
        <pt x="64" y="-20" on="1"/>
        <pt x="69" y="-31" on="0"/>
        <pt x="58" y="-64" on="0"/>
        <pt x="43" y="-92" on="0"/>
        <pt x="43" y="-99" on="1"/>
        <pt x="43" y="-105" on="0"/>
        <pt x="53" y="-105" on="1"/>
        <pt x="67" y="-105" on="0"/>
        <pt x="96" y="-58" on="0"/>
        <pt x="118" y="4" on="0"/>
        <pt x="133" y="56" on="0"/>
        <pt x="132" y="61" on="1"/>
        <pt x="130" y="74" on="0"/>
        <pt x="109" y="109" on="0"/>
        <pt x="84" y="135" on="0"/>
        <pt x="78" y="132" on="1"/>
        <pt x="77" y="132" on="0"/>
        <pt x="59" y="116" on="0"/>
        <pt x="37" y="89" on="0"/>
        <pt x="26" y="56" on="0"/>
      </contour>
    </TTGlyph>
    <TTGlyph name="uni003C" xMin="24" yMin="13" xMax="274" yMax="417">
      <contour>
        <pt x="274" y="365" on="1"/>
        <pt x="261" y="394" on="0"/>
        <pt x="257" y="404" on="0"/>
        <pt x="257" y="405" on="1"/>
        <pt x="257" y="409" on="0"/>
        <pt x="254" y="414" on="1"/>
        <pt x="252" y="417" on="0"/>
        <pt x="247" y="416" on="0"/>
        <pt x="240" y="410" on="1"/>
        <pt x="230" y="402" on="0"/>
        <pt x="198" y="377" on="0"/>
        <pt x="167" y="351" on="0"/>
        <pt x="145" y="333" on="0"/>
        <pt x="145" y="333" on="1"/>
        <pt x="105" y="301" on="0"/>
        <pt x="59" y="263" on="0"/>
        <pt x="33" y="237" on="0"/>
        <pt x="24" y="224" on="1"/>
        <pt x="31" y="209" on="1"/>
        <pt x="38" y="195" on="0"/>
        <pt x="84" y="149" on="0"/>
        <pt x="145" y="97" on="0"/>
        <pt x="202" y="50" on="0"/>
        <pt x="240" y="19" on="0"/>
        <pt x="240" y="18" on="1"/>
        <pt x="243" y="13" on="0"/>
        <pt x="247" y="17" on="1"/>
        <pt x="249" y="19" on="0"/>
        <pt x="261" y="38" on="0"/>
        <pt x="271" y="60" on="0"/>
        <pt x="268" y="64" on="1"/>
        <pt x="266" y="68" on="0"/>
        <pt x="229" y="101" on="0"/>
        <pt x="175" y="144" on="0"/>
        <pt x="123" y="186" on="0"/>
        <pt x="87" y="216" on="0"/>
        <pt x="87" y="218" on="1"/>
        <pt x="87" y="220" on="0"/>
        <pt x="120" y="246" on="0"/>
        <pt x="170" y="285" on="0"/>
        <pt x="223" y="326" on="0"/>
        <pt x="266" y="358" on="0"/>
      </contour>
    </TTGlyph>
    <TTGlyph name="uni003D" xMin="24" yMin="15" xMax="435" yMax="417">
      <contour>
        <pt x="27" y="302" on="1"/>
        <pt x="125" y="302" on="0"/>
        <pt x="321" y="300" on="0"/>
        <pt x="419" y="299" on="1"/>
        <pt x="428" y="347" on="0"/>
        <pt x="434" y="394" on="0"/>
        <pt x="434" y="409" on="0"/>
        <pt x="433" y="410" on="1"/>
        <pt x="432" y="411" on="0"/>
        <pt x="391" y="413" on="0"/>
        <pt x="331" y="414" on="0"/>
        <pt x="271" y="415" on="0"/>
        <pt x="231" y="415" on="0"/>
        <pt x="230" y="415" on="1"/>
        <pt x="31" y="417" on="1"/>
        <pt x="27" y="387" on="0"/>
        <pt x="24" y="355" on="0"/>
        <pt x="25" y="327" on="0"/>
      </contour>
      <contour>
        <pt x="27" y="18" on="1"/>
        <pt x="125" y="18" on="0"/>
        <pt x="321" y="16" on="0"/>
        <pt x="419" y="15" on="1"/>
        <pt x="420" y="21" on="0"/>
        <pt x="426" y="55" on="0"/>
        <pt x="432" y="95" on="0"/>
        <pt x="435" y="125" on="0"/>
        <pt x="433" y="126" on="1"/>
        <pt x="432" y="127" on="0"/>
        <pt x="391" y="129" on="0"/>
        <pt x="331" y="130" on="0"/>
        <pt x="271" y="131" on="0"/>
        <pt x="231" y="131" on="0"/>
        <pt x="230" y="131" on="1"/>
        <pt x="31" y="133" on="1"/>
        <pt x="27" y="103" on="0"/>
        <pt x="24" y="71" on="0"/>
        <pt x="25" y="43" on="0"/>
      </contour>
    </TTGlyph>
    <TTGlyph name="uni003E" xMin="24" yMin="12" xMax="274" yMax="420">
      <contour>
        <pt x="211" y="217" on="1"/>
        <pt x="211" y="216" on="0"/>
        <pt x="175" y="187" on="0"/>
        <pt x="123" y="144" on="0"/>
        <pt x="69" y="100" on="0"/>
        <pt x="32" y="68" on="0"/>
        <pt x="30" y="64" on="1"/>
        <pt x="28" y="60" on="0"/>
        <pt x="39" y="33" on="0"/>
        <pt x="54" y="12" on="0"/>
        <pt x="58" y="18" on="1"/>
        <pt x="58" y="18" on="0"/>
        <pt x="85" y="40" on="0"/>
        <pt x="119" y="69" on="0"/>
        <pt x="146" y="92" on="0"/>
        <pt x="147" y="92" on="1"/>
        <pt x="187" y="127" on="0"/>
        <pt x="234" y="169" on="0"/>
        <pt x="258" y="195" on="0"/>
        <pt x="269" y="213" on="0"/>
        <pt x="274" y="224" on="1"/>
        <pt x="268" y="233" on="1"/>
        <pt x="265" y="238" on="0"/>
        <pt x="229" y="270" on="0"/>
        <pt x="175" y="315" on="0"/>
        <pt x="113" y="366" on="0"/>
        <pt x="85" y="390" on="1"/>
        <pt x="62" y="408" on="0"/>
        <pt x="41" y="420" on="0"/>
        <pt x="41" y="405" on="1"/>
        <pt x="41" y="404" on="0"/>
        <pt x="37" y="394" on="0"/>
        <pt x="24" y="365" on="1"/>
        <pt x="48" y="345" on="0"/>
        <pt x="112" y="297" on="0"/>
        <pt x="172" y="252" on="0"/>
        <pt x="211" y="220" on="0"/>
      </contour>
    </TTGlyph>
    <TTGlyph name="uni003F" xMin="24" yMin="0" xMax="292" yMax="690">
      <contour>
        <pt x="154" y="648" on="1"/>
        <pt x="151" y="648" on="0"/>
        <pt x="132" y="664" on="0"/>
        <pt x="131" y="666" on="1"/>
        <pt x="116" y="682" on="0"/>
        <pt x="101" y="686" on="0"/>
        <pt x="90" y="677" on="1"/>
        <pt x="90" y="677" on="0"/>
        <pt x="70" y="653" on="0"/>
        <pt x="44" y="615" on="0"/>
        <pt x="24" y="570" on="0"/>
        <pt x="24" y="548" on="1"/>
        <pt x="24" y="524" on="0"/>
        <pt x="47" y="508" on="1"/>
        <pt x="57" y="503" on="0"/>
        <pt x="83" y="481" on="0"/>
        <pt x="83" y="481" on="1"/>
        <pt x="105" y="465" on="0"/>
        <pt x="123" y="461" on="0"/>
        <pt x="131" y="467" on="1"/>
        <pt x="147" y="480" on="0"/>
        <pt x="144" y="528" on="0"/>
        <pt x="140" y="552" on="1"/>
        <pt x="160" y="578" on="0"/>
        <pt x="192" y="560" on="0"/>
        <pt x="192" y="518" on="1"/>
        <pt x="191" y="501" on="0"/>
        <pt x="189" y="476" on="0"/>
        <pt x="179" y="444" on="0"/>
        <pt x="158" y="389" on="0"/>
        <pt x="138" y="339" on="1"/>
        <pt x="139" y="301" on="1"/>
        <pt x="139" y="288" on="0"/>
        <pt x="141" y="252" on="0"/>
        <pt x="152" y="223" on="0"/>
        <pt x="165" y="223" on="1"/>
        <pt x="172" y="225" on="0"/>
        <pt x="170" y="279" on="0"/>
        <pt x="176" y="306" on="1"/>
        <pt x="182" y="335" on="0"/>
        <pt x="230" y="380" on="0"/>
        <pt x="254" y="413" on="1"/>
        <pt x="271" y="438" on="0"/>
        <pt x="288" y="507" on="0"/>
        <pt x="292" y="569" on="0"/>
        <pt x="288" y="582" on="1"/>
        <pt x="283" y="601" on="0"/>
        <pt x="253" y="644" on="0"/>
        <pt x="218" y="678" on="0"/>
        <pt x="207" y="684" on="1"/>
        <pt x="193" y="690" on="0"/>
        <pt x="174" y="671" on="0"/>
        <pt x="161" y="648" on="0"/>
      </contour>
      <contour>
        <pt x="115" y="118" on="1"/>
        <pt x="111" y="103" on="0"/>
        <pt x="113" y="81" on="1"/>
        <pt x="115" y="44" on="0"/>
        <pt x="149" y="0" on="0"/>
        <pt x="191" y="13" on="0"/>
        <pt x="203" y="59" on="1"/>
        <pt x="212" y="94" on="0"/>
        <pt x="193" y="151" on="0"/>
        <pt x="168" y="185" on="0"/>
        <pt x="168" y="185" on="1"/>
        <pt x="160" y="193" on="0"/>
        <pt x="138" y="169" on="0"/>
        <pt x="118" y="130" on="0"/>
      </contour>
    </TTGlyph>
    <TTGlyph name="uni0040" xMin="24" yMin="-34" xMax="400" yMax="597">
      <contour>
        <pt x="24" y="468" on="1"/>
        <pt x="24" y="283" on="1"/>
        <pt x="24" y="221" on="0"/>
        <pt x="25" y="134" on="0"/>
        <pt x="26" y="111" on="1"/>
        <pt x="26" y="96" on="0"/>
        <pt x="31" y="82" on="0"/>
        <pt x="47" y="70" on="1"/>
        <pt x="51" y="67" on="0"/>
        <pt x="86" y="44" on="0"/>
        <pt x="133" y="14" on="0"/>
        <pt x="178" y="-15" on="0"/>
        <pt x="209" y="-34" on="0"/>
        <pt x="209" y="-34" on="1"/>
        <pt x="214" y="-34" on="0"/>
        <pt x="254" y="-10" on="0"/>
        <pt x="287" y="11" on="1"/>
        <pt x="331" y="38" on="0"/>
        <pt x="376" y="68" on="0"/>
        <pt x="395" y="85" on="0"/>
        <pt x="397" y="93" on="1"/>
        <pt x="398" y="97" on="0"/>
        <pt x="399" y="138" on="0"/>
        <pt x="400" y="194" on="0"/>
        <pt x="400" y="248" on="0"/>
        <pt x="400" y="284" on="0"/>
        <pt x="400" y="285" on="1"/>
        <pt x="400" y="467" on="1"/>
        <pt x="391" y="477" on="0"/>
        <pt x="347" y="509" on="0"/>
        <pt x="293" y="545" on="0"/>
        <pt x="242" y="577" on="0"/>
        <pt x="209" y="597" on="0"/>
        <pt x="208" y="597" on="1"/>
        <pt x="207" y="597" on="0"/>
        <pt x="164" y="569" on="0"/>
        <pt x="101" y="527" on="0"/>
        <pt x="41" y="484" on="0"/>
      </contour>
      <contour>
        <pt x="69" y="446" on="1"/>
        <pt x="70" y="450" on="0"/>
        <pt x="98" y="471" on="0"/>
        <pt x="138" y="498" on="0"/>
        <pt x="178" y="523" on="0"/>
        <pt x="206" y="540" on="0"/>
        <pt x="206" y="540" on="1"/>
        <pt x="208" y="540" on="0"/>
        <pt x="257" y="513" on="0"/>
        <pt x="325" y="468" on="0"/>
        <pt x="355" y="440" on="1"/>
        <pt x="356" y="356" on="0"/>
        <pt x="357" y="264" on="0"/>
        <pt x="358" y="224" on="0"/>
        <pt x="358" y="215" on="0"/>
        <pt x="358" y="214" on="1"/>
        <pt x="358" y="127" on="1"/>
        <pt x="356" y="112" on="0"/>
        <pt x="348" y="104" on="1"/>
        <pt x="345" y="101" on="0"/>
        <pt x="305" y="75" on="0"/>
        <pt x="254" y="43" on="0"/>
        <pt x="215" y="20" on="0"/>
        <pt x="212" y="20" on="1"/>
        <pt x="207" y="20" on="0"/>
        <pt x="170" y="42" on="0"/>
        <pt x="127" y="71" on="0"/>
        <pt x="94" y="94" on="0"/>
        <pt x="94" y="94" on="1"/>
        <pt x="81" y="105" on="0"/>
        <pt x="70" y="119" on="0"/>
        <pt x="67" y="148" on="0"/>
        <pt x="67" y="180" on="1"/>
        <pt x="67" y="283" on="1"/>
        <pt x="67" y="326" on="0"/>
        <pt x="68" y="400" on="0"/>
        <pt x="69" y="445" on="0"/>
      </contour>
      <contour>
        <pt x="188" y="356" on="1"/>
        <pt x="188" y="393" on="0"/>
        <pt x="197" y="401" on="0"/>
        <pt x="223" y="391" on="1"/>
        <pt x="222" y="353" on="0"/>
        <pt x="221" y="316" on="1"/>
        <pt x="221" y="316" on="0"/>
        <pt x="201" y="309" on="0"/>
        <pt x="198" y="308" on="1"/>
        <pt x="175" y="301" on="0"/>
        <pt x="136" y="285" on="0"/>
        <pt x="127" y="269" on="1"/>
        <pt x="124" y="265" on="0"/>
        <pt x="118" y="236" on="0"/>
        <pt x="114" y="202" on="0"/>
        <pt x="114" y="190" on="1"/>
        <pt x="114" y="177" on="0"/>
        <pt x="119" y="169" on="1"/>
        <pt x="120" y="166" on="0"/>
        <pt x="141" y="140" on="0"/>
        <pt x="170" y="115" on="0"/>
        <pt x="182" y="115" on="1"/>
        <pt x="191" y="115" on="0"/>
        <pt x="211" y="136" on="0"/>
        <pt x="215" y="149" on="1"/>
        <pt x="223" y="171" on="0"/>
        <pt x="235" y="150" on="1"/>
        <pt x="242" y="139" on="0"/>
        <pt x="252" y="128" on="1"/>
        <pt x="267" y="113" on="0"/>
        <pt x="307" y="119" on="0"/>
        <pt x="337" y="143" on="0"/>
        <pt x="337" y="153" on="1"/>
        <pt x="337" y="161" on="0"/>
        <pt x="323" y="173" on="1"/>
        <pt x="306" y="187" on="0"/>
        <pt x="298" y="230" on="0"/>
        <pt x="298" y="276" on="1"/>
        <pt x="298" y="323" on="0"/>
        <pt x="302" y="363" on="0"/>
        <pt x="307" y="379" on="0"/>
        <pt x="307" y="390" on="1"/>
        <pt x="307" y="395" on="0"/>
        <pt x="303" y="401" on="1"/>
        <pt x="303" y="401" on="0"/>
        <pt x="277" y="425" on="0"/>
        <pt x="242" y="455" on="0"/>
        <pt x="209" y="478" on="0"/>
        <pt x="203" y="478" on="1"/>
        <pt x="195" y="477" on="0"/>
        <pt x="165" y="457" on="0"/>
        <pt x="132" y="428" on="0"/>
        <pt x="108" y="402" on="0"/>
        <pt x="108" y="396" on="1"/>
        <pt x="108" y="393" on="0"/>
        <pt x="112" y="384" on="1"/>
        <pt x="124" y="356" on="0"/>
        <pt x="141" y="333" on="0"/>
        <pt x="156" y="328" on="0"/>
        <pt x="164" y="328" on="1"/>
        <pt x="177" y="328" on="0"/>
        <pt x="187" y="339" on="0"/>
      </contour>
      <contour>
        <pt x="226" y="274" on="1"/>
        <pt x="226" y="264" on="0"/>
        <pt x="227" y="250" on="1"/>
        <pt x="227" y="245" on="0"/>
        <pt x="227" y="219" on="0"/>
        <pt x="222" y="193" on="0"/>
        <pt x="215" y="186" on="1"/>
        <pt x="202" y="175" on="0"/>
        <pt x="190" y="193" on="0"/>
        <pt x="188" y="230" on="0"/>
        <pt x="193" y="265" on="0"/>
        <pt x="196" y="271" on="1"/>
        <pt x="200" y="279" on="0"/>
        <pt x="225" y="289" on="0"/>
      </contour>
    </TTGlyph>
    <TTGlyph name="uni0041" xMin="24" yMin="-5" xMax="419" yMax="689">
      <contour>
        <pt x="119" y="609" on="1"/>
        <pt x="89" y="588" on="0"/>
        <pt x="73" y="569" on="0"/>
        <pt x="75" y="558" on="1"/>
        <pt x="76" y="540" on="0"/>
        <pt x="88" y="514" on="0"/>
        <pt x="100" y="478" on="0"/>
        <pt x="104" y="417" on="0"/>
        <pt x="98" y="364" on="1"/>
        <pt x="90" y="293" on="0"/>
        <pt x="67" y="209" on="0"/>
        <pt x="43" y="163" on="0"/>
        <pt x="26" y="137" on="0"/>
        <pt x="25" y="126" on="1"/>
        <pt x="24" y="120" on="0"/>
        <pt x="36" y="81" on="0"/>
        <pt x="59" y="36" on="0"/>
        <pt x="90" y="3" on="0"/>
        <pt x="130" y="2" on="0"/>
        <pt x="152" y="27" on="1"/>
        <pt x="159" y="35" on="0"/>
        <pt x="180" y="67" on="0"/>
        <pt x="199" y="97" on="0"/>
        <pt x="202" y="105" on="1"/>
        <pt x="205" y="112" on="0"/>
        <pt x="206" y="125" on="0"/>
        <pt x="199" y="158" on="0"/>
        <pt x="190" y="197" on="1"/>
        <pt x="186" y="215" on="0"/>
        <pt x="179" y="266" on="0"/>
        <pt x="176" y="306" on="0"/>
        <pt x="178" y="308" on="1"/>
        <pt x="182" y="310" on="0"/>
        <pt x="215" y="312" on="0"/>
        <pt x="247" y="311" on="0"/>
        <pt x="247" y="311" on="1"/>
        <pt x="265" y="311" on="1"/>
        <pt x="265" y="290" on="1"/>
        <pt x="265" y="265" on="0"/>
        <pt x="258" y="208" on="0"/>
        <pt x="248" y="155" on="0"/>
        <pt x="242" y="118" on="0"/>
        <pt x="244" y="113" on="1"/>
        <pt x="245" y="106" on="0"/>
        <pt x="265" y="66" on="0"/>
        <pt x="295" y="21" on="0"/>
        <pt x="331" y="-5" on="0"/>
        <pt x="349" y="3" on="1"/>
        <pt x="359" y="6" on="0"/>
        <pt x="383" y="35" on="0"/>
        <pt x="405" y="74" on="0"/>
        <pt x="419" y="109" on="0"/>
        <pt x="418" y="119" on="1"/>
        <pt x="418" y="122" on="0"/>
        <pt x="415" y="129" on="0"/>
        <pt x="404" y="151" on="0"/>
        <pt x="391" y="177" on="1"/>
        <pt x="369" y="219" on="0"/>
        <pt x="348" y="318" on="0"/>
        <pt x="341" y="407" on="0"/>
        <pt x="342" y="464" on="0"/>
        <pt x="342" y="466" on="1"/>
        <pt x="346" y="499" on="0"/>
        <pt x="369" y="553" on="0"/>
        <pt x="369" y="561" on="1"/>
        <pt x="369" y="568" on="0"/>
        <pt x="363" y="576" on="1"/>
        <pt x="362" y="576" on="0"/>
        <pt x="333" y="602" on="0"/>
        <pt x="295" y="636" on="0"/>
        <pt x="283" y="648" on="1"/>
        <pt x="268" y="664" on="0"/>
        <pt x="239" y="689" on="0"/>
        <pt x="223" y="689" on="1"/>
        <pt x="212" y="689" on="0"/>
        <pt x="186" y="664" on="0"/>
        <pt x="148" y="627" on="0"/>
      </contour>
      <contour>
        <pt x="219" y="370" on="1"/>
        <pt x="198" y="370" on="0"/>
        <pt x="192" y="371" on="1"/>
        <pt x="185" y="371" on="0"/>
        <pt x="183" y="378" on="0"/>
        <pt x="185" y="394" on="1"/>
        <pt x="192" y="460" on="0"/>
        <pt x="202" y="533" on="0"/>
        <pt x="208" y="565" on="0"/>
        <pt x="214" y="571" on="0"/>
        <pt x="218" y="571" on="1"/>
        <pt x="226" y="571" on="0"/>
        <pt x="231" y="566" on="1"/>
        <pt x="234" y="562" on="0"/>
        <pt x="242" y="521" on="0"/>
        <pt x="249" y="466" on="0"/>
        <pt x="254" y="411" on="0"/>
        <pt x="256" y="374" on="0"/>
        <pt x="255" y="373" on="1"/>
        <pt x="255" y="373" on="0"/>
        <pt x="230" y="371" on="0"/>
      </contour>
    </TTGlyph>
    <TTGlyph name="uni0042" xMin="24" yMin="-3" xMax="376" yMax="686">
      <contour>
        <pt x="184" y="617" on="1"/>
        <pt x="170" y="592" on="0"/>
        <pt x="168" y="589" on="1"/>
        <pt x="163" y="584" on="0"/>
        <pt x="155" y="615" on="0"/>
        <pt x="142" y="659" on="0"/>
        <pt x="129" y="672" on="1"/>
        <pt x="116" y="684" on="0"/>
        <pt x="88" y="668" on="0"/>
        <pt x="62" y="631" on="0"/>
        <pt x="41" y="588" on="0"/>
        <pt x="29" y="557" on="0"/>
        <pt x="29" y="557" on="1"/>
        <pt x="44" y="530" on="0"/>
        <pt x="60" y="493" on="0"/>
        <pt x="68" y="461" on="0"/>
        <pt x="69" y="422" on="0"/>
        <pt x="69" y="393" on="1"/>
        <pt x="69" y="351" on="0"/>
        <pt x="66" y="278" on="0"/>
        <pt x="66" y="269" on="1"/>
        <pt x="63" y="228" on="0"/>
        <pt x="50" y="180" on="0"/>
        <pt x="35" y="153" on="0"/>
        <pt x="24" y="136" on="0"/>
        <pt x="24" y="126" on="1"/>
        <pt x="24" y="121" on="0"/>
        <pt x="41" y="83" on="0"/>
        <pt x="67" y="39" on="0"/>
        <pt x="93" y="6" on="0"/>
        <pt x="102" y="6" on="1"/>
        <pt x="106" y="6" on="0"/>
        <pt x="111" y="4" on="1"/>
        <pt x="116" y="2" on="0"/>
        <pt x="127" y="13" on="1"/>
        <pt x="151" y="37" on="0"/>
        <pt x="159" y="76" on="0"/>
        <pt x="164" y="80" on="1"/>
        <pt x="168" y="83" on="0"/>
        <pt x="174" y="75" on="0"/>
        <pt x="190" y="51" on="1"/>
        <pt x="216" y="11" on="0"/>
        <pt x="241" y="1" on="1"/>
        <pt x="251" y="-3" on="0"/>
        <pt x="272" y="2" on="0"/>
        <pt x="292" y="30" on="1"/>
        <pt x="302" y="44" on="0"/>
        <pt x="339" y="83" on="0"/>
        <pt x="372" y="116" on="0"/>
        <pt x="373" y="122" on="1"/>
        <pt x="376" y="127" on="0"/>
        <pt x="375" y="177" on="0"/>
        <pt x="371" y="239" on="0"/>
        <pt x="367" y="287" on="0"/>
        <pt x="366" y="291" on="1"/>
        <pt x="359" y="315" on="0"/>
        <pt x="326" y="344" on="0"/>
        <pt x="288" y="360" on="0"/>
        <pt x="261" y="367" on="0"/>
        <pt x="261" y="370" on="1"/>
        <pt x="261" y="371" on="0"/>
        <pt x="277" y="380" on="0"/>
        <pt x="294" y="389" on="0"/>
        <pt x="294" y="389" on="1"/>
        <pt x="319" y="401" on="0"/>
        <pt x="345" y="422" on="0"/>
        <pt x="349" y="437" on="1"/>
        <pt x="354" y="455" on="0"/>
        <pt x="359" y="513" on="0"/>
        <pt x="358" y="566" on="0"/>
        <pt x="354" y="576" on="1"/>
        <pt x="352" y="580" on="0"/>
        <pt x="332" y="609" on="0"/>
        <pt x="306" y="643" on="0"/>
        <pt x="284" y="671" on="0"/>
        <pt x="280" y="674" on="1"/>
        <pt x="266" y="686" on="0"/>
        <pt x="235" y="676" on="0"/>
        <pt x="208" y="650" on="0"/>
        <pt x="188" y="623" on="0"/>
      </contour>
      <contour>
        <pt x="228" y="398" on="1"/>
        <pt x="218" y="385" on="0"/>
        <pt x="180" y="376" on="0"/>
        <pt x="176" y="377" on="1"/>
        <pt x="171" y="378" on="0"/>
        <pt x="169" y="402" on="0"/>
        <pt x="170" y="450" on="1"/>
        <pt x="171" y="491" on="0"/>
        <pt x="174" y="533" on="0"/>
        <pt x="183" y="553" on="0"/>
        <pt x="193" y="563" on="1"/>
        <pt x="207" y="579" on="0"/>
        <pt x="227" y="561" on="0"/>
        <pt x="240" y="515" on="0"/>
        <pt x="243" y="459" on="0"/>
        <pt x="236" y="409" on="0"/>
      </contour>
      <contour>
        <pt x="199" y="337" on="1"/>
        <pt x="210" y="337" on="0"/>
        <pt x="215" y="336" on="1"/>
        <pt x="218" y="335" on="0"/>
        <pt x="239" y="317" on="0"/>
        <pt x="244" y="308" on="1"/>
        <pt x="248" y="298" on="0"/>
        <pt x="253" y="254" on="0"/>
        <pt x="255" y="205" on="0"/>
        <pt x="256" y="167" on="0"/>
        <pt x="256" y="162" on="1"/>
        <pt x="256" y="132" on="0"/>
        <pt x="245" y="121" on="1"/>
        <pt x="235" y="109" on="0"/>
        <pt x="209" y="117" on="0"/>
        <pt x="186" y="142" on="0"/>
        <pt x="183" y="157" on="1"/>
        <pt x="177" y="177" on="0"/>
        <pt x="172" y="235" on="0"/>
        <pt x="171" y="281" on="0"/>
        <pt x="171" y="283" on="1"/>
        <pt x="171" y="309" on="0"/>
        <pt x="173" y="332" on="0"/>
        <pt x="185" y="337" on="0"/>
      </contour>
    </TTGlyph>
    <TTGlyph name="uni0043" xMin="24" yMin="-7" xMax="350" yMax="692">
      <contour>
        <pt x="122" y="647" on="1"/>
        <pt x="109" y="636" on="0"/>
        <pt x="92" y="622" on="1"/>
        <pt x="54" y="590" on="0"/>
        <pt x="24" y="561" on="0"/>
        <pt x="24" y="546" on="1"/>
        <pt x="24" y="544" on="0"/>
        <pt x="26" y="536" on="0"/>
        <pt x="34" y="504" on="0"/>
        <pt x="43" y="466" on="1"/>
        <pt x="43" y="288" on="1"/>
        <pt x="43" y="259" on="0"/>
        <pt x="40" y="221" on="0"/>
        <pt x="35" y="195" on="1"/>
        <pt x="28" y="159" on="0"/>
        <pt x="28" y="134" on="0"/>
        <pt x="34" y="127" on="1"/>
        <pt x="43" y="114" on="0"/>
        <pt x="91" y="73" on="0"/>
        <pt x="123" y="41" on="1"/>
        <pt x="156" y="9" on="0"/>
        <pt x="187" y="-7" on="0"/>
        <pt x="206" y="4" on="1"/>
        <pt x="218" y="10" on="0"/>
        <pt x="235" y="28" on="0"/>
        <pt x="262" y="56" on="0"/>
        <pt x="288" y="78" on="1"/>
        <pt x="323" y="107" on="0"/>
        <pt x="349" y="137" on="0"/>
        <pt x="350" y="141" on="1"/>
        <pt x="350" y="152" on="0"/>
        <pt x="343" y="191" on="0"/>
        <pt x="333" y="232" on="0"/>
        <pt x="325" y="261" on="0"/>
        <pt x="325" y="262" on="1"/>
        <pt x="316" y="295" on="0"/>
        <pt x="291" y="328" on="0"/>
        <pt x="272" y="339" on="0"/>
        <pt x="272" y="339" on="1"/>
        <pt x="259" y="342" on="0"/>
        <pt x="222" y="317" on="0"/>
        <pt x="215" y="298" on="1"/>
        <pt x="208" y="282" on="0"/>
        <pt x="215" y="231" on="0"/>
        <pt x="226" y="176" on="0"/>
        <pt x="225" y="154" on="1"/>
        <pt x="224" y="149" on="0"/>
        <pt x="219" y="128" on="0"/>
        <pt x="202" y="112" on="0"/>
        <pt x="186" y="118" on="1"/>
        <pt x="174" y="121" on="0"/>
        <pt x="162" y="134" on="0"/>
        <pt x="151" y="149" on="1"/>
        <pt x="150" y="331" on="1"/>
        <pt x="150" y="509" on="1"/>
        <pt x="150" y="532" on="0"/>
        <pt x="151" y="542" on="1"/>
        <pt x="153" y="563" on="0"/>
        <pt x="186" y="586" on="0"/>
        <pt x="208" y="563" on="1"/>
        <pt x="213" y="556" on="0"/>
        <pt x="218" y="545" on="0"/>
        <pt x="217" y="517" on="0"/>
        <pt x="215" y="484" on="1"/>
        <pt x="213" y="451" on="0"/>
        <pt x="216" y="438" on="1"/>
        <pt x="220" y="417" on="0"/>
        <pt x="256" y="390" on="0"/>
        <pt x="268" y="390" on="1"/>
        <pt x="283" y="390" on="0"/>
        <pt x="308" y="417" on="0"/>
        <pt x="326" y="455" on="0"/>
        <pt x="338" y="492" on="0"/>
        <pt x="341" y="503" on="1"/>
        <pt x="347" y="523" on="0"/>
        <pt x="349" y="549" on="0"/>
        <pt x="332" y="576" on="0"/>
        <pt x="286" y="619" on="0"/>
        <pt x="244" y="657" on="1"/>
        <pt x="226" y="674" on="0"/>
        <pt x="194" y="692" on="0"/>
        <pt x="153" y="678" on="0"/>
      </contour>
    </TTGlyph>
    <TTGlyph name="uni0044" xMin="24" yMin="1" xMax="375" yMax="689">
      <contour>
        <pt x="194" y="625" on="1"/>
        <pt x="174" y="591" on="0"/>
        <pt x="165" y="591" on="0"/>
        <pt x="162" y="611" on="1"/>
        <pt x="161" y="620" on="0"/>
        <pt x="147" y="653" on="0"/>
        <pt x="125" y="681" on="0"/>
        <pt x="110" y="681" on="1"/>
        <pt x="94" y="681" on="0"/>
        <pt x="81" y="666" on="1"/>
        <pt x="78" y="663" on="0"/>
        <pt x="61" y="638" on="0"/>
        <pt x="42" y="605" on="0"/>
        <pt x="30" y="573" on="0"/>
        <pt x="33" y="563" on="1"/>
        <pt x="33" y="559" on="0"/>
        <pt x="45" y="531" on="0"/>
        <pt x="56" y="505" on="0"/>
        <pt x="56" y="505" on="1"/>
        <pt x="61" y="491" on="0"/>
        <pt x="67" y="438" on="0"/>
        <pt x="69" y="375" on="0"/>
        <pt x="68" y="318" on="0"/>
        <pt x="67" y="280" on="0"/>
        <pt x="67" y="280" on="1"/>
        <pt x="64" y="227" on="0"/>
        <pt x="43" y="166" on="0"/>
        <pt x="24" y="133" on="0"/>
        <pt x="24" y="122" on="1"/>
        <pt x="24" y="110" on="0"/>
        <pt x="49" y="56" on="0"/>
        <pt x="68" y="30" on="1"/>
        <pt x="83" y="9" on="0"/>
        <pt x="107" y="1" on="0"/>
        <pt x="121" y="9" on="1"/>
        <pt x="137" y="19" on="0"/>
        <pt x="152" y="52" on="0"/>
        <pt x="160" y="77" on="0"/>
        <pt x="164" y="76" on="1"/>
        <pt x="165" y="76" on="0"/>
        <pt x="181" y="53" on="0"/>
        <pt x="205" y="23" on="0"/>
        <pt x="233" y="1" on="0"/>
        <pt x="246" y="1" on="1"/>
        <pt x="255" y="1" on="0"/>
        <pt x="274" y="17" on="0"/>
        <pt x="280" y="25" on="1"/>
        <pt x="283" y="29" on="0"/>
        <pt x="290" y="36" on="0"/>
        <pt x="311" y="58" on="0"/>
        <pt x="334" y="83" on="1"/>
        <pt x="355" y="105" on="0"/>
        <pt x="373" y="128" on="0"/>
        <pt x="375" y="147" on="0"/>
        <pt x="372" y="165" on="1"/>
        <pt x="356" y="247" on="0"/>
        <pt x="354" y="345" on="1"/>
        <pt x="352" y="438" on="0"/>
        <pt x="369" y="541" on="0"/>
        <pt x="369" y="553" on="1"/>
        <pt x="369" y="560" on="0"/>
        <pt x="366" y="566" on="1"/>
        <pt x="366" y="566" on="0"/>
        <pt x="349" y="592" on="0"/>
        <pt x="322" y="628" on="0"/>
        <pt x="293" y="664" on="0"/>
        <pt x="267" y="689" on="0"/>
        <pt x="259" y="689" on="1"/>
        <pt x="256" y="689" on="0"/>
        <pt x="218" y="665" on="0"/>
      </contour>
      <contour>
        <pt x="245" y="299" on="1"/>
        <pt x="245" y="214" on="0"/>
        <pt x="243" y="130" on="0"/>
        <pt x="242" y="124" on="1"/>
        <pt x="239" y="109" on="0"/>
        <pt x="205" y="110" on="0"/>
        <pt x="192" y="128" on="1"/>
        <pt x="185" y="137" on="0"/>
        <pt x="177" y="158" on="0"/>
        <pt x="174" y="201" on="0"/>
        <pt x="173" y="282" on="0"/>
        <pt x="173" y="349" on="1"/>
        <pt x="173" y="528" on="1"/>
        <pt x="191" y="563" on="0"/>
        <pt x="210" y="577" on="0"/>
        <pt x="212" y="577" on="1"/>
        <pt x="214" y="577" on="0"/>
        <pt x="222" y="573" on="1"/>
        <pt x="230" y="568" on="0"/>
        <pt x="240" y="547" on="0"/>
        <pt x="245" y="493" on="0"/>
        <pt x="246" y="388" on="0"/>
      </contour>
    </TTGlyph>
    <TTGlyph name="uni0045" xMin="22" yMin="-3" xMax="347" yMax="691">
      <contour>
        <pt x="134" y="650" on="1"/>
        <pt x="104" y="621" on="0"/>
        <pt x="62" y="594" on="0"/>
        <pt x="36" y="577" on="0"/>
        <pt x="30" y="564" on="1"/>
        <pt x="22" y="547" on="0"/>
        <pt x="33" y="517" on="0"/>
        <pt x="52" y="479" on="0"/>
        <pt x="56" y="448" on="1"/>
        <pt x="66" y="370" on="0"/>
        <pt x="56" y="257" on="0"/>
        <pt x="36" y="180" on="0"/>
        <pt x="25" y="132" on="0"/>
        <pt x="34" y="119" on="1"/>
        <pt x="48" y="105" on="0"/>
        <pt x="71" y="88" on="0"/>
        <pt x="101" y="63" on="0"/>
        <pt x="125" y="39" on="1"/>
        <pt x="154" y="10" on="0"/>
        <pt x="188" y="-3" on="0"/>
        <pt x="202" y="4" on="1"/>
        <pt x="220" y="12" on="0"/>
        <pt x="264" y="57" on="0"/>
        <pt x="285" y="72" on="1"/>
        <pt x="312" y="90" on="0"/>
        <pt x="347" y="121" on="0"/>
        <pt x="345" y="144" on="1"/>
        <pt x="345" y="150" on="0"/>
        <pt x="335" y="187" on="0"/>
        <pt x="319" y="229" on="0"/>
        <pt x="295" y="259" on="0"/>
        <pt x="280" y="259" on="1"/>
        <pt x="270" y="259" on="0"/>
        <pt x="235" y="241" on="0"/>
        <pt x="213" y="202" on="0"/>
        <pt x="223" y="170" on="1"/>
        <pt x="232" y="144" on="0"/>
        <pt x="220" y="121" on="0"/>
        <pt x="202" y="115" on="0"/>
        <pt x="202" y="115" on="1"/>
        <pt x="193" y="115" on="0"/>
        <pt x="163" y="131" on="0"/>
        <pt x="161" y="138" on="1"/>
        <pt x="160" y="142" on="0"/>
        <pt x="159" y="180" on="0"/>
        <pt x="161" y="231" on="0"/>
        <pt x="163" y="280" on="0"/>
        <pt x="164" y="313" on="0"/>
        <pt x="165" y="314" on="1"/>
        <pt x="166" y="328" on="0"/>
        <pt x="179" y="331" on="0"/>
        <pt x="205" y="323" on="1"/>
        <pt x="228" y="315" on="0"/>
        <pt x="247" y="318" on="0"/>
        <pt x="257" y="330" on="1"/>
        <pt x="276" y="351" on="0"/>
        <pt x="256" y="386" on="0"/>
        <pt x="238" y="406" on="1"/>
        <pt x="216" y="395" on="0"/>
        <pt x="183" y="373" on="0"/>
        <pt x="173" y="373" on="1"/>
        <pt x="164" y="374" on="1"/>
        <pt x="164" y="413" on="1"/>
        <pt x="163" y="429" on="0"/>
        <pt x="162" y="455" on="1"/>
        <pt x="162" y="458" on="0"/>
        <pt x="161" y="485" on="0"/>
        <pt x="159" y="520" on="0"/>
        <pt x="157" y="545" on="0"/>
        <pt x="158" y="546" on="1"/>
        <pt x="158" y="562" on="0"/>
        <pt x="182" y="591" on="0"/>
        <pt x="197" y="581" on="1"/>
        <pt x="203" y="577" on="0"/>
        <pt x="209" y="567" on="0"/>
        <pt x="214" y="535" on="0"/>
        <pt x="219" y="497" on="1"/>
        <pt x="221" y="473" on="0"/>
        <pt x="250" y="457" on="0"/>
        <pt x="281" y="459" on="0"/>
        <pt x="286" y="463" on="1"/>
        <pt x="293" y="468" on="0"/>
        <pt x="315" y="498" on="0"/>
        <pt x="335" y="537" on="0"/>
        <pt x="343" y="575" on="0"/>
        <pt x="335" y="587" on="1"/>
        <pt x="328" y="596" on="0"/>
        <pt x="279" y="627" on="0"/>
        <pt x="248" y="655" on="1"/>
        <pt x="222" y="680" on="0"/>
        <pt x="189" y="691" on="0"/>
        <pt x="157" y="671" on="0"/>
      </contour>
    </TTGlyph>
    <TTGlyph name="uni0046" xMin="24" yMin="0" xMax="329" yMax="689">
      <contour>
        <pt x="164" y="378" on="1"/>
        <pt x="164" y="379" on="0"/>
        <pt x="163" y="413" on="0"/>
        <pt x="161" y="463" on="0"/>
        <pt x="160" y="515" on="0"/>
        <pt x="160" y="533" on="1"/>
        <pt x="160" y="543" on="0"/>
        <pt x="164" y="578" on="0"/>
        <pt x="177" y="585" on="1"/>
        <pt x="179" y="585" on="0"/>
        <pt x="196" y="581" on="0"/>
        <pt x="213" y="556" on="0"/>
        <pt x="213" y="525" on="1"/>
        <pt x="213" y="501" on="0"/>
        <pt x="218" y="493" on="1"/>
        <pt x="223" y="484" on="0"/>
        <pt x="254" y="467" on="0"/>
        <pt x="262" y="468" on="1"/>
        <pt x="271" y="468" on="0"/>
        <pt x="294" y="497" on="0"/>
        <pt x="315" y="537" on="0"/>
        <pt x="329" y="572" on="0"/>
        <pt x="329" y="578" on="1"/>
        <pt x="329" y="586" on="0"/>
        <pt x="316" y="603" on="0"/>
        <pt x="303" y="615" on="0"/>
        <pt x="303" y="615" on="1"/>
        <pt x="293" y="623" on="0"/>
        <pt x="267" y="647" on="0"/>
        <pt x="262" y="651" on="1"/>
        <pt x="232" y="680" on="0"/>
        <pt x="206" y="689" on="0"/>
        <pt x="189" y="678" on="1"/>
        <pt x="163" y="661" on="0"/>
        <pt x="156" y="630" on="0"/>
        <pt x="152" y="630" on="1"/>
        <pt x="150" y="630" on="0"/>
        <pt x="142" y="646" on="1"/>
        <pt x="133" y="664" on="0"/>
        <pt x="105" y="680" on="0"/>
        <pt x="94" y="673" on="1"/>
        <pt x="87" y="668" on="0"/>
        <pt x="64" y="635" on="0"/>
        <pt x="40" y="594" on="0"/>
        <pt x="24" y="562" on="0"/>
        <pt x="24" y="558" on="1"/>
        <pt x="24" y="556" on="0"/>
        <pt x="29" y="546" on="1"/>
        <pt x="43" y="516" on="0"/>
        <pt x="58" y="481" on="0"/>
        <pt x="65" y="454" on="0"/>
        <pt x="67" y="419" on="0"/>
        <pt x="68" y="391" on="1"/>
        <pt x="69" y="313" on="0"/>
        <pt x="61" y="227" on="0"/>
        <pt x="47" y="180" on="0"/>
        <pt x="39" y="162" on="1"/>
        <pt x="26" y="136" on="0"/>
        <pt x="24" y="114" on="0"/>
        <pt x="33" y="93" on="1"/>
        <pt x="53" y="42" on="0"/>
        <pt x="93" y="2" on="0"/>
        <pt x="127" y="0" on="0"/>
        <pt x="151" y="14" on="0"/>
        <pt x="154" y="17" on="1"/>
        <pt x="159" y="23" on="0"/>
        <pt x="186" y="61" on="0"/>
        <pt x="208" y="106" on="0"/>
        <pt x="207" y="121" on="1"/>
        <pt x="206" y="128" on="0"/>
        <pt x="184" y="190" on="0"/>
        <pt x="165" y="277" on="0"/>
        <pt x="169" y="323" on="1"/>
        <pt x="170" y="332" on="0"/>
        <pt x="198" y="323" on="0"/>
        <pt x="241" y="304" on="1"/>
        <pt x="255" y="319" on="0"/>
        <pt x="271" y="347" on="0"/>
        <pt x="263" y="381" on="0"/>
        <pt x="240" y="404" on="1"/>
        <pt x="203" y="384" on="0"/>
        <pt x="168" y="368" on="0"/>
      </contour>
    </TTGlyph>
    <TTGlyph name="uni0047" xMin="24" yMin="0" xMax="370" yMax="692">
      <contour>
        <pt x="26" y="143" on="1"/>
        <pt x="24" y="132" on="0"/>
        <pt x="30" y="122" on="1"/>
        <pt x="36" y="113" on="0"/>
        <pt x="51" y="98" on="0"/>
        <pt x="78" y="69" on="0"/>
        <pt x="100" y="41" on="1"/>
        <pt x="121" y="13" on="0"/>
        <pt x="146" y="0" on="0"/>
        <pt x="163" y="7" on="1"/>
        <pt x="170" y="11" on="0"/>
        <pt x="199" y="38" on="0"/>
        <pt x="227" y="69" on="0"/>
        <pt x="232" y="81" on="1"/>
        <pt x="241" y="96" on="0"/>
        <pt x="246" y="94" on="0"/>
        <pt x="249" y="73" on="1"/>
        <pt x="256" y="35" on="0"/>
        <pt x="291" y="4" on="0"/>
        <pt x="296" y="4" on="1"/>
        <pt x="304" y="3" on="0"/>
        <pt x="327" y="33" on="0"/>
        <pt x="350" y="74" on="0"/>
        <pt x="365" y="106" on="0"/>
        <pt x="365" y="106" on="1"/>
        <pt x="365" y="109" on="0"/>
        <pt x="359" y="126" on="0"/>
        <pt x="353" y="141" on="0"/>
        <pt x="353" y="141" on="1"/>
        <pt x="333" y="193" on="0"/>
        <pt x="337" y="270" on="0"/>
        <pt x="342" y="286" on="1"/>
        <pt x="346" y="303" on="0"/>
        <pt x="370" y="341" on="0"/>
        <pt x="370" y="351" on="1"/>
        <pt x="370" y="359" on="0"/>
        <pt x="350" y="383" on="0"/>
        <pt x="345" y="389" on="1"/>
        <pt x="327" y="409" on="0"/>
        <pt x="299" y="432" on="0"/>
        <pt x="264" y="428" on="0"/>
        <pt x="238" y="408" on="1"/>
        <pt x="228" y="400" on="0"/>
        <pt x="207" y="389" on="1"/>
        <pt x="191" y="380" on="0"/>
        <pt x="166" y="358" on="0"/>
        <pt x="181" y="340" on="1"/>
        <pt x="190" y="329" on="0"/>
        <pt x="210" y="324" on="0"/>
        <pt x="226" y="318" on="0"/>
        <pt x="230" y="305" on="1"/>
        <pt x="233" y="295" on="0"/>
        <pt x="238" y="240" on="0"/>
        <pt x="237" y="178" on="0"/>
        <pt x="233" y="158" on="1"/>
        <pt x="225" y="126" on="0"/>
        <pt x="193" y="116" on="0"/>
        <pt x="163" y="143" on="0"/>
        <pt x="158" y="166" on="1"/>
        <pt x="157" y="168" on="0"/>
        <pt x="156" y="208" on="0"/>
        <pt x="155" y="267" on="0"/>
        <pt x="155" y="325" on="0"/>
        <pt x="155" y="364" on="0"/>
        <pt x="155" y="365" on="1"/>
        <pt x="155" y="472" on="1"/>
        <pt x="155" y="504" on="0"/>
        <pt x="156" y="546" on="0"/>
        <pt x="158" y="554" on="1"/>
        <pt x="158" y="554" on="0"/>
        <pt x="163" y="569" on="0"/>
        <pt x="174" y="585" on="0"/>
        <pt x="191" y="589" on="0"/>
        <pt x="203" y="577" on="1"/>
        <pt x="214" y="568" on="0"/>
        <pt x="221" y="547" on="0"/>
        <pt x="222" y="519" on="1"/>
        <pt x="222" y="491" on="0"/>
        <pt x="231" y="469" on="0"/>
        <pt x="245" y="462" on="1"/>
        <pt x="272" y="449" on="0"/>
        <pt x="318" y="474" on="0"/>
        <pt x="348" y="522" on="0"/>
        <pt x="358" y="572" on="0"/>
        <pt x="350" y="584" on="1"/>
        <pt x="341" y="595" on="0"/>
        <pt x="301" y="617" on="0"/>
        <pt x="262" y="650" on="1"/>
        <pt x="231" y="679" on="0"/>
        <pt x="192" y="692" on="0"/>
        <pt x="158" y="671" on="0"/>
        <pt x="135" y="650" on="1"/>
        <pt x="106" y="622" on="0"/>
        <pt x="81" y="608" on="1"/>
        <pt x="80" y="608" on="0"/>
        <pt x="53" y="590" on="0"/>
        <pt x="26" y="565" on="0"/>
        <pt x="25" y="554" on="1"/>
        <pt x="24" y="541" on="0"/>
        <pt x="32" y="518" on="0"/>
        <pt x="43" y="483" on="0"/>
        <pt x="52" y="418" on="0"/>
        <pt x="52" y="362" on="1"/>
        <pt x="52" y="293" on="0"/>
        <pt x="44" y="218" on="0"/>
        <pt x="34" y="180" on="0"/>
        <pt x="26" y="158" on="0"/>
      </contour>
    </TTGlyph>
    <TTGlyph name="uni0048" xMin="24" yMin="-1" xMax="402" yMax="690">
      <contour>
        <pt x="30" y="565" on="1"/>
        <pt x="30" y="561" on="0"/>
        <pt x="37" y="543" on="0"/>
        <pt x="45" y="527" on="0"/>
        <pt x="45" y="527" on="1"/>
        <pt x="55" y="507" on="0"/>
        <pt x="65" y="480" on="0"/>
        <pt x="70" y="451" on="0"/>
        <pt x="71" y="404" on="0"/>
        <pt x="71" y="365" on="1"/>
        <pt x="71" y="304" on="0"/>
        <pt x="69" y="268" on="1"/>
        <pt x="65" y="221" on="0"/>
        <pt x="46" y="170" on="0"/>
        <pt x="28" y="142" on="0"/>
        <pt x="26" y="128" on="1"/>
        <pt x="24" y="120" on="0"/>
        <pt x="37" y="78" on="0"/>
        <pt x="63" y="31" on="0"/>
        <pt x="97" y="0" on="0"/>
        <pt x="139" y="3" on="0"/>
        <pt x="161" y="34" on="1"/>
        <pt x="187" y="68" on="0"/>
        <pt x="203" y="110" on="0"/>
        <pt x="200" y="135" on="0"/>
        <pt x="196" y="145" on="1"/>
        <pt x="189" y="167" on="0"/>
        <pt x="181" y="195" on="0"/>
        <pt x="175" y="235" on="0"/>
        <pt x="170" y="276" on="1"/>
        <pt x="167" y="296" on="0"/>
        <pt x="165" y="320" on="0"/>
        <pt x="169" y="323" on="1"/>
        <pt x="173" y="325" on="0"/>
        <pt x="209" y="325" on="0"/>
        <pt x="242" y="323" on="0"/>
        <pt x="242" y="323" on="1"/>
        <pt x="255" y="322" on="0"/>
        <pt x="259" y="317" on="0"/>
        <pt x="259" y="303" on="1"/>
        <pt x="259" y="287" on="0"/>
        <pt x="254" y="240" on="0"/>
        <pt x="246" y="196" on="0"/>
        <pt x="243" y="183" on="1"/>
        <pt x="235" y="156" on="0"/>
        <pt x="227" y="122" on="0"/>
        <pt x="234" y="90" on="0"/>
        <pt x="247" y="66" on="1"/>
        <pt x="268" y="26" on="0"/>
        <pt x="306" y="-1" on="0"/>
        <pt x="338" y="8" on="0"/>
        <pt x="364" y="36" on="0"/>
        <pt x="383" y="70" on="0"/>
        <pt x="388" y="81" on="1"/>
        <pt x="396" y="99" on="0"/>
        <pt x="402" y="120" on="0"/>
        <pt x="396" y="140" on="0"/>
        <pt x="386" y="157" on="1"/>
        <pt x="366" y="197" on="0"/>
        <pt x="350" y="297" on="0"/>
        <pt x="351" y="377" on="1"/>
        <pt x="352" y="415" on="0"/>
        <pt x="356" y="463" on="0"/>
        <pt x="367" y="503" on="0"/>
        <pt x="380" y="529" on="1"/>
        <pt x="389" y="545" on="0"/>
        <pt x="394" y="573" on="0"/>
        <pt x="379" y="605" on="1"/>
        <pt x="353" y="658" on="0"/>
        <pt x="314" y="690" on="0"/>
        <pt x="281" y="672" on="0"/>
        <pt x="266" y="649" on="1"/>
        <pt x="240" y="613" on="0"/>
        <pt x="223" y="574" on="0"/>
        <pt x="227" y="549" on="0"/>
        <pt x="234" y="534" on="1"/>
        <pt x="247" y="500" on="0"/>
        <pt x="257" y="431" on="0"/>
        <pt x="258" y="384" on="0"/>
        <pt x="258" y="383" on="1"/>
        <pt x="257" y="380" on="0"/>
        <pt x="243" y="379" on="0"/>
        <pt x="213" y="379" on="1"/>
        <pt x="182" y="379" on="0"/>
        <pt x="169" y="381" on="0"/>
        <pt x="168" y="384" on="1"/>
        <pt x="168" y="385" on="0"/>
        <pt x="167" y="429" on="0"/>
        <pt x="177" y="495" on="0"/>
        <pt x="192" y="528" on="1"/>
        <pt x="206" y="554" on="0"/>
        <pt x="206" y="564" on="1"/>
        <pt x="206" y="566" on="0"/>
        <pt x="195" y="596" on="0"/>
        <pt x="175" y="634" on="0"/>
        <pt x="149" y="669" on="0"/>
        <pt x="119" y="686" on="0"/>
        <pt x="103" y="679" on="1"/>
        <pt x="94" y="675" on="0"/>
        <pt x="70" y="646" on="0"/>
        <pt x="47" y="609" on="0"/>
        <pt x="31" y="574" on="0"/>
      </contour>
    </TTGlyph>
    <TTGlyph name="uni0049" xMin="24" yMin="0" xMax="208" yMax="686">
      <contour>
        <pt x="119" y="686" on="1"/>
        <pt x="110" y="686" on="0"/>
        <pt x="76" y="649" on="0"/>
        <pt x="41" y="593" on="0"/>
        <pt x="32" y="565" on="1"/>
        <pt x="45" y="525" on="0"/>
        <pt x="60" y="477" on="0"/>
        <pt x="65" y="438" on="0"/>
        <pt x="66" y="389" on="0"/>
        <pt x="65" y="348" on="1"/>
        <pt x="64" y="304" on="0"/>
        <pt x="60" y="249" on="0"/>
        <pt x="52" y="207" on="0"/>
        <pt x="37" y="162" on="0"/>
        <pt x="24" y="129" on="1"/>
        <pt x="29" y="113" on="0"/>
        <pt x="34" y="101" on="0"/>
        <pt x="41" y="88" on="1"/>
        <pt x="60" y="50" on="0"/>
        <pt x="87" y="12" on="0"/>
        <pt x="111" y="0" on="0"/>
        <pt x="124" y="0" on="1"/>
        <pt x="141" y="0" on="0"/>
        <pt x="169" y="32" on="0"/>
        <pt x="193" y="79" on="1"/>
        <pt x="202" y="97" on="0"/>
        <pt x="208" y="118" on="0"/>
        <pt x="203" y="143" on="0"/>
        <pt x="195" y="165" on="1"/>
        <pt x="180" y="205" on="0"/>
        <pt x="167" y="285" on="0"/>
        <pt x="164" y="349" on="0"/>
        <pt x="164" y="366" on="1"/>
        <pt x="164" y="388" on="0"/>
        <pt x="166" y="418" on="1"/>
        <pt x="169" y="466" on="0"/>
        <pt x="179" y="514" on="0"/>
        <pt x="188" y="536" on="0"/>
        <pt x="195" y="550" on="0"/>
        <pt x="196" y="564" on="1"/>
        <pt x="196" y="573" on="0"/>
        <pt x="177" y="612" on="0"/>
        <pt x="150" y="655" on="0"/>
        <pt x="124" y="686" on="0"/>
      </contour>
    </TTGlyph>
    <TTGlyph name="uni004A" xMin="24" yMin="-2" xMax="336" yMax="686">
      <contour>
        <pt x="176" y="566" on="1"/>
        <pt x="176" y="562" on="0"/>
        <pt x="177" y="554" on="0"/>
        <pt x="185" y="524" on="0"/>
        <pt x="194" y="490" on="1"/>
        <pt x="196" y="481" on="0"/>
        <pt x="199" y="463" on="0"/>
        <pt x="201" y="426" on="0"/>
        <pt x="203" y="353" on="0"/>
        <pt x="205" y="225" on="0"/>
        <pt x="206" y="125" on="1"/>
        <pt x="196" y="115" on="1"/>
        <pt x="182" y="101" on="0"/>
        <pt x="153" y="122" on="0"/>
        <pt x="150" y="140" on="1"/>
        <pt x="145" y="167" on="0"/>
        <pt x="153" y="211" on="0"/>
        <pt x="149" y="252" on="0"/>
        <pt x="129" y="273" on="1"/>
        <pt x="117" y="284" on="0"/>
        <pt x="103" y="286" on="0"/>
        <pt x="93" y="281" on="1"/>
        <pt x="72" y="269" on="0"/>
        <pt x="45" y="227" on="0"/>
        <pt x="30" y="183" on="0"/>
        <pt x="24" y="152" on="0"/>
        <pt x="24" y="151" on="1"/>
        <pt x="24" y="132" on="0"/>
        <pt x="49" y="96" on="0"/>
        <pt x="84" y="63" on="1"/>
        <pt x="115" y="32" on="0"/>
        <pt x="158" y="-2" on="0"/>
        <pt x="195" y="-1" on="0"/>
        <pt x="217" y="18" on="1"/>
        <pt x="220" y="21" on="0"/>
        <pt x="244" y="47" on="0"/>
        <pt x="275" y="82" on="0"/>
        <pt x="305" y="117" on="0"/>
        <pt x="325" y="140" on="0"/>
        <pt x="325" y="140" on="1"/>
        <pt x="327" y="144" on="0"/>
        <pt x="325" y="168" on="0"/>
        <pt x="320" y="204" on="1"/>
        <pt x="304" y="313" on="0"/>
        <pt x="307" y="455" on="0"/>
        <pt x="322" y="527" on="0"/>
        <pt x="324" y="531" on="1"/>
        <pt x="336" y="559" on="0"/>
        <pt x="328" y="578" on="1"/>
        <pt x="319" y="595" on="0"/>
        <pt x="290" y="646" on="0"/>
        <pt x="260" y="686" on="0"/>
        <pt x="251" y="686" on="1"/>
        <pt x="243" y="686" on="0"/>
        <pt x="219" y="658" on="0"/>
        <pt x="193" y="618" on="0"/>
        <pt x="176" y="578" on="0"/>
      </contour>
    </TTGlyph>
    <TTGlyph name="uni004B" xMin="24" yMin="-1" xMax="400" yMax="689">
      <contour>
        <pt x="181" y="328" on="1"/>
        <pt x="199" y="328" on="0"/>
        <pt x="212" y="300" on="1"/>
        <pt x="224" y="273" on="0"/>
        <pt x="234" y="228" on="0"/>
        <pt x="238" y="162" on="0"/>
        <pt x="240" y="105" on="1"/>
        <pt x="250" y="86" on="0"/>
        <pt x="276" y="39" on="0"/>
        <pt x="308" y="3" on="0"/>
        <pt x="327" y="1" on="1"/>
        <pt x="339" y="-1" on="0"/>
        <pt x="351" y="12" on="0"/>
        <pt x="361" y="30" on="1"/>
        <pt x="385" y="73" on="0"/>
        <pt x="400" y="116" on="0"/>
        <pt x="397" y="134" on="0"/>
        <pt x="393" y="141" on="1"/>
        <pt x="381" y="158" on="0"/>
        <pt x="363" y="180" on="0"/>
        <pt x="351" y="197" on="1"/>
        <pt x="345" y="206" on="0"/>
        <pt x="321" y="245" on="0"/>
        <pt x="301" y="280" on="0"/>
        <pt x="301" y="280" on="1"/>
        <pt x="279" y="315" on="0"/>
        <pt x="235" y="361" on="0"/>
        <pt x="235" y="362" on="1"/>
        <pt x="246" y="374" on="0"/>
        <pt x="255" y="383" on="0"/>
        <pt x="262" y="389" on="1"/>
        <pt x="271" y="398" on="0"/>
        <pt x="305" y="437" on="0"/>
        <pt x="342" y="481" on="0"/>
        <pt x="369" y="513" on="0"/>
        <pt x="369" y="513" on="1"/>
        <pt x="371" y="515" on="0"/>
        <pt x="384" y="531" on="0"/>
        <pt x="395" y="549" on="0"/>
        <pt x="395" y="554" on="1"/>
        <pt x="395" y="557" on="0"/>
        <pt x="392" y="566" on="1"/>
        <pt x="392" y="566" on="0"/>
        <pt x="378" y="597" on="0"/>
        <pt x="362" y="632" on="0"/>
        <pt x="359" y="639" on="1"/>
        <pt x="349" y="662" on="0"/>
        <pt x="333" y="687" on="0"/>
        <pt x="308" y="681" on="0"/>
        <pt x="286" y="658" on="1"/>
        <pt x="261" y="632" on="0"/>
        <pt x="241" y="598" on="0"/>
        <pt x="236" y="557" on="0"/>
        <pt x="235" y="522" on="1"/>
        <pt x="233" y="457" on="0"/>
        <pt x="214" y="393" on="0"/>
        <pt x="192" y="378" on="1"/>
        <pt x="177" y="368" on="0"/>
        <pt x="170" y="378" on="0"/>
        <pt x="170" y="415" on="1"/>
        <pt x="170" y="471" on="0"/>
        <pt x="185" y="529" on="0"/>
        <pt x="200" y="558" on="0"/>
        <pt x="200" y="570" on="1"/>
        <pt x="200" y="574" on="0"/>
        <pt x="197" y="581" on="0"/>
        <pt x="184" y="603" on="0"/>
        <pt x="169" y="628" on="1"/>
        <pt x="148" y="661" on="0"/>
        <pt x="125" y="689" on="0"/>
        <pt x="111" y="686" on="1"/>
        <pt x="100" y="683" on="0"/>
        <pt x="73" y="651" on="0"/>
        <pt x="50" y="611" on="0"/>
        <pt x="35" y="581" on="0"/>
        <pt x="35" y="581" on="1"/>
        <pt x="30" y="567" on="0"/>
        <pt x="39" y="542" on="0"/>
        <pt x="56" y="507" on="0"/>
        <pt x="64" y="478" on="1"/>
        <pt x="69" y="457" on="0"/>
        <pt x="76" y="366" on="0"/>
        <pt x="72" y="305" on="1"/>
        <pt x="70" y="270" on="0"/>
        <pt x="65" y="224" on="0"/>
        <pt x="55" y="190" on="0"/>
        <pt x="38" y="153" on="0"/>
        <pt x="24" y="127" on="1"/>
        <pt x="30" y="109" on="0"/>
        <pt x="36" y="92" on="0"/>
        <pt x="40" y="83" on="0"/>
        <pt x="44" y="75" on="1"/>
        <pt x="64" y="33" on="0"/>
        <pt x="97" y="1" on="0"/>
        <pt x="124" y="3" on="0"/>
        <pt x="136" y="14" on="1"/>
        <pt x="137" y="15" on="0"/>
        <pt x="181" y="73" on="0"/>
        <pt x="201" y="120" on="1"/>
        <pt x="192" y="147" on="0"/>
        <pt x="181" y="182" on="0"/>
        <pt x="175" y="210" on="0"/>
        <pt x="172" y="245" on="0"/>
        <pt x="170" y="272" on="1"/>
        <pt x="167" y="308" on="0"/>
        <pt x="172" y="328" on="0"/>
      </contour>
    </TTGlyph>
    <TTGlyph name="uni004C" xMin="24" yMin="-1" xMax="359" yMax="693">
      <contour>
        <pt x="39" y="575" on="1"/>
        <pt x="39" y="564" on="0"/>
        <pt x="61" y="525" on="0"/>
        <pt x="72" y="479" on="1"/>
        <pt x="76" y="464" on="0"/>
        <pt x="78" y="403" on="0"/>
        <pt x="78" y="338" on="0"/>
        <pt x="77" y="291" on="0"/>
        <pt x="77" y="290" on="1"/>
        <pt x="74" y="243" on="0"/>
        <pt x="61" y="190" on="0"/>
        <pt x="46" y="161" on="0"/>
        <pt x="31" y="140" on="0"/>
        <pt x="27" y="126" on="1"/>
        <pt x="24" y="115" on="0"/>
        <pt x="37" y="81" on="0"/>
        <pt x="56" y="45" on="0"/>
        <pt x="72" y="20" on="0"/>
        <pt x="73" y="20" on="1"/>
        <pt x="87" y="0" on="0"/>
        <pt x="115" y="2" on="0"/>
        <pt x="136" y="19" on="0"/>
        <pt x="139" y="23" on="1"/>
        <pt x="148" y="34" on="0"/>
        <pt x="162" y="42" on="0"/>
        <pt x="186" y="32" on="0"/>
        <pt x="209" y="19" on="1"/>
        <pt x="236" y="5" on="0"/>
        <pt x="261" y="-1" on="0"/>
        <pt x="269" y="4" on="1"/>
        <pt x="273" y="6" on="0"/>
        <pt x="301" y="35" on="0"/>
        <pt x="334" y="74" on="0"/>
        <pt x="359" y="108" on="0"/>
        <pt x="359" y="115" on="1"/>
        <pt x="359" y="116" on="0"/>
        <pt x="349" y="156" on="0"/>
        <pt x="331" y="208" on="0"/>
        <pt x="308" y="248" on="0"/>
        <pt x="294" y="248" on="1"/>
        <pt x="285" y="248" on="0"/>
        <pt x="270" y="240" on="1"/>
        <pt x="256" y="233" on="0"/>
        <pt x="244" y="220" on="0"/>
        <pt x="242" y="195" on="0"/>
        <pt x="242" y="170" on="1"/>
        <pt x="242" y="125" on="1"/>
        <pt x="230" y="113" on="0"/>
        <pt x="220" y="106" on="0"/>
        <pt x="211" y="106" on="1"/>
        <pt x="198" y="106" on="0"/>
        <pt x="188" y="117" on="0"/>
        <pt x="185" y="123" on="1"/>
        <pt x="183" y="127" on="0"/>
        <pt x="180" y="173" on="0"/>
        <pt x="178" y="235" on="0"/>
        <pt x="177" y="295" on="0"/>
        <pt x="177" y="335" on="0"/>
        <pt x="177" y="336" on="1"/>
        <pt x="177" y="394" on="0"/>
        <pt x="182" y="463" on="0"/>
        <pt x="196" y="513" on="0"/>
        <pt x="210" y="542" on="1"/>
        <pt x="218" y="559" on="0"/>
        <pt x="223" y="579" on="0"/>
        <pt x="214" y="600" on="0"/>
        <pt x="202" y="620" on="1"/>
        <pt x="177" y="662" on="0"/>
        <pt x="136" y="693" on="0"/>
        <pt x="112" y="680" on="1"/>
        <pt x="103" y="675" on="0"/>
        <pt x="78" y="647" on="0"/>
        <pt x="54" y="613" on="0"/>
        <pt x="39" y="582" on="0"/>
      </contour>
    </TTGlyph>
    <TTGlyph name="uni004D" xMin="24" yMin="-4" xMax="576" yMax="686">
      <contour>
        <pt x="300" y="392" on="1"/>
        <pt x="298" y="392" on="0"/>
        <pt x="296" y="399" on="0"/>
        <pt x="290" y="431" on="0"/>
        <pt x="284" y="470" on="1"/>
        <pt x="277" y="504" on="0"/>
        <pt x="283" y="536" on="0"/>
        <pt x="290" y="556" on="0"/>
        <pt x="286" y="570" on="1"/>
        <pt x="285" y="574" on="0"/>
        <pt x="264" y="610" on="0"/>
        <pt x="233" y="654" on="0"/>
        <pt x="196" y="686" on="0"/>
        <pt x="179" y="686" on="1"/>
        <pt x="171" y="686" on="0"/>
        <pt x="157" y="678" on="1"/>
        <pt x="154" y="676" on="0"/>
        <pt x="117" y="640" on="0"/>
        <pt x="69" y="585" on="0"/>
        <pt x="50" y="556" on="1"/>
        <pt x="66" y="527" on="0"/>
        <pt x="83" y="487" on="0"/>
        <pt x="90" y="440" on="0"/>
        <pt x="90" y="399" on="1"/>
        <pt x="88" y="321" on="0"/>
        <pt x="69" y="223" on="0"/>
        <pt x="44" y="166" on="0"/>
        <pt x="26" y="134" on="0"/>
        <pt x="25" y="123" on="1"/>
        <pt x="24" y="113" on="0"/>
        <pt x="37" y="70" on="0"/>
        <pt x="61" y="24" on="0"/>
        <pt x="95" y="-4" on="0"/>
        <pt x="139" y="3" on="0"/>
        <pt x="165" y="36" on="1"/>
        <pt x="188" y="66" on="0"/>
        <pt x="204" y="109" on="0"/>
        <pt x="201" y="150" on="0"/>
        <pt x="195" y="176" on="1"/>
        <pt x="189" y="201" on="0"/>
        <pt x="183" y="276" on="0"/>
        <pt x="180" y="356" on="0"/>
        <pt x="179" y="420" on="0"/>
        <pt x="179" y="435" on="1"/>
        <pt x="179" y="481" on="0"/>
        <pt x="181" y="548" on="0"/>
        <pt x="184" y="551" on="1"/>
        <pt x="192" y="559" on="0"/>
        <pt x="215" y="514" on="1"/>
        <pt x="229" y="485" on="0"/>
        <pt x="245" y="430" on="0"/>
        <pt x="251" y="362" on="0"/>
        <pt x="250" y="312" on="1"/>
        <pt x="250" y="271" on="0"/>
        <pt x="247" y="221" on="0"/>
        <pt x="237" y="180" on="0"/>
        <pt x="228" y="153" on="1"/>
        <pt x="223" y="137" on="0"/>
        <pt x="220" y="115" on="0"/>
        <pt x="233" y="83" on="0"/>
        <pt x="252" y="53" on="1"/>
        <pt x="269" y="22" on="0"/>
        <pt x="300" y="-3" on="0"/>
        <pt x="337" y="26" on="0"/>
        <pt x="366" y="79" on="1"/>
        <pt x="378" y="101" on="0"/>
        <pt x="382" y="128" on="0"/>
        <pt x="374" y="152" on="0"/>
        <pt x="362" y="191" on="0"/>
        <pt x="351" y="262" on="0"/>
        <pt x="351" y="322" on="1"/>
        <pt x="351" y="355" on="0"/>
        <pt x="352" y="372" on="1"/>
        <pt x="352" y="392" on="0"/>
        <pt x="362" y="447" on="0"/>
        <pt x="378" y="501" on="0"/>
        <pt x="397" y="543" on="0"/>
        <pt x="414" y="559" on="0"/>
        <pt x="421" y="546" on="1"/>
        <pt x="424" y="541" on="0"/>
        <pt x="425" y="516" on="0"/>
        <pt x="425" y="499" on="1"/>
        <pt x="425" y="430" on="1"/>
        <pt x="425" y="340" on="0"/>
        <pt x="419" y="233" on="0"/>
        <pt x="410" y="176" on="0"/>
        <pt x="401" y="148" on="0"/>
        <pt x="397" y="130" on="0"/>
        <pt x="399" y="114" on="1"/>
        <pt x="399" y="113" on="0"/>
        <pt x="410" y="78" on="0"/>
        <pt x="433" y="34" on="0"/>
        <pt x="469" y="0" on="0"/>
        <pt x="494" y="0" on="1"/>
        <pt x="510" y="0" on="0"/>
        <pt x="530" y="14" on="0"/>
        <pt x="541" y="32" on="1"/>
        <pt x="564" y="68" on="0"/>
        <pt x="576" y="113" on="0"/>
        <pt x="568" y="140" on="0"/>
        <pt x="562" y="151" on="1"/>
        <pt x="542" y="183" on="0"/>
        <pt x="522" y="265" on="0"/>
        <pt x="514" y="344" on="0"/>
        <pt x="513" y="405" on="0"/>
        <pt x="513" y="417" on="1"/>
        <pt x="514" y="446" on="0"/>
        <pt x="518" y="480" on="0"/>
        <pt x="527" y="507" on="0"/>
        <pt x="536" y="525" on="1"/>
        <pt x="546" y="545" on="0"/>
        <pt x="548" y="564" on="0"/>
        <pt x="542" y="575" on="1"/>
        <pt x="542" y="575" on="0"/>
        <pt x="517" y="609" on="0"/>
        <pt x="480" y="653" on="0"/>
        <pt x="442" y="686" on="0"/>
        <pt x="429" y="686" on="1"/>
        <pt x="417" y="686" on="0"/>
        <pt x="398" y="670" on="1"/>
        <pt x="377" y="652" on="0"/>
        <pt x="342" y="608" on="0"/>
        <pt x="317" y="567" on="0"/>
        <pt x="311" y="556" on="1"/>
        <pt x="319" y="535" on="0"/>
        <pt x="323" y="522" on="0"/>
        <pt x="323" y="511" on="1"/>
        <pt x="323" y="511" on="0"/>
        <pt x="320" y="474" on="0"/>
        <pt x="314" y="428" on="0"/>
        <pt x="305" y="392" on="0"/>
      </contour>
    </TTGlyph>
    <TTGlyph name="uni004E" xMin="24" yMin="-7" xMax="416" yMax="683">
      <contour>
        <pt x="33" y="565" on="1"/>
        <pt x="33" y="561" on="0"/>
        <pt x="49" y="522" on="0"/>
        <pt x="67" y="481" on="0"/>
        <pt x="69" y="473" on="1"/>
        <pt x="71" y="456" on="0"/>
        <pt x="74" y="403" on="0"/>
        <pt x="74" y="360" on="0"/>
        <pt x="74" y="360" on="1"/>
        <pt x="74" y="296" on="0"/>
        <pt x="60" y="215" on="0"/>
        <pt x="42" y="167" on="0"/>
        <pt x="27" y="136" on="0"/>
        <pt x="26" y="123" on="1"/>
        <pt x="24" y="110" on="0"/>
        <pt x="40" y="62" on="0"/>
        <pt x="70" y="17" on="0"/>
        <pt x="109" y="-7" on="0"/>
        <pt x="129" y="4" on="1"/>
        <pt x="139" y="9" on="0"/>
        <pt x="166" y="38" on="0"/>
        <pt x="191" y="77" on="0"/>
        <pt x="204" y="115" on="0"/>
        <pt x="200" y="130" on="1"/>
        <pt x="198" y="139" on="0"/>
        <pt x="183" y="168" on="0"/>
        <pt x="177" y="185" on="1"/>
        <pt x="170" y="202" on="0"/>
        <pt x="162" y="274" on="0"/>
        <pt x="158" y="360" on="0"/>
        <pt x="157" y="440" on="0"/>
        <pt x="158" y="491" on="0"/>
        <pt x="159" y="491" on="1"/>
        <pt x="162" y="491" on="0"/>
        <pt x="169" y="470" on="1"/>
        <pt x="169" y="468" on="0"/>
        <pt x="186" y="401" on="0"/>
        <pt x="216" y="289" on="0"/>
        <pt x="235" y="220" on="1"/>
        <pt x="237" y="175" on="0"/>
        <pt x="238" y="137" on="0"/>
        <pt x="239" y="123" on="0"/>
        <pt x="240" y="116" on="1"/>
        <pt x="242" y="103" on="0"/>
        <pt x="259" y="64" on="0"/>
        <pt x="287" y="26" on="0"/>
        <pt x="321" y="0" on="0"/>
        <pt x="339" y="0" on="1"/>
        <pt x="351" y="0" on="0"/>
        <pt x="377" y="28" on="0"/>
        <pt x="401" y="67" on="0"/>
        <pt x="416" y="104" on="0"/>
        <pt x="416" y="114" on="1"/>
        <pt x="416" y="128" on="0"/>
        <pt x="403" y="149" on="1"/>
        <pt x="390" y="172" on="0"/>
        <pt x="375" y="213" on="0"/>
        <pt x="369" y="276" on="0"/>
        <pt x="368" y="332" on="1"/>
        <pt x="367" y="389" on="0"/>
        <pt x="371" y="457" on="0"/>
        <pt x="384" y="505" on="0"/>
        <pt x="396" y="530" on="1"/>
        <pt x="406" y="549" on="0"/>
        <pt x="411" y="576" on="0"/>
        <pt x="400" y="605" on="0"/>
        <pt x="385" y="629" on="1"/>
        <pt x="366" y="660" on="0"/>
        <pt x="340" y="683" on="0"/>
        <pt x="324" y="683" on="1"/>
        <pt x="312" y="683" on="0"/>
        <pt x="285" y="655" on="0"/>
        <pt x="261" y="616" on="0"/>
        <pt x="245" y="581" on="0"/>
        <pt x="245" y="574" on="1"/>
        <pt x="243" y="560" on="0"/>
        <pt x="261" y="526" on="0"/>
        <pt x="271" y="490" on="1"/>
        <pt x="277" y="465" on="0"/>
        <pt x="283" y="389" on="0"/>
        <pt x="285" y="312" on="0"/>
        <pt x="285" y="259" on="0"/>
        <pt x="285" y="259" on="1"/>
        <pt x="284" y="223" on="0"/>
        <pt x="270" y="248" on="0"/>
        <pt x="250" y="319" on="1"/>
        <pt x="231" y="389" on="0"/>
        <pt x="210" y="470" on="0"/>
        <pt x="202" y="514" on="0"/>
        <pt x="203" y="534" on="0"/>
        <pt x="207" y="543" on="1"/>
        <pt x="213" y="555" on="0"/>
        <pt x="214" y="570" on="0"/>
        <pt x="201" y="594" on="0"/>
        <pt x="186" y="617" on="1"/>
        <pt x="160" y="657" on="0"/>
        <pt x="136" y="680" on="0"/>
        <pt x="122" y="680" on="1"/>
        <pt x="103" y="680" on="0"/>
        <pt x="70" y="646" on="0"/>
        <pt x="46" y="600" on="0"/>
        <pt x="33" y="566" on="0"/>
      </contour>
    </TTGlyph>
    <TTGlyph name="uni004F" xMin="18" yMin="0" xMax="350" yMax="690">
      <contour>
        <pt x="163" y="679" on="1"/>
        <pt x="183" y="690" on="0"/>
        <pt x="217" y="678" on="0"/>
        <pt x="249" y="647" on="1"/>
        <pt x="262" y="636" on="0"/>
        <pt x="294" y="608" on="0"/>
        <pt x="303" y="600" on="1"/>
        <pt x="313" y="592" on="0"/>
        <pt x="334" y="574" on="0"/>
        <pt x="338" y="568" on="1"/>
        <pt x="348" y="557" on="0"/>
        <pt x="350" y="536" on="0"/>
        <pt x="342" y="503" on="1"/>
        <pt x="327" y="437" on="0"/>
        <pt x="326" y="296" on="0"/>
        <pt x="341" y="209" on="1"/>
        <pt x="345" y="185" on="0"/>
        <pt x="349" y="148" on="0"/>
        <pt x="348" y="144" on="1"/>
        <pt x="346" y="134" on="0"/>
        <pt x="322" y="107" on="0"/>
        <pt x="295" y="84" on="1"/>
        <pt x="283" y="74" on="0"/>
        <pt x="253" y="47" on="0"/>
        <pt x="244" y="38" on="1"/>
        <pt x="221" y="15" on="0"/>
        <pt x="199" y="0" on="0"/>
        <pt x="186" y="0" on="1"/>
        <pt x="172" y="0" on="0"/>
        <pt x="164" y="3" on="1"/>
        <pt x="160" y="4" on="0"/>
        <pt x="130" y="32" on="0"/>
        <pt x="113" y="50" on="1"/>
        <pt x="95" y="68" on="0"/>
        <pt x="62" y="100" on="0"/>
        <pt x="56" y="105" on="1"/>
        <pt x="43" y="117" on="0"/>
        <pt x="33" y="128" on="1"/>
        <pt x="25" y="138" on="0"/>
        <pt x="23" y="160" on="0"/>
        <pt x="30" y="190" on="1"/>
        <pt x="36" y="220" on="0"/>
        <pt x="45" y="304" on="0"/>
        <pt x="47" y="386" on="0"/>
        <pt x="45" y="414" on="1"/>
        <pt x="44" y="428" on="0"/>
        <pt x="37" y="470" on="0"/>
        <pt x="33" y="485" on="1"/>
        <pt x="18" y="546" on="0"/>
        <pt x="28" y="561" on="1"/>
        <pt x="30" y="564" on="0"/>
        <pt x="47" y="579" on="0"/>
        <pt x="57" y="586" on="1"/>
        <pt x="67" y="594" on="0"/>
        <pt x="102" y="624" on="0"/>
        <pt x="116" y="638" on="1"/>
        <pt x="130" y="652" on="0"/>
        <pt x="157" y="676" on="0"/>
      </contour>
      <contour>
        <pt x="203" y="568" on="1"/>
        <pt x="190" y="580" on="0"/>
        <pt x="183" y="580" on="1"/>
        <pt x="166" y="580" on="0"/>
        <pt x="152" y="551" on="1"/>
        <pt x="146" y="539" on="0"/>
        <pt x="145" y="527" on="0"/>
        <pt x="147" y="503" on="1"/>
        <pt x="148" y="495" on="0"/>
        <pt x="149" y="438" on="0"/>
        <pt x="150" y="358" on="0"/>
        <pt x="150" y="315" on="1"/>
        <pt x="150" y="250" on="0"/>
        <pt x="150" y="181" on="0"/>
        <pt x="153" y="150" on="0"/>
        <pt x="162" y="138" on="0"/>
        <pt x="169" y="131" on="1"/>
        <pt x="196" y="106" on="0"/>
        <pt x="214" y="126" on="1"/>
        <pt x="220" y="134" on="0"/>
        <pt x="225" y="152" on="0"/>
        <pt x="225" y="202" on="0"/>
        <pt x="222" y="257" on="1"/>
        <pt x="222" y="273" on="0"/>
        <pt x="221" y="329" on="0"/>
        <pt x="222" y="395" on="0"/>
        <pt x="222" y="426" on="1"/>
        <pt x="223" y="473" on="0"/>
        <pt x="224" y="524" on="0"/>
        <pt x="220" y="548" on="0"/>
        <pt x="211" y="560" on="0"/>
      </contour>
    </TTGlyph>
    <TTGlyph name="uni0050" xMin="24" yMin="0" xMax="355" yMax="686">
      <contour>
        <pt x="111" y="679" on="1"/>
        <pt x="103" y="679" on="0"/>
        <pt x="99" y="677" on="1"/>
        <pt x="90" y="671" on="0"/>
        <pt x="64" y="634" on="0"/>
        <pt x="41" y="592" on="0"/>
        <pt x="36" y="581" on="1"/>
        <pt x="33" y="574" on="0"/>
        <pt x="33" y="561" on="0"/>
        <pt x="45" y="527" on="0"/>
        <pt x="61" y="488" on="1"/>
        <pt x="65" y="469" on="0"/>
        <pt x="68" y="418" on="0"/>
        <pt x="68" y="368" on="0"/>
        <pt x="67" y="335" on="0"/>
        <pt x="67" y="334" on="1"/>
        <pt x="65" y="274" on="0"/>
        <pt x="54" y="204" on="0"/>
        <pt x="42" y="166" on="0"/>
        <pt x="30" y="147" on="0"/>
        <pt x="24" y="133" on="0"/>
        <pt x="25" y="121" on="1"/>
        <pt x="26" y="113" on="0"/>
        <pt x="39" y="80" on="0"/>
        <pt x="60" y="42" on="0"/>
        <pt x="82" y="12" on="0"/>
        <pt x="91" y="7" on="1"/>
        <pt x="102" y="2" on="0"/>
        <pt x="129" y="0" on="0"/>
        <pt x="139" y="4" on="1"/>
        <pt x="149" y="9" on="0"/>
        <pt x="170" y="36" on="0"/>
        <pt x="187" y="67" on="0"/>
        <pt x="198" y="90" on="0"/>
        <pt x="198" y="91" on="1"/>
        <pt x="207" y="111" on="0"/>
        <pt x="206" y="136" on="0"/>
        <pt x="195" y="158" on="1"/>
        <pt x="181" y="190" on="0"/>
        <pt x="168" y="251" on="0"/>
        <pt x="166" y="292" on="0"/>
        <pt x="166" y="292" on="1"/>
        <pt x="166" y="293" on="0"/>
        <pt x="181" y="287" on="0"/>
        <pt x="196" y="280" on="0"/>
        <pt x="196" y="280" on="1"/>
        <pt x="221" y="267" on="0"/>
        <pt x="242" y="263" on="0"/>
        <pt x="251" y="269" on="1"/>
        <pt x="259" y="275" on="0"/>
        <pt x="291" y="304" on="0"/>
        <pt x="325" y="338" on="0"/>
        <pt x="350" y="365" on="0"/>
        <pt x="351" y="368" on="1"/>
        <pt x="352" y="371" on="0"/>
        <pt x="353" y="410" on="0"/>
        <pt x="355" y="473" on="1"/>
        <pt x="355" y="535" on="1"/>
        <pt x="355" y="555" on="0"/>
        <pt x="350" y="578" on="0"/>
        <pt x="332" y="604" on="0"/>
        <pt x="314" y="627" on="1"/>
        <pt x="291" y="657" on="0"/>
        <pt x="264" y="686" on="0"/>
        <pt x="250" y="686" on="1"/>
        <pt x="247" y="686" on="0"/>
        <pt x="237" y="680" on="1"/>
        <pt x="220" y="671" on="0"/>
        <pt x="189" y="634" on="0"/>
        <pt x="167" y="602" on="0"/>
        <pt x="164" y="602" on="1"/>
        <pt x="162" y="603" on="0"/>
        <pt x="156" y="626" on="0"/>
        <pt x="144" y="656" on="0"/>
        <pt x="125" y="679" on="0"/>
      </contour>
      <contour>
        <pt x="237" y="450" on="1"/>
        <pt x="237" y="380" on="0"/>
        <pt x="227" y="321" on="0"/>
        <pt x="198" y="323" on="1"/>
        <pt x="174" y="326" on="0"/>
        <pt x="166" y="353" on="0"/>
        <pt x="166" y="372" on="1"/>
        <pt x="166" y="392" on="0"/>
        <pt x="168" y="443" on="0"/>
        <pt x="170" y="490" on="0"/>
        <pt x="171" y="520" on="0"/>
        <pt x="172" y="521" on="1"/>
        <pt x="174" y="559" on="0"/>
        <pt x="192" y="583" on="0"/>
        <pt x="211" y="580" on="0"/>
        <pt x="215" y="577" on="1"/>
        <pt x="232" y="565" on="0"/>
        <pt x="237" y="513" on="0"/>
      </contour>
    </TTGlyph>
    <TTGlyph name="uni0051" xMin="23" yMin="-12" xMax="380" yMax="691">
      <contour>
        <pt x="124" y="643" on="1"/>
        <pt x="113" y="631" on="0"/>
        <pt x="81" y="604" on="0"/>
        <pt x="70" y="597" on="1"/>
        <pt x="40" y="575" on="0"/>
        <pt x="24" y="556" on="0"/>
        <pt x="24" y="544" on="1"/>
        <pt x="24" y="529" on="0"/>
        <pt x="30" y="500" on="1"/>
        <pt x="44" y="429" on="0"/>
        <pt x="44" y="298" on="0"/>
        <pt x="33" y="206" on="0"/>
        <pt x="29" y="191" on="1"/>
        <pt x="23" y="162" on="0"/>
        <pt x="37" y="136" on="0"/>
        <pt x="53" y="120" on="1"/>
        <pt x="69" y="102" on="0"/>
        <pt x="83" y="73" on="1"/>
        <pt x="104" y="28" on="0"/>
        <pt x="152" y="0" on="0"/>
        <pt x="197" y="8" on="0"/>
        <pt x="234" y="33" on="0"/>
        <pt x="244" y="41" on="1"/>
        <pt x="262" y="24" on="0"/>
        <pt x="278" y="10" on="0"/>
        <pt x="292" y="2" on="1"/>
        <pt x="310" y="-10" on="0"/>
        <pt x="331" y="-12" on="0"/>
        <pt x="343" y="-3" on="1"/>
        <pt x="363" y="12" on="0"/>
        <pt x="380" y="54" on="0"/>
        <pt x="373" y="82" on="0"/>
        <pt x="359" y="77" on="1"/>
        <pt x="349" y="73" on="0"/>
        <pt x="317" y="74" on="0"/>
        <pt x="292" y="81" on="0"/>
        <pt x="292" y="87" on="1"/>
        <pt x="292" y="89" on="0"/>
        <pt x="311" y="110" on="0"/>
        <pt x="334" y="136" on="0"/>
        <pt x="341" y="144" on="1"/>
        <pt x="347" y="152" on="0"/>
        <pt x="347" y="170" on="0"/>
        <pt x="342" y="202" on="1"/>
        <pt x="327" y="282" on="0"/>
        <pt x="324" y="402" on="0"/>
        <pt x="335" y="486" on="0"/>
        <pt x="348" y="537" on="0"/>
        <pt x="348" y="547" on="1"/>
        <pt x="348" y="558" on="0"/>
        <pt x="332" y="578" on="0"/>
        <pt x="305" y="600" on="1"/>
        <pt x="296" y="607" on="0"/>
        <pt x="271" y="628" on="0"/>
        <pt x="250" y="647" on="0"/>
        <pt x="247" y="650" on="1"/>
        <pt x="219" y="677" on="0"/>
        <pt x="184" y="691" on="0"/>
        <pt x="150" y="669" on="0"/>
      </contour>
      <contour>
        <pt x="222" y="530" on="1"/>
        <pt x="222" y="521" on="0"/>
        <pt x="221" y="480" on="0"/>
        <pt x="220" y="444" on="0"/>
        <pt x="220" y="444" on="1"/>
        <pt x="218" y="366" on="0"/>
        <pt x="222" y="268" on="0"/>
        <pt x="224" y="200" on="0"/>
        <pt x="220" y="165" on="1"/>
        <pt x="217" y="166" on="0"/>
        <pt x="184" y="174" on="0"/>
        <pt x="152" y="182" on="0"/>
        <pt x="152" y="182" on="1"/>
        <pt x="151" y="264" on="0"/>
        <pt x="150" y="368" on="0"/>
        <pt x="149" y="428" on="0"/>
        <pt x="149" y="458" on="0"/>
        <pt x="149" y="472" on="0"/>
        <pt x="149" y="479" on="1"/>
        <pt x="149" y="519" on="0"/>
        <pt x="150" y="536" on="1"/>
        <pt x="151" y="557" on="0"/>
        <pt x="168" y="575" on="0"/>
        <pt x="185" y="580" on="0"/>
        <pt x="185" y="580" on="1"/>
        <pt x="194" y="579" on="0"/>
        <pt x="221" y="547" on="0"/>
      </contour>
      <contour>
        <pt x="203" y="81" on="1"/>
        <pt x="203" y="73" on="0"/>
        <pt x="182" y="55" on="0"/>
        <pt x="152" y="45" on="0"/>
        <pt x="123" y="53" on="0"/>
        <pt x="115" y="70" on="1"/>
        <pt x="103" y="95" on="0"/>
        <pt x="131" y="127" on="0"/>
        <pt x="153" y="127" on="1"/>
        <pt x="172" y="126" on="0"/>
        <pt x="194" y="103" on="0"/>
        <pt x="203" y="81" on="0"/>
      </contour>
    </TTGlyph>
    <TTGlyph name="uni0052" xMin="24" yMin="-74" xMax="402" yMax="685">
      <contour>
        <pt x="170" y="589" on="1"/>
        <pt x="167" y="589" on="0"/>
        <pt x="161" y="608" on="0"/>
        <pt x="161" y="609" on="1"/>
        <pt x="153" y="634" on="0"/>
        <pt x="121" y="678" on="0"/>
        <pt x="109" y="678" on="1"/>
        <pt x="98" y="677" on="0"/>
        <pt x="72" y="647" on="0"/>
        <pt x="49" y="607" on="0"/>
        <pt x="33" y="577" on="0"/>
        <pt x="33" y="577" on="1"/>
        <pt x="27" y="560" on="0"/>
        <pt x="36" y="539" on="0"/>
        <pt x="54" y="515" on="0"/>
        <pt x="70" y="476" on="0"/>
        <pt x="70" y="441" on="1"/>
        <pt x="70" y="371" on="1"/>
        <pt x="70" y="317" on="0"/>
        <pt x="67" y="248" on="0"/>
        <pt x="52" y="190" on="0"/>
        <pt x="34" y="154" on="1"/>
        <pt x="24" y="132" on="0"/>
        <pt x="27" y="103" on="0"/>
        <pt x="43" y="69" on="1"/>
        <pt x="114" y="-74" on="0"/>
        <pt x="191" y="76" on="1"/>
        <pt x="203" y="101" on="0"/>
        <pt x="203" y="116" on="1"/>
        <pt x="203" y="132" on="0"/>
        <pt x="185" y="167" on="0"/>
        <pt x="181" y="181" on="1"/>
        <pt x="179" y="189" on="0"/>
        <pt x="173" y="234" on="0"/>
        <pt x="168" y="286" on="0"/>
        <pt x="169" y="327" on="0"/>
        <pt x="173" y="330" on="1"/>
        <pt x="174" y="331" on="0"/>
        <pt x="198" y="332" on="0"/>
        <pt x="200" y="332" on="1"/>
        <pt x="208" y="331" on="0"/>
        <pt x="231" y="315" on="0"/>
        <pt x="238" y="299" on="1"/>
        <pt x="245" y="282" on="0"/>
        <pt x="249" y="228" on="0"/>
        <pt x="248" y="181" on="0"/>
        <pt x="248" y="175" on="1"/>
        <pt x="247" y="127" on="0"/>
        <pt x="258" y="49" on="0"/>
        <pt x="297" y="17" on="1"/>
        <pt x="311" y="4" on="0"/>
        <pt x="335" y="-2" on="0"/>
        <pt x="362" y="25" on="0"/>
        <pt x="380" y="61" on="1"/>
        <pt x="394" y="89" on="0"/>
        <pt x="402" y="121" on="0"/>
        <pt x="394" y="132" on="1"/>
        <pt x="377" y="155" on="0"/>
        <pt x="370" y="168" on="1"/>
        <pt x="355" y="191" on="0"/>
        <pt x="344" y="268" on="0"/>
        <pt x="332" y="303" on="1"/>
        <pt x="322" y="328" on="0"/>
        <pt x="285" y="347" on="0"/>
        <pt x="254" y="353" on="0"/>
        <pt x="254" y="360" on="1"/>
        <pt x="254" y="363" on="0"/>
        <pt x="266" y="370" on="0"/>
        <pt x="284" y="379" on="1"/>
        <pt x="318" y="393" on="0"/>
        <pt x="347" y="422" on="0"/>
        <pt x="354" y="465" on="0"/>
        <pt x="355" y="502" on="1"/>
        <pt x="357" y="537" on="0"/>
        <pt x="353" y="575" on="0"/>
        <pt x="336" y="607" on="0"/>
        <pt x="317" y="633" on="1"/>
        <pt x="293" y="664" on="0"/>
        <pt x="264" y="685" on="0"/>
        <pt x="246" y="681" on="0"/>
        <pt x="240" y="677" on="1"/>
        <pt x="217" y="663" on="0"/>
        <pt x="188" y="621" on="0"/>
        <pt x="173" y="589" on="0"/>
      </contour>
      <contour>
        <pt x="234" y="543" on="1"/>
        <pt x="238" y="531" on="0"/>
        <pt x="241" y="485" on="0"/>
        <pt x="240" y="439" on="0"/>
        <pt x="238" y="426" on="1"/>
        <pt x="233" y="398" on="0"/>
        <pt x="205" y="375" on="0"/>
        <pt x="180" y="370" on="0"/>
        <pt x="180" y="370" on="1"/>
        <pt x="173" y="370" on="0"/>
        <pt x="171" y="372" on="1"/>
        <pt x="168" y="374" on="0"/>
        <pt x="166" y="419" on="0"/>
        <pt x="168" y="479" on="0"/>
        <pt x="173" y="532" on="0"/>
        <pt x="176" y="542" on="1"/>
        <pt x="181" y="556" on="0"/>
        <pt x="201" y="576" on="0"/>
        <pt x="205" y="576" on="1"/>
        <pt x="207" y="576" on="0"/>
        <pt x="229" y="559" on="0"/>
      </contour>
    </TTGlyph>
    <TTGlyph name="uni0053" xMin="12" yMin="-4" xMax="344" yMax="691">
      <contour>
        <pt x="163" y="680" on="1"/>
        <pt x="184" y="691" on="0"/>
        <pt x="203" y="682" on="1"/>
        <pt x="206" y="680" on="0"/>
        <pt x="226" y="664" on="0"/>
        <pt x="236" y="655" on="1"/>
        <pt x="245" y="645" on="0"/>
        <pt x="279" y="619" on="0"/>
        <pt x="294" y="610" on="1"/>
        <pt x="329" y="587" on="0"/>
        <pt x="344" y="560" on="0"/>
        <pt x="337" y="535" on="1"/>
        <pt x="335" y="528" on="0"/>
        <pt x="316" y="487" on="0"/>
        <pt x="295" y="447" on="0"/>
        <pt x="290" y="440" on="1"/>
        <pt x="270" y="412" on="0"/>
        <pt x="235" y="438" on="1"/>
        <pt x="216" y="452" on="0"/>
        <pt x="204" y="487" on="0"/>
        <pt x="208" y="518" on="1"/>
        <pt x="212" y="547" on="1"/>
        <pt x="204" y="559" on="1"/>
        <pt x="189" y="581" on="0"/>
        <pt x="158" y="578" on="0"/>
        <pt x="150" y="555" on="1"/>
        <pt x="144" y="539" on="0"/>
        <pt x="152" y="482" on="0"/>
        <pt x="164" y="458" on="1"/>
        <pt x="172" y="443" on="0"/>
        <pt x="187" y="419" on="0"/>
        <pt x="215" y="389" on="0"/>
        <pt x="241" y="362" on="1"/>
        <pt x="268" y="334" on="0"/>
        <pt x="300" y="299" on="0"/>
        <pt x="317" y="274" on="0"/>
        <pt x="323" y="260" on="1"/>
        <pt x="336" y="233" on="0"/>
        <pt x="344" y="155" on="0"/>
        <pt x="337" y="131" on="1"/>
        <pt x="332" y="116" on="0"/>
        <pt x="315" y="96" on="0"/>
        <pt x="293" y="79" on="1"/>
        <pt x="283" y="72" on="0"/>
        <pt x="252" y="44" on="0"/>
        <pt x="240" y="32" on="1"/>
        <pt x="217" y="8" on="0"/>
        <pt x="193" y="-4" on="0"/>
        <pt x="174" y="-1" on="1"/>
        <pt x="158" y="1" on="0"/>
        <pt x="137" y="14" on="0"/>
        <pt x="113" y="37" on="1"/>
        <pt x="102" y="48" on="0"/>
        <pt x="71" y="76" on="0"/>
        <pt x="61" y="84" on="1"/>
        <pt x="51" y="92" on="0"/>
        <pt x="33" y="110" on="0"/>
        <pt x="30" y="114" on="1"/>
        <pt x="12" y="144" on="0"/>
        <pt x="49" y="213" on="1"/>
        <pt x="63" y="240" on="0"/>
        <pt x="88" y="260" on="0"/>
        <pt x="105" y="260" on="1"/>
        <pt x="133" y="260" on="0"/>
        <pt x="147" y="245" on="1"/>
        <pt x="153" y="240" on="0"/>
        <pt x="156" y="229" on="0"/>
        <pt x="157" y="217" on="1"/>
        <pt x="158" y="197" on="0"/>
        <pt x="154" y="175" on="1"/>
        <pt x="150" y="158" on="0"/>
        <pt x="151" y="149" on="0"/>
        <pt x="156" y="137" on="1"/>
        <pt x="168" y="114" on="0"/>
        <pt x="192" y="101" on="1"/>
        <pt x="205" y="94" on="0"/>
        <pt x="218" y="116" on="1"/>
        <pt x="236" y="147" on="0"/>
        <pt x="211" y="213" on="1"/>
        <pt x="193" y="260" on="0"/>
        <pt x="145" y="309" on="1"/>
        <pt x="98" y="359" on="0"/>
        <pt x="47" y="430" on="0"/>
        <pt x="37" y="460" on="1"/>
        <pt x="32" y="475" on="0"/>
        <pt x="29" y="497" on="0"/>
        <pt x="29" y="521" on="1"/>
        <pt x="29" y="547" on="0"/>
        <pt x="31" y="561" on="0"/>
        <pt x="37" y="570" on="1"/>
        <pt x="41" y="575" on="0"/>
        <pt x="62" y="595" on="0"/>
        <pt x="73" y="604" on="1"/>
        <pt x="84" y="613" on="0"/>
        <pt x="115" y="640" on="0"/>
        <pt x="126" y="650" on="1"/>
        <pt x="137" y="660" on="0"/>
        <pt x="159" y="678" on="0"/>
      </contour>
    </TTGlyph>
    <TTGlyph name="uni0054" xMin="24" yMin="-2" xMax="366" yMax="682">
      <contour>
        <pt x="133" y="571" on="1"/>
        <pt x="141" y="571" on="0"/>
        <pt x="148" y="561" on="0"/>
        <pt x="149" y="513" on="0"/>
        <pt x="149" y="455" on="1"/>
        <pt x="149" y="367" on="0"/>
        <pt x="142" y="244" on="0"/>
        <pt x="134" y="208" on="1"/>
        <pt x="129" y="186" on="0"/>
        <pt x="113" y="148" on="0"/>
        <pt x="105" y="121" on="1"/>
        <pt x="110" y="107" on="0"/>
        <pt x="128" y="60" on="0"/>
        <pt x="156" y="15" on="0"/>
        <pt x="174" y="6" on="1"/>
        <pt x="185" y="1" on="0"/>
        <pt x="214" y="-2" on="0"/>
        <pt x="249" y="27" on="0"/>
        <pt x="270" y="69" on="1"/>
        <pt x="281" y="90" on="0"/>
        <pt x="289" y="113" on="0"/>
        <pt x="284" y="134" on="0"/>
        <pt x="277" y="151" on="1"/>
        <pt x="267" y="172" on="0"/>
        <pt x="254" y="220" on="0"/>
        <pt x="246" y="304" on="0"/>
        <pt x="244" y="379" on="1"/>
        <pt x="242" y="452" on="0"/>
        <pt x="242" y="532" on="0"/>
        <pt x="245" y="567" on="0"/>
        <pt x="250" y="574" on="0"/>
        <pt x="253" y="574" on="1"/>
        <pt x="261" y="574" on="0"/>
        <pt x="265" y="555" on="0"/>
        <pt x="265" y="550" on="1"/>
        <pt x="265" y="514" on="0"/>
        <pt x="294" y="490" on="0"/>
        <pt x="313" y="482" on="1"/>
        <pt x="324" y="494" on="1"/>
        <pt x="333" y="503" on="0"/>
        <pt x="351" y="535" on="0"/>
        <pt x="364" y="569" on="0"/>
        <pt x="364" y="580" on="1"/>
        <pt x="366" y="597" on="0"/>
        <pt x="364" y="605" on="1"/>
        <pt x="363" y="609" on="0"/>
        <pt x="342" y="635" on="0"/>
        <pt x="310" y="664" on="0"/>
        <pt x="276" y="682" on="0"/>
        <pt x="262" y="677" on="1"/>
        <pt x="246" y="672" on="0"/>
        <pt x="209" y="646" on="0"/>
        <pt x="199" y="641" on="1"/>
        <pt x="190" y="638" on="0"/>
        <pt x="159" y="659" on="0"/>
        <pt x="128" y="682" on="0"/>
        <pt x="119" y="680" on="1"/>
        <pt x="107" y="680" on="0"/>
        <pt x="69" y="655" on="0"/>
        <pt x="35" y="621" on="0"/>
        <pt x="30" y="607" on="1"/>
        <pt x="24" y="591" on="0"/>
        <pt x="33" y="542" on="0"/>
        <pt x="56" y="499" on="0"/>
        <pt x="88" y="482" on="0"/>
        <pt x="105" y="498" on="1"/>
        <pt x="113" y="505" on="0"/>
        <pt x="120" y="524" on="0"/>
        <pt x="120" y="543" on="1"/>
        <pt x="120" y="560" on="0"/>
        <pt x="125" y="571" on="0"/>
      </contour>
    </TTGlyph>
    <TTGlyph name="uni0055" xMin="24" yMin="-4" xMax="385" yMax="691">
      <contour>
        <pt x="25" y="572" on="1"/>
        <pt x="24" y="560" on="0"/>
        <pt x="41" y="527" on="0"/>
        <pt x="51" y="500" on="1"/>
        <pt x="58" y="478" on="0"/>
        <pt x="66" y="420" on="0"/>
        <pt x="68" y="366" on="0"/>
        <pt x="68" y="326" on="0"/>
        <pt x="68" y="322" on="1"/>
        <pt x="66" y="267" on="0"/>
        <pt x="55" y="201" on="0"/>
        <pt x="45" y="163" on="0"/>
        <pt x="41" y="140" on="0"/>
        <pt x="45" y="129" on="1"/>
        <pt x="46" y="125" on="0"/>
        <pt x="66" y="103" on="0"/>
        <pt x="86" y="83" on="0"/>
        <pt x="86" y="83" on="1"/>
        <pt x="118" y="51" on="0"/>
        <pt x="154" y="16" on="0"/>
        <pt x="174" y="1" on="0"/>
        <pt x="189" y="-2" on="0"/>
        <pt x="200" y="-3" on="1"/>
        <pt x="214" y="-4" on="0"/>
        <pt x="231" y="0" on="0"/>
        <pt x="252" y="17" on="0"/>
        <pt x="271" y="38" on="1"/>
        <pt x="283" y="52" on="0"/>
        <pt x="322" y="90" on="0"/>
        <pt x="353" y="118" on="0"/>
        <pt x="353" y="118" on="1"/>
        <pt x="361" y="126" on="0"/>
        <pt x="367" y="137" on="0"/>
        <pt x="364" y="158" on="0"/>
        <pt x="359" y="182" on="1"/>
        <pt x="345" y="252" on="0"/>
        <pt x="341" y="376" on="0"/>
        <pt x="346" y="426" on="1"/>
        <pt x="349" y="466" on="0"/>
        <pt x="364" y="509" on="0"/>
        <pt x="379" y="536" on="0"/>
        <pt x="383" y="553" on="1"/>
        <pt x="385" y="563" on="0"/>
        <pt x="370" y="607" on="0"/>
        <pt x="345" y="653" on="0"/>
        <pt x="316" y="686" on="0"/>
        <pt x="304" y="686" on="1"/>
        <pt x="287" y="686" on="0"/>
        <pt x="260" y="660" on="0"/>
        <pt x="233" y="617" on="1"/>
        <pt x="221" y="598" on="0"/>
        <pt x="213" y="576" on="0"/>
        <pt x="217" y="552" on="0"/>
        <pt x="224" y="530" on="1"/>
        <pt x="230" y="512" on="0"/>
        <pt x="236" y="486" on="0"/>
        <pt x="238" y="458" on="0"/>
        <pt x="239" y="414" on="0"/>
        <pt x="239" y="377" on="1"/>
        <pt x="239" y="296" on="1"/>
        <pt x="239" y="295" on="0"/>
        <pt x="239" y="262" on="0"/>
        <pt x="238" y="215" on="0"/>
        <pt x="238" y="166" on="0"/>
        <pt x="236" y="131" on="0"/>
        <pt x="235" y="129" on="1"/>
        <pt x="224" y="106" on="0"/>
        <pt x="182" y="117" on="0"/>
        <pt x="173" y="135" on="1"/>
        <pt x="170" y="141" on="0"/>
        <pt x="168" y="165" on="0"/>
        <pt x="167" y="223" on="0"/>
        <pt x="167" y="281" on="1"/>
        <pt x="166" y="352" on="0"/>
        <pt x="168" y="450" on="0"/>
        <pt x="171" y="477" on="1"/>
        <pt x="175" y="511" on="0"/>
        <pt x="198" y="560" on="0"/>
        <pt x="194" y="574" on="1"/>
        <pt x="193" y="577" on="0"/>
        <pt x="186" y="593" on="0"/>
        <pt x="172" y="621" on="1"/>
        <pt x="149" y="665" on="0"/>
        <pt x="119" y="686" on="0"/>
        <pt x="118" y="686" on="1"/>
        <pt x="113" y="686" on="0"/>
        <pt x="110" y="688" on="1"/>
        <pt x="98" y="691" on="0"/>
        <pt x="70" y="662" on="0"/>
        <pt x="44" y="619" on="0"/>
        <pt x="26" y="579" on="0"/>
      </contour>
    </TTGlyph>
    <TTGlyph name="uni0056" xMin="24" yMin="2" xMax="381" yMax="698">
      <contour>
        <pt x="47" y="617" on="1"/>
        <pt x="34" y="592" on="0"/>
        <pt x="24" y="565" on="0"/>
        <pt x="30" y="542" on="0"/>
        <pt x="39" y="522" on="1"/>
        <pt x="99" y="387" on="0"/>
        <pt x="125" y="138" on="1"/>
        <pt x="129" y="103" on="0"/>
        <pt x="156" y="35" on="0"/>
        <pt x="174" y="15" on="1"/>
        <pt x="182" y="6" on="0"/>
        <pt x="191" y="2" on="0"/>
        <pt x="203" y="2" on="1"/>
        <pt x="219" y="2" on="0"/>
        <pt x="227" y="9" on="1"/>
        <pt x="228" y="10" on="0"/>
        <pt x="252" y="46" on="0"/>
        <pt x="279" y="115" on="0"/>
        <pt x="283" y="164" on="1"/>
        <pt x="289" y="215" on="0"/>
        <pt x="299" y="287" on="0"/>
        <pt x="313" y="356" on="0"/>
        <pt x="325" y="401" on="1"/>
        <pt x="338" y="454" on="0"/>
        <pt x="358" y="509" on="0"/>
        <pt x="372" y="535" on="0"/>
        <pt x="380" y="550" on="0"/>
        <pt x="381" y="562" on="1"/>
        <pt x="381" y="569" on="0"/>
        <pt x="372" y="595" on="0"/>
        <pt x="361" y="618" on="0"/>
        <pt x="360" y="621" on="1"/>
        <pt x="339" y="665" on="0"/>
        <pt x="305" y="698" on="0"/>
        <pt x="266" y="668" on="0"/>
        <pt x="237" y="619" on="1"/>
        <pt x="225" y="598" on="0"/>
        <pt x="217" y="574" on="0"/>
        <pt x="229" y="538" on="0"/>
        <pt x="245" y="498" on="1"/>
        <pt x="246" y="452" on="0"/>
        <pt x="246" y="381" on="0"/>
        <pt x="240" y="308" on="0"/>
        <pt x="233" y="258" on="1"/>
        <pt x="225" y="208" on="0"/>
        <pt x="217" y="180" on="0"/>
        <pt x="212" y="180" on="1"/>
        <pt x="206" y="180" on="0"/>
        <pt x="197" y="209" on="0"/>
        <pt x="190" y="251" on="0"/>
        <pt x="184" y="293" on="0"/>
        <pt x="182" y="322" on="0"/>
        <pt x="182" y="323" on="1"/>
        <pt x="177" y="393" on="0"/>
        <pt x="177" y="474" on="0"/>
        <pt x="183" y="517" on="0"/>
        <pt x="190" y="538" on="0"/>
        <pt x="196" y="556" on="0"/>
        <pt x="196" y="572" on="1"/>
        <pt x="196" y="580" on="0"/>
        <pt x="177" y="615" on="0"/>
        <pt x="158" y="646" on="0"/>
        <pt x="158" y="646" on="1"/>
        <pt x="138" y="675" on="0"/>
        <pt x="106" y="695" on="0"/>
        <pt x="71" y="664" on="0"/>
      </contour>
    </TTGlyph>
    <TTGlyph name="uni0057" xMin="24" yMin="-7" xMax="548" yMax="689">
      <contour>
        <pt x="283" y="686" on="1"/>
        <pt x="276" y="686" on="0"/>
        <pt x="251" y="658" on="0"/>
        <pt x="227" y="617" on="0"/>
        <pt x="210" y="581" on="0"/>
        <pt x="210" y="573" on="1"/>
        <pt x="210" y="568" on="0"/>
        <pt x="217" y="543" on="0"/>
        <pt x="224" y="522" on="0"/>
        <pt x="224" y="522" on="1"/>
        <pt x="233" y="496" on="0"/>
        <pt x="241" y="453" on="0"/>
        <pt x="241" y="399" on="0"/>
        <pt x="231" y="314" on="0"/>
        <pt x="221" y="244" on="1"/>
        <pt x="213" y="193" on="0"/>
        <pt x="204" y="169" on="0"/>
        <pt x="198" y="173" on="1"/>
        <pt x="191" y="177" on="0"/>
        <pt x="183" y="221" on="0"/>
        <pt x="178" y="280" on="0"/>
        <pt x="176" y="337" on="0"/>
        <pt x="175" y="375" on="0"/>
        <pt x="175" y="376" on="1"/>
        <pt x="175" y="418" on="0"/>
        <pt x="176" y="446" on="1"/>
        <pt x="177" y="484" on="0"/>
        <pt x="187" y="529" on="0"/>
        <pt x="196" y="556" on="0"/>
        <pt x="196" y="569" on="1"/>
        <pt x="196" y="573" on="0"/>
        <pt x="181" y="610" on="0"/>
        <pt x="156" y="656" on="0"/>
        <pt x="126" y="689" on="0"/>
        <pt x="112" y="689" on="1"/>
        <pt x="99" y="689" on="0"/>
        <pt x="90" y="684" on="1"/>
        <pt x="79" y="677" on="0"/>
        <pt x="56" y="643" on="0"/>
        <pt x="36" y="603" on="0"/>
        <pt x="24" y="569" on="0"/>
        <pt x="24" y="561" on="1"/>
        <pt x="24" y="556" on="0"/>
        <pt x="31" y="534" on="0"/>
        <pt x="38" y="516" on="0"/>
        <pt x="38" y="515" on="1"/>
        <pt x="59" y="467" on="0"/>
        <pt x="86" y="369" on="0"/>
        <pt x="101" y="285" on="0"/>
        <pt x="108" y="233" on="0"/>
        <pt x="108" y="232" on="1"/>
        <pt x="112" y="185" on="0"/>
        <pt x="114" y="121" on="0"/>
        <pt x="115" y="98" on="1"/>
        <pt x="117" y="61" on="0"/>
        <pt x="142" y="10" on="0"/>
        <pt x="176" y="-7" on="0"/>
        <pt x="194" y="6" on="1"/>
        <pt x="204" y="15" on="0"/>
        <pt x="226" y="65" on="0"/>
        <pt x="245" y="127" on="0"/>
        <pt x="261" y="186" on="0"/>
        <pt x="271" y="227" on="0"/>
        <pt x="271" y="229" on="1"/>
        <pt x="277" y="261" on="0"/>
        <pt x="286" y="275" on="0"/>
        <pt x="302" y="217" on="0"/>
        <pt x="320" y="142" on="1"/>
        <pt x="330" y="103" on="0"/>
        <pt x="353" y="36" on="0"/>
        <pt x="362" y="22" on="1"/>
        <pt x="377" y="-3" on="0"/>
        <pt x="423" y="1" on="0"/>
        <pt x="437" y="32" on="1"/>
        <pt x="442" y="43" on="0"/>
        <pt x="448" y="60" on="0"/>
        <pt x="452" y="94" on="0"/>
        <pt x="456" y="162" on="0"/>
        <pt x="460" y="223" on="1"/>
        <pt x="462" y="266" on="0"/>
        <pt x="484" y="364" on="0"/>
        <pt x="511" y="449" on="0"/>
        <pt x="531" y="503" on="0"/>
        <pt x="531" y="504" on="1"/>
        <pt x="541" y="527" on="0"/>
        <pt x="548" y="557" on="0"/>
        <pt x="541" y="584" on="0"/>
        <pt x="532" y="604" on="1"/>
        <pt x="512" y="645" on="0"/>
        <pt x="487" y="680" on="0"/>
        <pt x="472" y="687" on="0"/>
        <pt x="466" y="687" on="1"/>
        <pt x="448" y="687" on="0"/>
        <pt x="418" y="657" on="0"/>
        <pt x="394" y="615" on="0"/>
        <pt x="378" y="578" on="0"/>
        <pt x="376" y="571" on="1"/>
        <pt x="384" y="535" on="0"/>
        <pt x="393" y="490" on="0"/>
        <pt x="397" y="452" on="0"/>
        <pt x="398" y="404" on="0"/>
        <pt x="398" y="364" on="1"/>
        <pt x="398" y="286" on="0"/>
        <pt x="391" y="206" on="0"/>
        <pt x="381" y="177" on="0"/>
        <pt x="373" y="176" on="0"/>
        <pt x="373" y="177" on="1"/>
        <pt x="370" y="180" on="0"/>
        <pt x="357" y="225" on="0"/>
        <pt x="344" y="296" on="0"/>
        <pt x="334" y="380" on="0"/>
        <pt x="333" y="422" on="1"/>
        <pt x="333" y="478" on="1"/>
        <pt x="358" y="563" on="0"/>
        <pt x="358" y="573" on="1"/>
        <pt x="358" y="578" on="0"/>
        <pt x="341" y="614" on="0"/>
        <pt x="317" y="656" on="0"/>
        <pt x="292" y="686" on="0"/>
      </contour>
    </TTGlyph>
    <TTGlyph name="uni0058" xMin="24" yMin="-5" xMax="365" yMax="695">
      <contour>
        <pt x="198" y="389" on="1"/>
        <pt x="192" y="389" on="0"/>
        <pt x="181" y="410" on="0"/>
        <pt x="173" y="441" on="1"/>
        <pt x="163" y="485" on="0"/>
        <pt x="166" y="534" on="0"/>
        <pt x="176" y="563" on="0"/>
        <pt x="179" y="588" on="0"/>
        <pt x="168" y="609" on="1"/>
        <pt x="135" y="670" on="0"/>
        <pt x="92" y="695" on="0"/>
        <pt x="53" y="633" on="0"/>
        <pt x="26" y="565" on="1"/>
        <pt x="66" y="503" on="0"/>
        <pt x="119" y="399" on="0"/>
        <pt x="146" y="336" on="0"/>
        <pt x="146" y="335" on="1"/>
        <pt x="121" y="285" on="1"/>
        <pt x="96" y="235" on="0"/>
        <pt x="62" y="180" on="0"/>
        <pt x="40" y="152" on="0"/>
        <pt x="29" y="138" on="0"/>
        <pt x="27" y="129" on="1"/>
        <pt x="24" y="119" on="0"/>
        <pt x="38" y="73" on="0"/>
        <pt x="61" y="24" on="0"/>
        <pt x="72" y="11" on="1"/>
        <pt x="73" y="10" on="0"/>
        <pt x="92" y="-4" on="0"/>
        <pt x="123" y="-1" on="0"/>
        <pt x="141" y="25" on="1"/>
        <pt x="166" y="58" on="0"/>
        <pt x="177" y="108" on="0"/>
        <pt x="170" y="132" on="1"/>
        <pt x="156" y="177" on="0"/>
        <pt x="164" y="252" on="0"/>
        <pt x="182" y="298" on="0"/>
        <pt x="182" y="299" on="1"/>
        <pt x="188" y="309" on="0"/>
        <pt x="197" y="294" on="0"/>
        <pt x="206" y="261" on="1"/>
        <pt x="217" y="216" on="0"/>
        <pt x="220" y="160" on="0"/>
        <pt x="215" y="125" on="0"/>
        <pt x="209" y="101" on="0"/>
        <pt x="212" y="90" on="1"/>
        <pt x="214" y="75" on="0"/>
        <pt x="242" y="30" on="0"/>
        <pt x="278" y="-5" on="0"/>
        <pt x="293" y="-5" on="1"/>
        <pt x="304" y="-5" on="0"/>
        <pt x="330" y="30" on="0"/>
        <pt x="353" y="79" on="0"/>
        <pt x="365" y="121" on="0"/>
        <pt x="363" y="128" on="1"/>
        <pt x="363" y="132" on="0"/>
        <pt x="343" y="158" on="0"/>
        <pt x="338" y="163" on="1"/>
        <pt x="306" y="202" on="0"/>
        <pt x="261" y="280" on="0"/>
        <pt x="237" y="333" on="0"/>
        <pt x="237" y="334" on="1"/>
        <pt x="237" y="335" on="0"/>
        <pt x="251" y="365" on="0"/>
        <pt x="270" y="404" on="0"/>
        <pt x="285" y="434" on="0"/>
        <pt x="285" y="434" on="1"/>
        <pt x="305" y="471" on="0"/>
        <pt x="322" y="504" on="0"/>
        <pt x="332" y="518" on="0"/>
        <pt x="340" y="528" on="1"/>
        <pt x="350" y="540" on="0"/>
        <pt x="358" y="559" on="0"/>
        <pt x="356" y="572" on="1"/>
        <pt x="355" y="575" on="0"/>
        <pt x="339" y="612" on="0"/>
        <pt x="316" y="657" on="0"/>
        <pt x="291" y="690" on="0"/>
        <pt x="282" y="689" on="1"/>
        <pt x="273" y="688" on="0"/>
        <pt x="242" y="655" on="0"/>
        <pt x="212" y="612" on="0"/>
        <pt x="207" y="597" on="1"/>
        <pt x="201" y="578" on="0"/>
        <pt x="219" y="538" on="0"/>
        <pt x="222" y="506" on="1"/>
        <pt x="222" y="495" on="0"/>
        <pt x="219" y="457" on="0"/>
        <pt x="212" y="417" on="0"/>
        <pt x="203" y="389" on="0"/>
      </contour>
    </TTGlyph>
    <TTGlyph name="uni0059" xMin="23" yMin="-5" xMax="361" yMax="692">
      <contour>
        <pt x="178" y="580" on="1"/>
        <pt x="178" y="595" on="0"/>
        <pt x="149" y="640" on="1"/>
        <pt x="129" y="669" on="0"/>
        <pt x="107" y="692" on="0"/>
        <pt x="95" y="688" on="1"/>
        <pt x="84" y="685" on="0"/>
        <pt x="62" y="656" on="0"/>
        <pt x="42" y="619" on="0"/>
        <pt x="36" y="604" on="1"/>
        <pt x="27" y="585" on="0"/>
        <pt x="23" y="563" on="0"/>
        <pt x="37" y="536" on="0"/>
        <pt x="55" y="507" on="1"/>
        <pt x="66" y="491" on="0"/>
        <pt x="92" y="442" on="0"/>
        <pt x="100" y="426" on="1"/>
        <pt x="115" y="395" on="0"/>
        <pt x="131" y="359" on="0"/>
        <pt x="139" y="334" on="0"/>
        <pt x="140" y="306" on="0"/>
        <pt x="140" y="283" on="1"/>
        <pt x="140" y="247" on="0"/>
        <pt x="134" y="202" on="0"/>
        <pt x="113" y="156" on="0"/>
        <pt x="92" y="119" on="1"/>
        <pt x="96" y="102" on="0"/>
        <pt x="101" y="89" on="0"/>
        <pt x="107" y="75" on="1"/>
        <pt x="121" y="45" on="0"/>
        <pt x="142" y="13" on="0"/>
        <pt x="166" y="0" on="0"/>
        <pt x="183" y="-2" on="1"/>
        <pt x="211" y="-5" on="0"/>
        <pt x="245" y="23" on="0"/>
        <pt x="265" y="64" on="1"/>
        <pt x="277" y="89" on="0"/>
        <pt x="286" y="113" on="0"/>
        <pt x="281" y="131" on="0"/>
        <pt x="272" y="148" on="1"/>
        <pt x="260" y="172" on="0"/>
        <pt x="248" y="206" on="0"/>
        <pt x="244" y="246" on="0"/>
        <pt x="244" y="278" on="1"/>
        <pt x="244" y="315" on="0"/>
        <pt x="245" y="327" on="1"/>
        <pt x="246" y="342" on="0"/>
        <pt x="265" y="389" on="0"/>
        <pt x="291" y="440" on="0"/>
        <pt x="317" y="485" on="0"/>
        <pt x="335" y="514" on="0"/>
        <pt x="335" y="515" on="1"/>
        <pt x="351" y="537" on="0"/>
        <pt x="361" y="563" on="0"/>
        <pt x="352" y="593" on="0"/>
        <pt x="339" y="621" on="1"/>
        <pt x="323" y="653" on="0"/>
        <pt x="305" y="682" on="0"/>
        <pt x="293" y="689" on="0"/>
        <pt x="289" y="689" on="1"/>
        <pt x="279" y="689" on="0"/>
        <pt x="244" y="656" on="0"/>
        <pt x="214" y="611" on="0"/>
        <pt x="210" y="592" on="1"/>
        <pt x="206" y="576" on="0"/>
        <pt x="221" y="527" on="0"/>
        <pt x="224" y="506" on="1"/>
        <pt x="225" y="489" on="0"/>
        <pt x="218" y="435" on="0"/>
        <pt x="207" y="388" on="0"/>
        <pt x="205" y="383" on="1"/>
        <pt x="199" y="370" on="0"/>
        <pt x="185" y="393" on="0"/>
        <pt x="173" y="439" on="0"/>
        <pt x="165" y="486" on="0"/>
        <pt x="165" y="498" on="1"/>
        <pt x="165" y="526" on="0"/>
        <pt x="178" y="567" on="0"/>
      </contour>
    </TTGlyph>
    <TTGlyph name="uni005A" xMin="24" yMin="-7" xMax="361" yMax="691">
      <contour>
        <pt x="24" y="595" on="1"/>
        <pt x="24" y="591" on="0"/>
        <pt x="34" y="562" on="0"/>
        <pt x="50" y="528" on="0"/>
        <pt x="71" y="499" on="0"/>
        <pt x="82" y="494" on="1"/>
        <pt x="87" y="491" on="0"/>
        <pt x="111" y="492" on="0"/>
        <pt x="133" y="513" on="0"/>
        <pt x="133" y="540" on="1"/>
        <pt x="133" y="561" on="0"/>
        <pt x="146" y="579" on="0"/>
        <pt x="168" y="579" on="1"/>
        <pt x="200" y="581" on="0"/>
        <pt x="209" y="571" on="0"/>
        <pt x="208" y="563" on="1"/>
        <pt x="208" y="556" on="0"/>
        <pt x="192" y="505" on="0"/>
        <pt x="166" y="432" on="0"/>
        <pt x="136" y="349" on="0"/>
        <pt x="106" y="271" on="0"/>
        <pt x="83" y="212" on="0"/>
        <pt x="78" y="199" on="1"/>
        <pt x="57" y="152" on="0"/>
        <pt x="30" y="115" on="0"/>
        <pt x="30" y="103" on="1"/>
        <pt x="30" y="93" on="0"/>
        <pt x="46" y="51" on="0"/>
        <pt x="64" y="13" on="0"/>
        <pt x="69" y="8" on="1"/>
        <pt x="69" y="7" on="0"/>
        <pt x="84" y="-2" on="0"/>
        <pt x="108" y="1" on="0"/>
        <pt x="123" y="19" on="1"/>
        <pt x="130" y="28" on="0"/>
        <pt x="148" y="40" on="0"/>
        <pt x="185" y="33" on="0"/>
        <pt x="221" y="14" on="1"/>
        <pt x="244" y="3" on="0"/>
        <pt x="282" y="-7" on="0"/>
        <pt x="302" y="11" on="1"/>
        <pt x="302" y="11" on="0"/>
        <pt x="320" y="32" on="0"/>
        <pt x="343" y="63" on="0"/>
        <pt x="361" y="93" on="0"/>
        <pt x="361" y="102" on="1"/>
        <pt x="361" y="110" on="0"/>
        <pt x="350" y="138" on="0"/>
        <pt x="338" y="162" on="0"/>
        <pt x="338" y="163" on="1"/>
        <pt x="323" y="191" on="0"/>
        <pt x="308" y="214" on="0"/>
        <pt x="296" y="216" on="0"/>
        <pt x="286" y="213" on="1"/>
        <pt x="264" y="206" on="0"/>
        <pt x="246" y="184" on="0"/>
        <pt x="246" y="149" on="1"/>
        <pt x="246" y="136" on="0"/>
        <pt x="241" y="121" on="0"/>
        <pt x="234" y="106" on="1"/>
        <pt x="212" y="107" on="0"/>
        <pt x="178" y="114" on="0"/>
        <pt x="178" y="128" on="1"/>
        <pt x="178" y="137" on="0"/>
        <pt x="195" y="193" on="0"/>
        <pt x="221" y="269" on="0"/>
        <pt x="251" y="350" on="0"/>
        <pt x="278" y="421" on="0"/>
        <pt x="295" y="467" on="0"/>
        <pt x="296" y="469" on="1"/>
        <pt x="317" y="519" on="0"/>
        <pt x="343" y="567" on="0"/>
        <pt x="356" y="586" on="0"/>
        <pt x="356" y="593" on="1"/>
        <pt x="356" y="596" on="0"/>
        <pt x="344" y="624" on="0"/>
        <pt x="327" y="659" on="0"/>
        <pt x="310" y="686" on="0"/>
        <pt x="305" y="688" on="1"/>
        <pt x="297" y="691" on="0"/>
        <pt x="273" y="677" on="0"/>
        <pt x="249" y="656" on="0"/>
        <pt x="230" y="640" on="0"/>
        <pt x="227" y="641" on="1"/>
        <pt x="221" y="641" on="0"/>
        <pt x="203" y="652" on="0"/>
        <pt x="188" y="663" on="0"/>
        <pt x="188" y="663" on="1"/>
        <pt x="175" y="673" on="0"/>
        <pt x="129" y="689" on="0"/>
        <pt x="114" y="689" on="1"/>
        <pt x="96" y="689" on="0"/>
        <pt x="64" y="665" on="0"/>
        <pt x="39" y="632" on="0"/>
        <pt x="24" y="602" on="0"/>
      </contour>
    </TTGlyph>
    <TTGlyph name="uni005B" xMin="24" yMin="-34" xMax="173" yMax="597">
      <contour>
        <pt x="25" y="2" on="1"/>
        <pt x="25" y="-30" on="1"/>
        <pt x="54" y="-31" on="0"/>
        <pt x="77" y="-32" on="0"/>
        <pt x="96" y="-32" on="1"/>
        <pt x="166" y="-34" on="1"/>
        <pt x="169" y="-25" on="0"/>
        <pt x="170" y="-14" on="0"/>
        <pt x="172" y="9" on="1"/>
        <pt x="118" y="11" on="0"/>
        <pt x="65" y="12" on="1"/>
        <pt x="65" y="554" on="1"/>
        <pt x="116" y="556" on="0"/>
        <pt x="167" y="557" on="1"/>
        <pt x="173" y="594" on="0"/>
        <pt x="172" y="595" on="1"/>
        <pt x="171" y="596" on="0"/>
        <pt x="150" y="597" on="0"/>
        <pt x="125" y="597" on="0"/>
        <pt x="119" y="597" on="1"/>
        <pt x="39" y="597" on="1"/>
        <pt x="24" y="597" on="0"/>
        <pt x="24" y="596" on="1"/>
        <pt x="24" y="203" on="1"/>
        <pt x="24" y="186" on="0"/>
        <pt x="24" y="120" on="0"/>
        <pt x="25" y="51" on="0"/>
        <pt x="25" y="3" on="0"/>
      </contour>
    </TTGlyph>
    <TTGlyph name="uni005C" xMin="24" yMin="-34" xMax="195" yMax="597">
      <contour>
        <pt x="194" y="-25" on="1"/>
        <pt x="194" y="-23" on="0"/>
        <pt x="192" y="-13" on="0"/>
        <pt x="184" y="23" on="0"/>
        <pt x="168" y="100" on="0"/>
        <pt x="140" y="236" on="0"/>
        <pt x="97" y="446" on="0"/>
        <pt x="66" y="597" on="1"/>
        <pt x="24" y="597" on="1"/>
        <pt x="24" y="593" on="0"/>
        <pt x="39" y="520" on="0"/>
        <pt x="62" y="407" on="0"/>
        <pt x="90" y="274" on="0"/>
        <pt x="117" y="142" on="0"/>
        <pt x="140" y="32" on="0"/>
        <pt x="154" y="-34" on="0"/>
        <pt x="154" y="-34" on="1"/>
        <pt x="161" y="-34" on="1"/>
        <pt x="167" y="-34" on="0"/>
        <pt x="175" y="-33" on="1"/>
        <pt x="190" y="-32" on="0"/>
        <pt x="195" y="-30" on="0"/>
      </contour>
    </TTGlyph>
    <TTGlyph name="uni005D" xMin="24" yMin="-34" xMax="173" yMax="597">
      <contour>
        <pt x="24" y="595" on="1"/>
        <pt x="25" y="583" on="0"/>
        <pt x="27" y="574" on="0"/>
        <pt x="29" y="567" on="0"/>
        <pt x="30" y="558" on="1"/>
        <pt x="81" y="556" on="0"/>
        <pt x="132" y="555" on="1"/>
        <pt x="132" y="12" on="1"/>
        <pt x="105" y="12" on="0"/>
        <pt x="51" y="10" on="0"/>
        <pt x="25" y="9" on="1"/>
        <pt x="27" y="-16" on="0"/>
        <pt x="28" y="-27" on="0"/>
        <pt x="32" y="-34" on="1"/>
        <pt x="102" y="-32" on="1"/>
        <pt x="124" y="-32" on="0"/>
        <pt x="148" y="-31" on="0"/>
        <pt x="172" y="-30" on="1"/>
        <pt x="173" y="-30" on="0"/>
        <pt x="173" y="13" on="1"/>
        <pt x="173" y="597" on="1"/>
        <pt x="61" y="597" on="1"/>
        <pt x="50" y="597" on="0"/>
        <pt x="41" y="597" on="0"/>
      </contour>
    </TTGlyph>
    <TTGlyph name="uni005E" xMin="24" yMin="222" xMax="518" yMax="588">
      <contour>
        <pt x="160" y="506" on="1"/>
        <pt x="136" y="483" on="0"/>
        <pt x="76" y="430" on="0"/>
        <pt x="60" y="418" on="1"/>
        <pt x="37" y="401" on="0"/>
        <pt x="24" y="383" on="0"/>
        <pt x="27" y="377" on="1"/>
        <pt x="28" y="375" on="0"/>
        <pt x="50" y="326" on="0"/>
        <pt x="91" y="260" on="0"/>
        <pt x="117" y="234" on="1"/>
        <pt x="149" y="257" on="0"/>
        <pt x="184" y="295" on="0"/>
        <pt x="200" y="314" on="1"/>
        <pt x="224" y="344" on="0"/>
        <pt x="252" y="372" on="0"/>
        <pt x="275" y="369" on="0"/>
        <pt x="292" y="354" on="1"/>
        <pt x="304" y="343" on="0"/>
        <pt x="344" y="302" on="0"/>
        <pt x="387" y="259" on="0"/>
        <pt x="419" y="229" on="0"/>
        <pt x="422" y="229" on="1"/>
        <pt x="428" y="229" on="0"/>
        <pt x="451" y="261" on="0"/>
        <pt x="478" y="308" on="0"/>
        <pt x="502" y="355" on="0"/>
        <pt x="518" y="387" on="0"/>
        <pt x="518" y="387" on="1"/>
        <pt x="518" y="389" on="0"/>
        <pt x="499" y="405" on="0"/>
        <pt x="474" y="424" on="0"/>
        <pt x="454" y="438" on="0"/>
        <pt x="454" y="438" on="1"/>
        <pt x="446" y="444" on="0"/>
        <pt x="412" y="471" on="0"/>
        <pt x="378" y="501" on="0"/>
        <pt x="371" y="511" on="1"/>
        <pt x="359" y="527" on="0"/>
        <pt x="319" y="563" on="0"/>
        <pt x="281" y="588" on="0"/>
        <pt x="271" y="588" on="1"/>
        <pt x="261" y="588" on="0"/>
        <pt x="243" y="580" on="0"/>
        <pt x="202" y="545" on="0"/>
      </contour>
      <contour>
        <pt x="247" y="224" on="1"/>
        <pt x="252" y="222" on="0"/>
        <pt x="284" y="222" on="1"/>
        <pt x="316" y="222" on="0"/>
        <pt x="322" y="224" on="1"/>
        <pt x="327" y="226" on="0"/>
        <pt x="305" y="242" on="0"/>
        <pt x="284" y="242" on="1"/>
        <pt x="263" y="242" on="0"/>
        <pt x="241" y="226" on="0"/>
      </contour>
    </TTGlyph>
    <TTGlyph name="uni005F" xMin="24" yMin="-83" xMax="223" yMax="-36">
      <contour>
        <pt x="217" y="-81" on="1"/>
        <pt x="219" y="-79" on="0"/>
        <pt x="222" y="-59" on="0"/>
        <pt x="223" y="-39" on="0"/>
        <pt x="222" y="-38" on="1"/>
        <pt x="184" y="-37" on="0"/>
        <pt x="126" y="-36" on="0"/>
        <pt x="95" y="-36" on="1"/>
        <pt x="73" y="-36" on="0"/>
        <pt x="49" y="-36" on="0"/>
        <pt x="26" y="-37" on="1"/>
        <pt x="25" y="-39" on="0"/>
        <pt x="24" y="-58" on="0"/>
        <pt x="24" y="-77" on="0"/>
        <pt x="24" y="-77" on="1"/>
        <pt x="24" y="-83" on="1"/>
        <pt x="120" y="-83" on="1"/>
        <pt x="173" y="-83" on="0"/>
        <pt x="217" y="-82" on="0"/>
      </contour>
    </TTGlyph>
    <TTGlyph name="uni0060" xMin="24" yMin="442" xMax="164" yMax="564">
      <contour>
        <pt x="26" y="526" on="1"/>
        <pt x="24" y="521" on="0"/>
        <pt x="28" y="514" on="1"/>
        <pt x="34" y="506" on="0"/>
        <pt x="80" y="477" on="0"/>
        <pt x="133" y="450" on="0"/>
        <pt x="150" y="446" on="1"/>
        <pt x="164" y="442" on="0"/>
        <pt x="150" y="466" on="1"/>
        <pt x="147" y="471" on="0"/>
        <pt x="130" y="505" on="0"/>
        <pt x="111" y="540" on="0"/>
        <pt x="107" y="547" on="1"/>
        <pt x="94" y="564" on="0"/>
        <pt x="63" y="564" on="0"/>
        <pt x="34" y="542" on="0"/>
      </contour>
    </TTGlyph>
    <TTGlyph name="uni0061" xMin="26" yMin="-4" xMax="338" yMax="536">
      <contour>
        <pt x="73" y="475" on="1"/>
        <pt x="56" y="459" on="0"/>
        <pt x="30" y="430" on="0"/>
        <pt x="29" y="425" on="1"/>
        <pt x="27" y="417" on="0"/>
        <pt x="40" y="381" on="0"/>
        <pt x="61" y="345" on="0"/>
        <pt x="73" y="336" on="1"/>
        <pt x="89" y="323" on="0"/>
        <pt x="131" y="328" on="0"/>
        <pt x="138" y="342" on="1"/>
        <pt x="144" y="355" on="0"/>
        <pt x="139" y="406" on="0"/>
        <pt x="141" y="419" on="1"/>
        <pt x="142" y="430" on="0"/>
        <pt x="162" y="437" on="0"/>
        <pt x="183" y="428" on="0"/>
        <pt x="186" y="416" on="1"/>
        <pt x="187" y="409" on="0"/>
        <pt x="188" y="366" on="0"/>
        <pt x="186" y="324" on="0"/>
        <pt x="184" y="318" on="1"/>
        <pt x="181" y="307" on="0"/>
        <pt x="138" y="294" on="0"/>
        <pt x="83" y="274" on="0"/>
        <pt x="60" y="253" on="1"/>
        <pt x="48" y="242" on="0"/>
        <pt x="39" y="203" on="0"/>
        <pt x="35" y="158" on="0"/>
        <pt x="29" y="139" on="1"/>
        <pt x="26" y="126" on="0"/>
        <pt x="26" y="107" on="0"/>
        <pt x="44" y="77" on="0"/>
        <pt x="67" y="48" on="1"/>
        <pt x="89" y="19" on="0"/>
        <pt x="114" y="0" on="0"/>
        <pt x="128" y="4" on="1"/>
        <pt x="137" y="8" on="0"/>
        <pt x="172" y="49" on="0"/>
        <pt x="182" y="72" on="1"/>
        <pt x="185" y="82" on="0"/>
        <pt x="193" y="87" on="0"/>
        <pt x="197" y="70" on="1"/>
        <pt x="203" y="51" on="0"/>
        <pt x="228" y="17" on="0"/>
        <pt x="257" y="-4" on="0"/>
        <pt x="266" y="-2" on="1"/>
        <pt x="273" y="-1" on="0"/>
        <pt x="297" y="20" on="0"/>
        <pt x="321" y="48" on="0"/>
        <pt x="338" y="71" on="0"/>
        <pt x="338" y="74" on="1"/>
        <pt x="338" y="79" on="0"/>
        <pt x="325" y="95" on="1"/>
        <pt x="310" y="115" on="0"/>
        <pt x="295" y="153" on="0"/>
        <pt x="290" y="208" on="0"/>
        <pt x="290" y="254" on="1"/>
        <pt x="290" y="280" on="0"/>
        <pt x="291" y="311" on="0"/>
        <pt x="294" y="339" on="0"/>
        <pt x="301" y="377" on="0"/>
        <pt x="308" y="409" on="1"/>
        <pt x="296" y="429" on="0"/>
        <pt x="278" y="450" on="0"/>
        <pt x="256" y="472" on="1"/>
        <pt x="226" y="502" on="0"/>
        <pt x="186" y="534" on="0"/>
        <pt x="151" y="536" on="0"/>
        <pt x="107" y="506" on="0"/>
      </contour>
      <contour>
        <pt x="190" y="240" on="1"/>
        <pt x="190" y="238" on="0"/>
        <pt x="190" y="231" on="0"/>
        <pt x="187" y="201" on="0"/>
        <pt x="184" y="165" on="1"/>
        <pt x="181" y="131" on="0"/>
        <pt x="171" y="109" on="0"/>
        <pt x="163" y="110" on="1"/>
        <pt x="150" y="110" on="0"/>
        <pt x="138" y="136" on="0"/>
        <pt x="136" y="168" on="0"/>
        <pt x="136" y="179" on="1"/>
        <pt x="136" y="189" on="0"/>
        <pt x="138" y="225" on="0"/>
        <pt x="154" y="254" on="0"/>
        <pt x="174" y="254" on="1"/>
        <pt x="185" y="254" on="0"/>
        <pt x="190" y="246" on="0"/>
      </contour>
    </TTGlyph>
    <TTGlyph name="uni0062" xMin="24" yMin="-4" xMax="328" yMax="692">
      <contour>
        <pt x="24" y="595" on="1"/>
        <pt x="33" y="573" on="0"/>
        <pt x="44" y="545" on="0"/>
        <pt x="50" y="520" on="0"/>
        <pt x="54" y="486" on="0"/>
        <pt x="56" y="459" on="1"/>
        <pt x="62" y="361" on="0"/>
        <pt x="61" y="238" on="0"/>
        <pt x="50" y="167" on="0"/>
        <pt x="37" y="133" on="0"/>
        <pt x="27" y="116" on="0"/>
        <pt x="27" y="107" on="1"/>
        <pt x="27" y="102" on="0"/>
        <pt x="37" y="82" on="0"/>
        <pt x="48" y="62" on="0"/>
        <pt x="50" y="59" on="1"/>
        <pt x="72" y="20" on="0"/>
        <pt x="104" y="-4" on="0"/>
        <pt x="124" y="10" on="1"/>
        <pt x="139" y="20" on="0"/>
        <pt x="152" y="49" on="0"/>
        <pt x="157" y="72" on="0"/>
        <pt x="161" y="73" on="1"/>
        <pt x="165" y="73" on="0"/>
        <pt x="173" y="55" on="0"/>
        <pt x="194" y="32" on="1"/>
        <pt x="221" y="0" on="0"/>
        <pt x="253" y="8" on="0"/>
        <pt x="280" y="46" on="1"/>
        <pt x="293" y="65" on="0"/>
        <pt x="314" y="95" on="0"/>
        <pt x="328" y="112" on="1"/>
        <pt x="328" y="267" on="1"/>
        <pt x="327" y="422" on="1"/>
        <pt x="317" y="437" on="0"/>
        <pt x="283" y="485" on="0"/>
        <pt x="252" y="524" on="0"/>
        <pt x="247" y="526" on="1"/>
        <pt x="236" y="529" on="0"/>
        <pt x="209" y="509" on="0"/>
        <pt x="185" y="479" on="0"/>
        <pt x="169" y="453" on="0"/>
        <pt x="169" y="450" on="1"/>
        <pt x="169" y="448" on="0"/>
        <pt x="160" y="439" on="0"/>
        <pt x="154" y="434" on="1"/>
        <pt x="154" y="463" on="1"/>
        <pt x="154" y="505" on="0"/>
        <pt x="162" y="554" on="0"/>
        <pt x="171" y="583" on="0"/>
        <pt x="173" y="594" on="1"/>
        <pt x="174" y="600" on="0"/>
        <pt x="158" y="631" on="0"/>
        <pt x="133" y="667" on="0"/>
        <pt x="108" y="692" on="0"/>
        <pt x="100" y="692" on="1"/>
        <pt x="94" y="692" on="0"/>
        <pt x="47" y="648" on="0"/>
      </contour>
      <contour>
        <pt x="218" y="257" on="1"/>
        <pt x="218" y="188" on="0"/>
        <pt x="218" y="156" on="1"/>
        <pt x="217" y="135" on="0"/>
        <pt x="212" y="102" on="0"/>
        <pt x="201" y="91" on="0"/>
        <pt x="191" y="105" on="1"/>
        <pt x="178" y="120" on="0"/>
        <pt x="164" y="162" on="0"/>
        <pt x="160" y="234" on="0"/>
        <pt x="161" y="297" on="1"/>
        <pt x="161" y="332" on="0"/>
        <pt x="162" y="349" on="1"/>
        <pt x="163" y="389" on="0"/>
        <pt x="189" y="420" on="0"/>
        <pt x="190" y="420" on="1"/>
        <pt x="193" y="420" on="0"/>
        <pt x="201" y="416" on="1"/>
        <pt x="207" y="413" on="0"/>
        <pt x="214" y="404" on="0"/>
        <pt x="217" y="376" on="0"/>
        <pt x="218" y="313" on="0"/>
      </contour>
    </TTGlyph>
    <TTGlyph name="uni0063" xMin="24" yMin="0" xMax="313" yMax="535">
      <contour>
        <pt x="240" y="306" on="1"/>
        <pt x="256" y="306" on="0"/>
        <pt x="284" y="341" on="0"/>
        <pt x="292" y="356" on="1"/>
        <pt x="309" y="384" on="0"/>
        <pt x="313" y="415" on="0"/>
        <pt x="300" y="432" on="1"/>
        <pt x="300" y="432" on="0"/>
        <pt x="267" y="464" on="0"/>
        <pt x="222" y="504" on="0"/>
        <pt x="180" y="535" on="0"/>
        <pt x="171" y="535" on="1"/>
        <pt x="162" y="535" on="0"/>
        <pt x="119" y="506" on="0"/>
        <pt x="70" y="466" on="0"/>
        <pt x="30" y="428" on="0"/>
        <pt x="24" y="419" on="1"/>
        <pt x="30" y="395" on="0"/>
        <pt x="37" y="366" on="0"/>
        <pt x="40" y="341" on="0"/>
        <pt x="41" y="308" on="0"/>
        <pt x="41" y="280" on="1"/>
        <pt x="41" y="249" on="0"/>
        <pt x="40" y="218" on="0"/>
        <pt x="38" y="196" on="0"/>
        <pt x="35" y="179" on="1"/>
        <pt x="29" y="153" on="0"/>
        <pt x="26" y="129" on="0"/>
        <pt x="35" y="113" on="0"/>
        <pt x="48" y="100" on="1"/>
        <pt x="93" y="50" on="0"/>
        <pt x="140" y="8" on="0"/>
        <pt x="162" y="0" on="0"/>
        <pt x="170" y="0" on="1"/>
        <pt x="183" y="0" on="0"/>
        <pt x="189" y="4" on="1"/>
        <pt x="191" y="5" on="0"/>
        <pt x="215" y="27" on="0"/>
        <pt x="250" y="60" on="0"/>
        <pt x="285" y="95" on="0"/>
        <pt x="309" y="121" on="0"/>
        <pt x="310" y="125" on="1"/>
        <pt x="313" y="135" on="0"/>
        <pt x="299" y="173" on="0"/>
        <pt x="275" y="214" on="0"/>
        <pt x="247" y="244" on="0"/>
        <pt x="237" y="246" on="1"/>
        <pt x="226" y="247" on="0"/>
        <pt x="194" y="226" on="0"/>
        <pt x="190" y="212" on="1"/>
        <pt x="187" y="199" on="0"/>
        <pt x="192" y="165" on="0"/>
        <pt x="196" y="131" on="0"/>
        <pt x="188" y="109" on="0"/>
        <pt x="170" y="109" on="1"/>
        <pt x="147" y="109" on="0"/>
        <pt x="143" y="133" on="1"/>
        <pt x="142" y="137" on="0"/>
        <pt x="142" y="172" on="0"/>
        <pt x="141" y="218" on="0"/>
        <pt x="141" y="265" on="0"/>
        <pt x="141" y="280" on="1"/>
        <pt x="142" y="333" on="0"/>
        <pt x="142" y="363" on="1"/>
        <pt x="142" y="385" on="0"/>
        <pt x="144" y="418" on="0"/>
        <pt x="148" y="423" on="1"/>
        <pt x="155" y="431" on="0"/>
        <pt x="179" y="426" on="0"/>
        <pt x="199" y="412" on="0"/>
        <pt x="200" y="406" on="1"/>
        <pt x="200" y="399" on="0"/>
        <pt x="195" y="369" on="0"/>
        <pt x="195" y="355" on="1"/>
        <pt x="194" y="332" on="0"/>
        <pt x="216" y="311" on="0"/>
        <pt x="239" y="306" on="0"/>
      </contour>
    </TTGlyph>
    <TTGlyph name="uni0064" xMin="24" yMin="0" xMax="327" yMax="696">
      <contour>
        <pt x="174" y="607" on="1"/>
        <pt x="172" y="598" on="0"/>
        <pt x="186" y="567" on="0"/>
        <pt x="189" y="551" on="1"/>
        <pt x="189" y="551" on="0"/>
        <pt x="191" y="517" on="0"/>
        <pt x="194" y="474" on="0"/>
        <pt x="196" y="441" on="0"/>
        <pt x="196" y="440" on="1"/>
        <pt x="194" y="434" on="0"/>
        <pt x="182" y="457" on="0"/>
        <pt x="162" y="493" on="0"/>
        <pt x="136" y="524" on="0"/>
        <pt x="120" y="526" on="1"/>
        <pt x="110" y="527" on="0"/>
        <pt x="81" y="501" on="0"/>
        <pt x="52" y="464" on="0"/>
        <pt x="29" y="433" on="0"/>
        <pt x="26" y="428" on="1"/>
        <pt x="25" y="340" on="0"/>
        <pt x="25" y="240" on="0"/>
        <pt x="24" y="199" on="0"/>
        <pt x="24" y="198" on="1"/>
        <pt x="24" y="138" on="1"/>
        <pt x="24" y="124" on="0"/>
        <pt x="27" y="103" on="0"/>
        <pt x="44" y="75" on="0"/>
        <pt x="63" y="50" on="1"/>
        <pt x="80" y="27" on="0"/>
        <pt x="108" y="1" on="0"/>
        <pt x="137" y="9" on="0"/>
        <pt x="157" y="38" on="1"/>
        <pt x="176" y="64" on="0"/>
        <pt x="182" y="91" on="0"/>
        <pt x="186" y="88" on="1"/>
        <pt x="187" y="87" on="0"/>
        <pt x="196" y="60" on="0"/>
        <pt x="212" y="26" on="0"/>
        <pt x="234" y="0" on="0"/>
        <pt x="249" y="0" on="1"/>
        <pt x="256" y="0" on="0"/>
        <pt x="266" y="7" on="1"/>
        <pt x="275" y="14" on="0"/>
        <pt x="295" y="45" on="0"/>
        <pt x="314" y="77" on="0"/>
        <pt x="327" y="101" on="0"/>
        <pt x="327" y="101" on="1"/>
        <pt x="313" y="130" on="0"/>
        <pt x="303" y="153" on="0"/>
        <pt x="299" y="167" on="1"/>
        <pt x="290" y="192" on="0"/>
        <pt x="285" y="277" on="0"/>
        <pt x="286" y="372" on="0"/>
        <pt x="290" y="457" on="0"/>
        <pt x="295" y="512" on="0"/>
        <pt x="295" y="513" on="1"/>
        <pt x="301" y="541" on="0"/>
        <pt x="316" y="579" on="0"/>
        <pt x="318" y="588" on="1"/>
        <pt x="319" y="595" on="0"/>
        <pt x="302" y="627" on="0"/>
        <pt x="276" y="664" on="0"/>
        <pt x="265" y="680" on="1"/>
        <pt x="252" y="696" on="0"/>
        <pt x="221" y="681" on="0"/>
        <pt x="193" y="645" on="0"/>
        <pt x="174" y="610" on="0"/>
      </contour>
      <contour>
        <pt x="193" y="336" on="1"/>
        <pt x="193" y="253" on="0"/>
        <pt x="185" y="156" on="0"/>
        <pt x="184" y="152" on="1"/>
        <pt x="178" y="128" on="0"/>
        <pt x="156" y="101" on="0"/>
        <pt x="156" y="101" on="1"/>
        <pt x="155" y="101" on="0"/>
        <pt x="144" y="108" on="0"/>
        <pt x="140" y="127" on="1"/>
        <pt x="137" y="138" on="0"/>
        <pt x="134" y="191" on="0"/>
        <pt x="132" y="258" on="0"/>
        <pt x="131" y="320" on="0"/>
        <pt x="131" y="362" on="0"/>
        <pt x="131" y="363" on="1"/>
        <pt x="131" y="400" on="0"/>
        <pt x="132" y="403" on="1"/>
        <pt x="134" y="410" on="0"/>
        <pt x="146" y="426" on="0"/>
        <pt x="150" y="426" on="1"/>
        <pt x="154" y="426" on="0"/>
        <pt x="165" y="414" on="1"/>
        <pt x="178" y="399" on="0"/>
        <pt x="189" y="383" on="0"/>
        <pt x="192" y="360" on="0"/>
      </contour>
    </TTGlyph>
</ttFont>
